{
classes = (
{
code = "A Agrave Aacute Acircumflex Atilde Adieresis Aring uni0200 uni0202 B C Ccedilla D E Egrave Eacute Ecircumflex Edieresis uni0204 uni0206 F G H I Igrave Iacute Icircumflex Idieresis uni0208 uni020A J K L M N Ntilde O Ograve Oacute Ocircumflex Otilde Odieresis uni020C uni020E P Q R uni0210 uni0212 S Scaron Scommaaccent T Tcommaaccent U Ugrave Uacute Ucircumflex Udieresis uni0214 uni0216 V W X Y Ydieresis Z Zcaron AE Oslash Thorn Lslash OE Omega Yacute Itilde Jcircumflex Ldot Racute Rcommaaccent Nacute Rcaron IJ Abreve Amacron Aogonek Bdotaccent Cacute Ccaron Cdotaccent Eth Dcaron Dcroat Ddotaccent Ecaron Edotaccent Emacron Eogonek Fdotaccent Gbreve Gcircumflex Gcommaaccent Gdotaccent Hbar Hcircumflex Idotaccent Imacron Iogonek Kcommaaccent Lacute Lcaron Lcommaaccent Mdotaccent Ncaron Ncommaaccent Eng Ohungarumlaut Omacron Pdotaccent Sacute Scedilla Scircumflex Sdotaccent Tbar Tcaron Tcedilla Tdotaccent Ubreve Uhungarumlaut Umacron Uogonek Uring Utilde Wacute Wcircumflex Wdieresis Wgrave Ycircumflex Ygrave Zacute Zdotaccent Delta";
name = Uppercase;
}
);
copyright = "Copyright (c) 2011-13 by vernon adams. All rights reserved.";
customParameters = (
{
name = glyphOrder;
value = (
    A,
    Agrave,
    Aacute,
    Acircumflex,
    Atilde,
    Adieresis,
    Aring,
    uni0200,
    uni0202,
    B,
    C,
    Ccedilla,
    D,
    E,
    Egrave,
    Eacute,
    Ecircumflex,
    Edieresis,
    uni0204,
    uni0206,
    F,
    G,
    H,
    I,
    Igrave,
    Iacute,
    Icircumflex,
    Idieresis,
    uni0208,
    uni020A,
    J,
    K,
    L,
    M,
    N,
    Ntilde,
    O,
    Ograve,
    Oacute,
    Ocircumflex,
    Otilde,
    Odieresis,
    uni020C,
    uni020E,
    P,
    Q,
    R,
    uni0210,
    uni0212,
    S,
    Scaron,
    Scommaaccent,
    T,
    Tcommaaccent,
    U,
    Ugrave,
    Uacute,
    Ucircumflex,
    Udieresis,
    uni0214,
    uni0216,
    V,
    W,
    X,
    Y,
    Ydieresis,
    Z,
    Zcaron,
    AE,
    Oslash,

glyphs = (
{
glyphname = A;
lastChange = "2013-12-30 23:23:56 -0800";
layers = (
{
anchors = (
{
name = ogonek;
position = "{790, 0}";
},
{
name = top;
position = "{496, 1760}";
}
);
layerId = "6CD1E358-6E98-409F-9A1F-EA9DE4C1A8AA";
name = Regular;
paths = (
{
closed = 1;
nodes = (
"30 0 LINE",
"372 0 LINE",
"394 284 LINE",
"606 284 LINE",
"631 0 LINE",
"964 0 LINE",
"797 1760 LINE",
"200 1760 LINE"
);
},
{
closed = 1;
nodes = (
"419 565 LINE",
"486 1460 LINE",
"502 1460 LINE",
"579 565 LINE"
);
}
);
width = 994;
},
{
anchors = (
{
name = ogonek;
position = "{634, 0}";
},
{
name = top;
position = "{617, 1760}";
}
);
layerId = "E8DA9D10-2326-4043-BA0A-F99E452091F3";
name = "Regular Italic";
paths = (
{
closed = 1;
nodes = (
"-126 0 LINE",
"216 0 LINE",
"282 284 LINE",
"494 284 LINE",
"475 0 LINE",
"808 0 LINE",
"918 1760 LINE",
"321 1760 LINE"
);
},
{
closed = 1;
nodes = (
"351 565 LINE",
"560 1460 LINE",
"576 1460 LINE",
"511 565 LINE"
);
}
);
width = 994;
}
);
unicode = 0041;
userData = {
com.typemytype.robofont.layerData = {
};
public.markColor = "0.85,0.26,0.06,1";
};
},
{
glyphname = B;
lastChange = "2013-12-30 23:23:56 -0800";
layers = (
{
anchors = (
{
name = top;
position = "{451, 1760}";
}
);
layerId = "6CD1E358-6E98-409F-9A1F-EA9DE4C1A8AA";
name = Regular;
paths = (
{
closed = 1;
nodes = (
"78 0 LINE",
"555 0 LINE SMOOTH",
"865 0 OFFCURVE",
"942 226 OFFCURVE",
"942 569 CURVE SMOOTH",
"942 781 OFFCURVE",
"900 939 OFFCURVE",
"742 979 CURVE",
"863 1011 OFFCURVE",
"922 1116 OFFCURVE",
"922 1281 CURVE SMOOTH",
"922 1358 LINE SMOOTH",
"922 1645 OFFCURVE",
"811 1760 OFFCURVE",
"555 1760 CURVE SMOOTH",
"78 1760 LINE"
);
},
{
closed = 1;
nodes = (
"457 310 CURVE SMOOTH",
"450 310 OFFCURVE",
"438 311 OFFCURVE",
"422 312 CURVE",
"422 822 LINE",
"487 822 LINE SMOOTH",
"570 822 OFFCURVE",
"594 760 OFFCURVE",
"594 660 CURVE SMOOTH",
"594 440 LINE SMOOTH",
"594 354 OFFCURVE",
"548 310 OFFCURVE"
);
},
{
closed = 1;
nodes = (
"422 1097 LINE",
"422 1488 LINE",
"496 1488 LINE SMOOTH",
"546 1488 OFFCURVE",
"571 1460 OFFCURVE",
"571 1403 CURVE SMOOTH",
"571 1226 LINE SMOOTH",
"571 1155 OFFCURVE",
"559 1097 OFFCURVE",
"494 1097 CURVE SMOOTH"
);
}
);
width = 980;
},
{
anchors = (
{
name = top;
position = "{571, 1760}";
}
);
layerId = "E8DA9D10-2326-4043-BA0A-F99E452091F3";
name = "Regular Italic";
paths = (
{
closed = 1;
nodes = (
"-79 0 LINE",
"398 0 LINE SMOOTH",
"708 0 OFFCURVE",
"820 226 OFFCURVE",
"874 569 CURVE SMOOTH",
"908 781 OFFCURVE",
"890 939 OFFCURVE",
"739 979 CURVE",
"865 1011 OFFCURVE",
"941 1116 OFFCURVE",
"966 1281 CURVE SMOOTH",
"979 1358 LINE SMOOTH",
"1024 1645 OFFCURVE",
"931 1760 OFFCURVE",
"675 1760 CURVE SMOOTH",
"198 1760 LINE"
);
},
{
closed = 1;
nodes = (
"348 310 CURVE SMOOTH",
"341 310 OFFCURVE",
"329 311 OFFCURVE",
"313 312 CURVE",
"394 822 LINE",
"459 822 LINE SMOOTH",
"542 822 OFFCURVE",
"556 760 OFFCURVE",
"541 660 CURVE SMOOTH",
"506 440 LINE SMOOTH",
"492 354 OFFCURVE",
"439 310 OFFCURVE"
);
},
{
closed = 1;
nodes = (
"438 1097 LINE",
"500 1488 LINE",
"574 1488 LINE SMOOTH",
"624 1488 OFFCURVE",
"644 1460 OFFCURVE",
"635 1403 CURVE SMOOTH",
"606 1226 LINE SMOOTH",
"596 1155 OFFCURVE",
"575 1097 OFFCURVE",
"510 1097 CURVE SMOOTH"
);
}
);
width = 980;
}
);
unicode = 0042;
userData = {
com.typemytype.robofont.layerData = {
};
public.markColor = "0.85,0.26,0.06,1";
};
},
{
glyphname = C;
lastChange = "2013-12-30 23:23:56 -0800";
layers = (
{
anchors = (
{
name = bot;
position = "{489, 0}";
},
{
name = top;
position = "{485, 1760}";
}
);
layerId = "6CD1E358-6E98-409F-9A1F-EA9DE4C1A8AA";
name = Regular;
paths = (
{
closed = 1;
nodes = (
"488 -16 CURVE SMOOTH",
"768 -16 OFFCURVE",
"932 116 OFFCURVE",
"932 425 CURVE SMOOTH",
"932 758 LINE",
"578 758 LINE",
"578 441 LINE SMOOTH",
"578 362 OFFCURVE",
"556 308 OFFCURVE",
"496 308 CURVE SMOOTH",
"442 308 OFFCURVE",
"413 344 OFFCURVE",
"413 441 CURVE SMOOTH",
"413 1322 LINE SMOOTH",
"413 1400 OFFCURVE",
"431 1452 OFFCURVE",
"496 1452 CURVE SMOOTH",
"552 1452 OFFCURVE",
"578 1423 OFFCURVE",
"578 1318 CURVE SMOOTH",
"578 1058 LINE",
"928 1058 LINE",
"928 1362 LINE SMOOTH",
"928 1639 OFFCURVE",
"746 1776 OFFCURVE",
"496 1776 CURVE SMOOTH",
"191 1776 OFFCURVE",
"64 1589 OFFCURVE",
"64 1248 CURVE SMOOTH",
"64 436 LINE SMOOTH",
"64 151 OFFCURVE",
"233 -16 OFFCURVE"
);
}
);
width = 971;
},
{
anchors = (
{
name = bot;
position = "{329, 0}";
},
{
name = top;
position = "{602, 1760}";
}
);
layerId = "E8DA9D10-2326-4043-BA0A-F99E452091F3";
name = "Regular Italic";
paths = (
{
closed = 1;
nodes = (
"325 -16 CURVE SMOOTH",
"605 -16 OFFCURVE",
"790 116 OFFCURVE",
"839 425 CURVE SMOOTH",
"891 758 LINE",
"537 758 LINE",
"487 441 LINE SMOOTH",
"475 362 OFFCURVE",
"445 308 OFFCURVE",
"385 308 CURVE SMOOTH",
"331 308 OFFCURVE",
"307 344 OFFCURVE",
"322 441 CURVE SMOOTH",
"461 1322 LINE SMOOTH",
"474 1400 OFFCURVE",
"500 1452 OFFCURVE",
"565 1452 CURVE SMOOTH",
"621 1452 OFFCURVE",
"643 1423 OFFCURVE",
"626 1318 CURVE SMOOTH",
"585 1058 LINE",
"935 1058 LINE",
"983 1362 LINE SMOOTH",
"1026 1639 OFFCURVE",
"866 1776 OFFCURVE",
"616 1776 CURVE SMOOTH",
"311 1776 OFFCURVE",
"154 1589 OFFCURVE",
"101 1248 CURVE SMOOTH",
"-28 436 LINE SMOOTH",
"-73 151 OFFCURVE",
"70 -16 OFFCURVE"
);
}
);
width = 971;
}
);
unicode = 0043;
userData = {
com.typemytype.robofont.layerData = {
};
public.markColor = "0.85,0.26,0.06,1";
};
},
{
glyphname = D;
lastChange = "2013-12-30 23:23:56 -0800";
layers = (
{
anchors = (
{
name = mid;
position = "{271, 923}";
},
{
name = top;
position = "{504, 1760}";
}
);
layerId = "6CD1E358-6E98-409F-9A1F-EA9DE4C1A8AA";
name = Regular;
paths = (
{
closed = 1;
nodes = (
"432 311 LINE",
"432 1452 LINE",
"471 1452 LINE SMOOTH",
"567 1452 OFFCURVE",
"590 1430 OFFCURVE",
"590 1313 CURVE SMOOTH",
"590 405 LINE SMOOTH",
"590 342 OFFCURVE",
"556 311 OFFCURVE",
"493 311 CURVE SMOOTH"
);
},
{
closed = 1;
nodes = (
"78 0 LINE",
"551 0 LINE SMOOTH",
"843 0 OFFCURVE",
"948 189 OFFCURVE",
"946 522 CURVE SMOOTH",
"942 1346 LINE SMOOTH",
"941 1616 OFFCURVE",
"816 1760 OFFCURVE",
"563 1760 CURVE SMOOTH",
"78 1760 LINE"
);
}
);
width = 1010.03;
},
{
anchors = (
{
name = mid;
position = "{259, 923}";
},
{
name = top;
position = "{624, 1760}";
}
);
layerId = "E8DA9D10-2326-4043-BA0A-F99E452091F3";
name = "Regular Italic";
paths = (
{
closed = 1;
nodes = (
"323 311 LINE",
"503 1452 LINE",
"542 1452 LINE SMOOTH",
"638 1452 OFFCURVE",
"657 1430 OFFCURVE",
"639 1313 CURVE SMOOTH",
"497 405 LINE SMOOTH",
"486 342 OFFCURVE",
"447 311 OFFCURVE",
"384 311 CURVE SMOOTH"
);
},
{
closed = 1;
nodes = (
"-79 0 LINE",
"394 0 LINE SMOOTH",
"686 0 OFFCURVE",
"820 189 OFFCURVE",
"871 522 CURVE SMOOTH",
"997 1346 LINE SMOOTH",
"1038 1616 OFFCURVE",
"936 1760 OFFCURVE",
"683 1760 CURVE SMOOTH",
"198 1760 LINE"
);
}
);
width = 1010.03;
}
);
unicode = 0044;
userData = {
com.typemytype.robofont.layerData = {
};
public.markColor = "0.85,0.26,0.06,1";
};
},
{
glyphname = E;
lastChange = "2013-12-31 00:06:58 -0800";
layers = (
{
anchors = (
{
name = ogonek;
position = "{477, 0}";
},
{
name = top;
position = "{444, 1760}";
}
);
layerId = "6CD1E358-6E98-409F-9A1F-EA9DE4C1A8AA";
name = Regular;
paths = (
{
closed = 1;
nodes = (
"78 0 LINE",
"805 0 LINE",
"805 343 LINE",
"436 343 LINE",
"436 746 LINE",
"768 746 LINE",
"768 1077 LINE",
"436 1077 LINE",
"436 1420 LINE",
"782 1420 LINE",
"782 1760 LINE",
"78 1760 LINE"
);
}
);
width = 843;
},
{
anchors = (
{
name = bot;
position = "{251, 0}";
},
{
name = ogonek;
position = "{337, 0}";
}
);
layerId = "E8DA9D10-2326-4043-BA0A-F99E452091F3";
name = "Regular Italic";
paths = (
{
closed = 1;
nodes = (
"-79 0 LINE",
"648 0 LINE",
"702 343 LINE",
"333 343 LINE",
"396 746 LINE",
"728 746 LINE",
"780 1077 LINE",
"448 1077 LINE",
"502 1420 LINE",
"848 1420 LINE",
"902 1760 LINE",
"198 1760 LINE"
);
}
);
width = 843;
}
);
unicode = 0045;
userData = {
com.typemytype.robofont.layerData = {
};
public.markColor = "0.85,0.26,0.06,1";
};
},
{
glyphname = F;
lastChange = "2013-12-30 23:23:56 -0800";
layers = (
{
anchors = (
{
name = top;
position = "{452, 1760}";
}
);
layerId = "6CD1E358-6E98-409F-9A1F-EA9DE4C1A8AA";
name = Regular;
paths = (
{
closed = 1;
nodes = (
"78 0 LINE",
"432 0 LINE",
"432 798 LINE",
"764 798 LINE",
"764 1137 LINE",
"432 1137 LINE",
"432 1417 LINE",
"782 1417 LINE",
"782 1760 LINE",
"78 1760 LINE"
);
}
);
width = 817;
},
{
anchors = (
{
name = top;
position = "{572, 1760}";
}
);
layerId = "E8DA9D10-2326-4043-BA0A-F99E452091F3";
name = "Regular Italic";
paths = (
{
closed = 1;
nodes = (
"-79 0 LINE",
"275 0 LINE",
"400 798 LINE",
"732 798 LINE",
"786 1137 LINE",
"454 1137 LINE",
"498 1417 LINE",
"848 1417 LINE",
"902 1760 LINE",
"198 1760 LINE"
);
}
);
width = 817;
}
);
unicode = 0046;
userData = {
com.typemytype.robofont.layerData = {
};
public.markColor = "0.85,0.26,0.06,1";
};
},
{
glyphname = G;
lastChange = "2013-12-30 23:23:56 -0800";
layers = (
{
anchors = (
{
name = bot;
position = "{504, 0}";
},
{
name = top;
position = "{495, 1760}";
}
);
layerId = "6CD1E358-6E98-409F-9A1F-EA9DE4C1A8AA";
name = Regular;
paths = (
{
closed = 1;
nodes = (
"441 -16 CURVE SMOOTH",
"572 -16 OFFCURVE",
"668 36 OFFCURVE",
"731 148 CURVE",
"791 0 LINE",
"932 0 LINE",
"932 1025 LINE",
"502 1025 LINE",
"502 721 LINE",
"596 721 LINE",
"596 470 LINE SMOOTH",
"596 372 OFFCURVE",
"577 308 OFFCURVE",
"503 308 CURVE SMOOTH",
"431 308 OFFCURVE",
"412 373 OFFCURVE",
"412 468 CURVE SMOOTH",
"412 1321 LINE SMOOTH",
"412 1386 OFFCURVE",
"430 1452 OFFCURVE",
"512 1452 CURVE SMOOTH",
"577 1452 OFFCURVE",
"592 1394 OFFCURVE",
"592 1318 CURVE SMOOTH",
"592 1162 LINE",
"936 1162 LINE",
"936 1555 OFFCURVE",
"851 1776 OFFCURVE",
"496 1776 CURVE SMOOTH",
"208 1776 OFFCURVE",
"64 1608 OFFCURVE",
"64 1283 CURVE SMOOTH",
"64 524 LINE SMOOTH",
"64 161 OFFCURVE",
"187 -16 OFFCURVE"
);
}
);
width = 993;
},
{
anchors = (
{
name = bot;
position = "{344, 0}";
},
{
name = top;
position = "{612, 1760}";
}
);
layerId = "E8DA9D10-2326-4043-BA0A-F99E452091F3";
name = "Regular Italic";
paths = (
{
closed = 1;
nodes = (
"278 -16 CURVE SMOOTH",
"409 -16 OFFCURVE",
"513 36 OFFCURVE",
"594 148 CURVE",
"631 0 LINE",
"772 0 LINE",
"934 1025 LINE",
"504 1025 LINE",
"455 721 LINE",
"549 721 LINE",
"510 470 LINE SMOOTH",
"495 372 OFFCURVE",
"466 308 OFFCURVE",
"392 308 CURVE SMOOTH",
"320 308 OFFCURVE",
"311 373 OFFCURVE",
"325 468 CURVE SMOOTH",
"460 1321 LINE SMOOTH",
"470 1386 OFFCURVE",
"499 1452 OFFCURVE",
"581 1452 CURVE SMOOTH",
"646 1452 OFFCURVE",
"652 1394 OFFCURVE",
"640 1318 CURVE SMOOTH",
"616 1162 LINE",
"960 1162 LINE",
"1021 1555 OFFCURVE",
"971 1776 OFFCURVE",
"616 1776 CURVE SMOOTH",
"328 1776 OFFCURVE",
"157 1608 OFFCURVE",
"106 1283 CURVE SMOOTH",
"-14 524 LINE SMOOTH",
"-70 161 OFFCURVE",
"24 -16 OFFCURVE"
);
}
);
width = 993;
}
);
unicode = 0047;
userData = {
com.typemytype.robofont.layerData = {
};
public.markColor = "0.85,0.26,0.06,1";
};
},
{
glyphname = H;
lastChange = "2013-12-30 23:23:56 -0800";
layers = (
{
anchors = (
{
name = top;
position = "{516, 1760}";
}
);
layerId = "6CD1E358-6E98-409F-9A1F-EA9DE4C1A8AA";
name = Regular;
paths = (
{
closed = 1;
nodes = (
"78 0 LINE",
"428 0 LINE",
"428 798 LINE",
"594 798 LINE",
"594 0 LINE",
"944 0 LINE",
"944 1760 LINE",
"594 1760 LINE",
"594 1131 LINE",
"428 1131 LINE",
"428 1760 LINE",
"78 1760 LINE"
);
}
);
width = 1022;
},
{
anchors = (
{
name = top;
position = "{636, 1760}";
}
);
layerId = "E8DA9D10-2326-4043-BA0A-F99E452091F3";
name = "Regular Italic";
paths = (
{
closed = 1;
nodes = (
"-79 0 LINE",
"271 0 LINE",
"396 798 LINE",
"562 798 LINE",
"437 0 LINE",
"787 0 LINE",
"1064 1760 LINE",
"714 1760 LINE",
"615 1131 LINE",
"449 1131 LINE",
"548 1760 LINE",
"198 1760 LINE"
);
}
);
width = 1022;
}
);
unicode = 0048;
userData = {
com.typemytype.robofont.layerData = {
};
public.markColor = "0.85,0.26,0.06,1";
};
},
{
glyphname = I;
lastChange = "2013-12-30 23:23:56 -0800";
layers = (
{
anchors = (
{
name = ogonek;
position = "{226, 0}";
},
{
name = top;
position = "{245, 1760}";
}
);
layerId = "6CD1E358-6E98-409F-9A1F-EA9DE4C1A8AA";
name = Regular;
paths = (
{
closed = 1;
nodes = (
"62 0 LINE",
"402 0 LINE",
"402 1760 LINE",
"62 1760 LINE"
);
}
);
width = 464;
},
{
anchors = (
{
name = ogonek;
position = "{69, 0}";
},
{
name = top;
position = "{365, 1760}";
}
);
layerId = "E8DA9D10-2326-4043-BA0A-F99E452091F3";
name = "Regular Italic";
paths = (
{
closed = 1;
nodes = (
"-95 0 LINE",
"245 0 LINE",
"522 1760 LINE",
"182 1760 LINE"
);
}
);
width = 464;
}
);
unicode = 0049;
userData = {
com.typemytype.robofont.layerData = {
};
public.markColor = "0.85,0.26,0.06,1";
};
},
{
glyphname = J;
lastChange = "2013-12-30 23:47:28 -0800";
layers = (
{
anchors = (
{
name = top;
position = "{729, 1760}";
}
);
layerId = "6CD1E358-6E98-409F-9A1F-EA9DE4C1A8AA";
name = Regular;
paths = (
{
closed = 1;
nodes = (
"468 -16 CURVE SMOOTH",
"719 -16 OFFCURVE",
"898 160 OFFCURVE",
"898 440 CURVE SMOOTH",
"898 1760 LINE",
"543 1760 LINE",
"543 405 LINE SMOOTH",
"543 344 OFFCURVE",
"517 308 OFFCURVE",
"464 308 CURVE SMOOTH",
"409 308 OFFCURVE",
"386 348 OFFCURVE",
"386 410 CURVE SMOOTH",
"386 830 LINE",
"38 830 LINE",
"38 389 LINE SMOOTH",
"38 124 OFFCURVE",
"229 -16 OFFCURVE"
);
}
);
width = 955;
},
{
anchors = (
{
name = top;
position = "{830, 1760}";
}
);
layerId = "E8DA9D10-2326-4043-BA0A-F99E452091F3";
name = "Regular Italic";
paths = (
{
closed = 1;
nodes = (
"308 -16 CURVE SMOOTH",
"559 -16 OFFCURVE",
"766 160 OFFCURVE",
"810 440 CURVE SMOOTH",
"1018 1760 LINE",
"663 1760 LINE",
"450 405 LINE SMOOTH",
"440 344 OFFCURVE",
"408 308 OFFCURVE",
"355 308 CURVE SMOOTH",
"300 308 OFFCURVE",
"284 348 OFFCURVE",
"293 410 CURVE SMOOTH",
"360 830 LINE",
"12 830 LINE",
"-58 389 LINE SMOOTH",
"-100 124 OFFCURVE",
"69 -16 OFFCURVE"
);
}
);
width = 955;
}
);
unicode = 004A;
userData = {
com.typemytype.robofont.layerData = {
};
public.markColor = "0.85,0.26,0.06,1";
};
},
{
glyphname = K;
lastChange = "2013-12-30 23:23:56 -0800";
layers = (
{
anchors = (
{
name = bot;
position = "{523, 0}";
},
{
name = top;
position = "{511, 1760}";
}
);
layerId = "6CD1E358-6E98-409F-9A1F-EA9DE4C1A8AA";
name = Regular;
paths = (
{
closed = 1;
nodes = (
"78 0 LINE",
"428 0 LINE",
"428 852 LINE",
"620 0 LINE",
"985 0 LINE",
"747 954 LINE",
"944 1760 LINE",
"590 1760 LINE",
"426 1055 LINE",
"426 1760 LINE",
"78 1760 LINE"
);
}
);
width = 967;
},
{
anchors = (
{
name = bot;
position = "{366, 0}";
},
{
name = top;
position = "{631, 1760}";
}
);
layerId = "E8DA9D10-2326-4043-BA0A-F99E452091F3";
name = "Regular Italic";
paths = (
{
closed = 1;
nodes = (
"-79 0 LINE",
"271 0 LINE",
"405 852 LINE",
"463 0 LINE",
"828 0 LINE",
"740 954 LINE",
"1064 1760 LINE",
"710 1760 LINE",
"434 1055 LINE",
"546 1760 LINE",
"198 1760 LINE"
);
}
);
width = 967;
}
);
unicode = 004B;
userData = {
com.typemytype.robofont.layerData = {
};
public.markColor = "0.85,0.26,0.06,1";
};
},
{
glyphname = L;
lastChange = "2013-12-30 23:30:51 -0800";
layers = (
{
anchors = (
{
name = bot;
position = "{433, 0}";
},
{
name = caron.alt;
position = "{193, 1500}";
},
{
name = mid;
position = "{716, 1011}";
},
{
name = top;
position = "{501, 1760}";
}
);
layerId = "6CD1E358-6E98-409F-9A1F-EA9DE4C1A8AA";
name = Regular;
paths = (
{
closed = 1;
nodes = (
"78 0 LINE",
"792 0 LINE",
"792 300 LINE",
"430 300 LINE",
"430 1760 LINE",
"78 1760 LINE"
);
}
);
width = 814;
},
{
anchors = (
{
name = bot;
position = "{276, 0}";
},
{
name = caron.alt;
position = "{343, 1500}";
},
{
name = mid;
position = "{718, 1011}";
},
{
name = top;
position = "{621, 1760}";
}
);
layerId = "E8DA9D10-2326-4043-BA0A-F99E452091F3";
name = "Regular Italic";
paths = (
{
closed = 1;
nodes = (
"-79 0 LINE",
"635 0 LINE",
"682 300 LINE",
"320 300 LINE",
"550 1760 LINE",
"198 1760 LINE"
);
}
);
width = 814;
}
);
unicode = 004C;
userData = {
com.typemytype.robofont.layerData = {
};
public.markColor = "0.85,0.26,0.06,1";
};
},
{
glyphname = M;
lastChange = "2013-12-30 23:23:56 -0800";
layers = (
{
anchors = (
{
name = top;
position = "{768, 1760}";
}
);
layerId = "6CD1E358-6E98-409F-9A1F-EA9DE4C1A8AA";
name = Regular;
paths = (
{
closed = 1;
nodes = (
"78 0 LINE",
"396 0 LINE",
"396 1268 LINE",
"610 0 LINE",
"926 0 LINE",
"1128 1268 LINE",
"1128 0 LINE",
"1450 0 LINE",
"1450 1760 LINE",
"909 1760 LINE",
"762 687 LINE",
"614 1760 LINE",
"78 1760 LINE"
);
}
);
width = 1528;
},
{
anchors = (
{
name = top;
position = "{888, 1760}";
}
);
layerId = "E8DA9D10-2326-4043-BA0A-F99E452091F3";
name = "Regular Italic";
paths = (
{
closed = 1;
nodes = (
"-79 0 LINE",
"239 0 LINE",
"439 1268 LINE",
"453 0 LINE",
"769 0 LINE",
"1171 1268 LINE",
"971 0 LINE",
"1293 0 LINE",
"1570 1760 LINE",
"1029 1760 LINE",
"713 687 LINE",
"734 1760 LINE",
"198 1760 LINE"
);
}
);
width = 1528;
}
);
unicode = 004D;
userData = {
com.typemytype.robofont.layerData = {
};
public.markColor = "0.85,0.26,0.06,1";
};
},
{
glyphname = N;
lastChange = "2013-12-30 23:23:56 -0800";
layers = (
{
anchors = (
{
name = bot;
position = "{503, 0}";
},
{
name = top;
position = "{531, 1760}";
}
);
layerId = "6CD1E358-6E98-409F-9A1F-EA9DE4C1A8AA";
name = Regular;
paths = (
{
closed = 1;
nodes = (
"78 0 LINE",
"422 0 LINE",
"422 880 LINE",
"598 0 LINE",
"942 0 LINE",
"942 1760 LINE",
"602 1760 LINE",
"602 917 LINE",
"440 1760 LINE",
"78 1760 LINE"
);
}
);
width = 1020;
},
{
anchors = (
{
name = bot;
position = "{346, 0}";
},
{
name = top;
position = "{651, 1760}";
}
);
layerId = "E8DA9D10-2326-4043-BA0A-F99E452091F3";
name = "Regular Italic";
paths = (
{
closed = 1;
nodes = (
"-79 0 LINE",
"265 0 LINE",
"403 880 LINE",
"441 0 LINE",
"785 0 LINE",
"1062 1760 LINE",
"722 1760 LINE",
"589 917 LINE",
"560 1760 LINE",
"198 1760 LINE"
);
}
);
width = 1020;
}
);
unicode = 004E;
userData = {
com.typemytype.robofont.layerData = {
};
public.markColor = "0.85,0.26,0.06,1";
};
},
{
glyphname = O;
lastChange = "2013-12-30 23:50:07 -0800";
layers = (
{
anchors = (
{
name = ogonek;
position = "{495, 0}";
},
{
name = top;
position = "{499, 1760}";
}
);
layerId = "6CD1E358-6E98-409F-9A1F-EA9DE4C1A8AA";
name = Regular;
paths = (
{
closed = 1;
nodes = (
"498 308 CURVE SMOOTH",
"426 308 OFFCURVE",
"412 369 OFFCURVE",
"412 461 CURVE SMOOTH",
"412 1319 LINE SMOOTH",
"412 1394 OFFCURVE",
"432 1452 OFFCURVE",
"500 1452 CURVE SMOOTH",
"569 1452 OFFCURVE",
"578 1384 OFFCURVE",
"578 1322 CURVE SMOOTH",
"578 463 LINE SMOOTH",
"578 378 OFFCURVE",
"565 308 OFFCURVE"
);
},
{
closed = 1;
nodes = (
"498 -16 CURVE SMOOTH",
"786 -16 OFFCURVE",
"932 167 OFFCURVE",
"932 480 CURVE SMOOTH",
"932 1316 LINE SMOOTH",
"932 1619 OFFCURVE",
"780 1776 OFFCURVE",
"498 1776 CURVE SMOOTH",
"216 1776 OFFCURVE",
"64 1619 OFFCURVE",
"64 1316 CURVE SMOOTH",
"64 480 LINE SMOOTH",
"64 167 OFFCURVE",
"210 -16 OFFCURVE"
);
}
);
width = 996;
},
{
anchors = (
{
name = ogonek;
position = "{290, 0}";
},
{
name = top;
position = "{616, 1760}";
}
);
layerId = "E8DA9D10-2326-4043-BA0A-F99E452091F3";
name = "Regular Italic";
paths = (
{
closed = 1;
nodes = (
"387 308 CURVE SMOOTH",
"315 308 OFFCURVE",
"310 369 OFFCURVE",
"325 461 CURVE SMOOTH",
"460 1319 LINE SMOOTH",
"472 1394 OFFCURVE",
"501 1452 OFFCURVE",
"569 1452 CURVE SMOOTH",
"638 1452 OFFCURVE",
"636 1384 OFFCURVE",
"626 1322 CURVE SMOOTH",
"491 463 LINE SMOOTH",
"477 378 OFFCURVE",
"454 308 OFFCURVE"
);
},
{
closed = 1;
nodes = (
"335 -16 CURVE SMOOTH",
"623 -16 OFFCURVE",
"798 167 OFFCURVE",
"848 480 CURVE SMOOTH",
"980 1316 LINE SMOOTH",
"1028 1619 OFFCURVE",
"900 1776 OFFCURVE",
"618 1776 CURVE SMOOTH",
"336 1776 OFFCURVE",
"160 1619 OFFCURVE",
"112 1316 CURVE SMOOTH",
"-20 480 LINE SMOOTH",
"-70 167 OFFCURVE",
"47 -16 OFFCURVE"
);
}
);
width = 996;
}
);
unicode = 004F;
userData = {
com.typemytype.robofont.layerData = {
};
public.markColor = "0.85,0.26,0.06,1";
};
},
{
glyphname = P;
lastChange = "2013-12-30 23:23:56 -0800";
layers = (
{
anchors = (
{
name = top;
position = "{483, 1760}";
}
);
layerId = "6CD1E358-6E98-409F-9A1F-EA9DE4C1A8AA";
name = Regular;
paths = (
{
closed = 1;
nodes = (
"78 0 LINE",
"424 0 LINE",
"424 697 LINE",
"567 697 LINE SMOOTH",
"859 697 OFFCURVE",
"934 903 OFFCURVE",
"934 1224 CURVE SMOOTH",
"934 1556 OFFCURVE",
"835 1760 OFFCURVE",
"543 1760 CURVE SMOOTH",
"78 1760 LINE"
);
},
{
closed = 1;
nodes = (
"424 1013 LINE",
"424 1439 LINE",
"463 1439 LINE SMOOTH",
"569 1439 OFFCURVE",
"586 1363 OFFCURVE",
"586 1230 CURVE SMOOTH",
"586 1087 OFFCURVE",
"574 1013 OFFCURVE",
"444 1013 CURVE SMOOTH"
);
}
);
width = 967;
},
{
anchors = (
{
name = top;
position = "{603, 1760}";
}
);
layerId = "E8DA9D10-2326-4043-BA0A-F99E452091F3";
name = "Regular Italic";
paths = (
{
closed = 1;
nodes = (
"-79 0 LINE",
"267 0 LINE",
"376 697 LINE",
"519 697 LINE SMOOTH",
"811 697 OFFCURVE",
"919 903 OFFCURVE",
"969 1224 CURVE SMOOTH",
"1022 1556 OFFCURVE",
"955 1760 OFFCURVE",
"663 1760 CURVE SMOOTH",
"198 1760 LINE"
);
},
{
closed = 1;
nodes = (
"426 1013 LINE",
"494 1439 LINE",
"533 1439 LINE SMOOTH",
"639 1439 OFFCURVE",
"643 1363 OFFCURVE",
"622 1230 CURVE SMOOTH",
"599 1087 OFFCURVE",
"576 1013 OFFCURVE",
"446 1013 CURVE SMOOTH"
);
}
);
width = 967;
}
);
unicode = 0050;
userData = {
com.typemytype.robofont.layerData = {
};
public.markColor = "0.85,0.26,0.06,1";
};
},
{
glyphname = Q;
lastChange = "2013-12-30 23:23:56 -0800";
layers = (
{
layerId = "6CD1E358-6E98-409F-9A1F-EA9DE4C1A8AA";
name = Regular;
paths = (
{
closed = 1;
nodes = (
"856 -187 LINE",
"975 23 LINE",
"824 119 LINE",
"889 202 OFFCURVE",
"922 318 OFFCURVE",
"922 462 CURVE SMOOTH",
"922 1313 LINE SMOOTH",
"922 1616 OFFCURVE",
"769 1776 OFFCURVE",
"488 1776 CURVE SMOOTH",
"207 1776 OFFCURVE",
"54 1616 OFFCURVE",
"54 1313 CURVE SMOOTH",
"54 462 LINE SMOOTH",
"54 150 OFFCURVE",
"202 -16 OFFCURVE",
"488 -16 CURVE SMOOTH",
"501 -16 OFFCURVE",
"531 -10 OFFCURVE",
"576 -3 CURVE"
);
},
{
closed = 1;
nodes = (
"488 308 CURVE SMOOTH",
"406 308 OFFCURVE",
"402 407 OFFCURVE",
"402 477 CURVE SMOOTH",
"402 1308 LINE SMOOTH",
"402 1384 OFFCURVE",
"417 1452 OFFCURVE",
"486 1452 CURVE SMOOTH",
"554 1452 OFFCURVE",
"568 1382 OFFCURVE",
"568 1307 CURVE SMOOTH",
"568 484 LINE SMOOTH",
"568 407 OFFCURVE",
"563 308 OFFCURVE"
);
}
);
width = 1011;
},
{
layerId = "E8DA9D10-2326-4043-BA0A-F99E452091F3";
name = "Regular Italic";
paths = (
{
closed = 1;
nodes = (
"666 -187 LINE",
"819 23 LINE",
"683 119 LINE",
"761 202 OFFCURVE",
"812 318 OFFCURVE",
"835 462 CURVE SMOOTH",
"969 1313 LINE SMOOTH",
"1016 1616 OFFCURVE",
"889 1776 OFFCURVE",
"608 1776 CURVE SMOOTH",
"327 1776 OFFCURVE",
"148 1616 OFFCURVE",
"101 1313 CURVE SMOOTH",
"-33 462 LINE SMOOTH",
"-83 150 OFFCURVE",
"39 -16 OFFCURVE",
"325 -16 CURVE SMOOTH",
"338 -16 OFFCURVE",
"370 -10 OFFCURVE",
"416 -3 CURVE"
);
},
{
closed = 1;
nodes = (
"377 308 CURVE SMOOTH",
"295 308 OFFCURVE",
"306 407 OFFCURVE",
"318 477 CURVE SMOOTH",
"449 1308 LINE SMOOTH",
"460 1384 OFFCURVE",
"486 1452 OFFCURVE",
"555 1452 CURVE SMOOTH",
"623 1452 OFFCURVE",
"626 1382 OFFCURVE",
"614 1307 CURVE SMOOTH",
"484 484 LINE SMOOTH",
"472 407 OFFCURVE",
"452 308 OFFCURVE"
);
}
);
width = 1011;
}
);
unicode = 0051;
userData = {
com.typemytype.robofont.layerData = {
};
public.markColor = "0.85,0.26,0.06,1";
};
},
{
glyphname = R;
lastChange = "2013-12-30 23:23:56 -0800";
layers = (
{
anchors = (
{
name = bot;
position = "{515, 0}";
},
{
name = top;
position = "{479, 1760}";
}
);
layerId = "6CD1E358-6E98-409F-9A1F-EA9DE4C1A8AA";
name = Regular;
paths = (
{
closed = 1;
nodes = (
"78 0 LINE",
"434 0 LINE",
"434 803 LINE",
"527 803 OFFCURVE",
"567 792 OFFCURVE",
"567 689 CURVE SMOOTH",
"567 0 LINE",
"911 0 LINE",
"915 666 LINE SMOOTH",
"915 805 OFFCURVE",
"874 895 OFFCURVE",
"764 918 CURVE",
"898 962 OFFCURVE",
"938 1075 OFFCURVE",
"938 1267 CURVE SMOOTH",
"938 1564 OFFCURVE",
"888 1760 OFFCURVE",
"618 1760 CURVE SMOOTH",
"78 1760 LINE"
);
},
{
closed = 1;
nodes = (
"436 1108 LINE",
"436 1434 LINE",
"518 1434 LINE SMOOTH",
"577 1434 OFFCURVE",
"594 1404 OFFCURVE",
"594 1267 CURVE SMOOTH",
"594 1160 OFFCURVE",
"568 1108 OFFCURVE",
"521 1108 CURVE SMOOTH"
);
}
);
width = 976;
},
{
anchors = (
{
name = bot;
position = "{358, 0}";
},
{
name = top;
position = "{599, 1760}";
}
);
layerId = "E8DA9D10-2326-4043-BA0A-F99E452091F3";
name = "Regular Italic";
paths = (
{
closed = 1;
nodes = (
"-79 0 LINE",
"277 0 LINE",
"403 803 LINE",
"496 803 OFFCURVE",
"534 792 OFFCURVE",
"518 689 CURVE SMOOTH",
"410 0 LINE",
"754 0 LINE",
"863 666 LINE SMOOTH",
"885 805 OFFCURVE",
"858 895 OFFCURVE",
"752 918 CURVE",
"892 962 OFFCURVE",
"950 1075 OFFCURVE",
"980 1267 CURVE SMOOTH",
"1027 1564 OFFCURVE",
"1008 1760 OFFCURVE",
"738 1760 CURVE SMOOTH",
"198 1760 LINE"
);
},
{
closed = 1;
nodes = (
"453 1108 LINE",
"505 1434 LINE",
"587 1434 LINE SMOOTH",
"646 1434 OFFCURVE",
"658 1404 OFFCURVE",
"636 1267 CURVE SMOOTH",
"619 1160 OFFCURVE",
"585 1108 OFFCURVE",
"538 1108 CURVE SMOOTH"
);
}
);
width = 976;
}
);
unicode = 0052;
userData = {
com.typemytype.robofont.layerData = {
};
public.markColor = "0.85,0.26,0.06,1";
};
},
{
glyphname = S;
lastChange = "2013-12-30 23:23:56 -0800";
layers = (
{
anchors = (
{
name = bot;
position = "{476, 0}";
},
{
name = top;
position = "{481, 1760}";
}
);
layerId = "6CD1E358-6E98-409F-9A1F-EA9DE4C1A8AA";
name = Regular;
paths = (
{
closed = 1;
nodes = (
"496 -16 CURVE SMOOTH",
"798 -16 OFFCURVE",
"906 182 OFFCURVE",
"906 513 CURVE SMOOTH",
"906 758 OFFCURVE",
"802 877 OFFCURVE",
"681 994 CURVE SMOOTH",
"478 1189 LINE SMOOTH",
"399 1264 OFFCURVE",
"379 1319 OFFCURVE",
"379 1368 CURVE SMOOTH",
"379 1417 OFFCURVE",
"404 1452 OFFCURVE",
"460 1452 CURVE SMOOTH",
"506 1452 OFFCURVE",
"534 1424 OFFCURVE",
"535 1376 CURVE SMOOTH",
"537 1255 LINE",
"894 1255 LINE",
"894 1605 OFFCURVE",
"772 1776 OFFCURVE",
"449 1776 CURVE SMOOTH",
"185 1776 OFFCURVE",
"42 1615 OFFCURVE",
"42 1315 CURVE SMOOTH",
"42 1172 OFFCURVE",
"102 1049 OFFCURVE",
"219 933 CURVE SMOOTH",
"371 783 LINE SMOOTH",
"492 663 OFFCURVE",
"558 610 OFFCURVE",
"558 428 CURVE SMOOTH",
"558 342 OFFCURVE",
"537 308 OFFCURVE",
"473 308 CURVE SMOOTH",
"411 308 OFFCURVE",
"390 356 OFFCURVE",
"390 438 CURVE SMOOTH",
"390 658 LINE",
"42 658 LINE",
"42 486 LINE SMOOTH",
"42 136 OFFCURVE",
"174 -16 OFFCURVE"
);
}
);
width = 945;
},
{
anchors = (
{
name = bot;
position = "{306, 0}";
},
{
name = top;
position = "{598, 1760}";
}
);
layerId = "E8DA9D10-2326-4043-BA0A-F99E452091F3";
name = "Regular Italic";
paths = (
{
closed = 1;
nodes = (
"333 -16 CURVE SMOOTH",
"635 -16 OFFCURVE",
"774 182 OFFCURVE",
"827 513 CURVE SMOOTH",
"865 758 OFFCURVE",
"781 877 OFFCURVE",
"678 994 CURVE SMOOTH",
"506 1189 LINE SMOOTH",
"438 1264 OFFCURVE",
"427 1319 OFFCURVE",
"435 1368 CURVE SMOOTH",
"442 1417 OFFCURVE",
"473 1452 OFFCURVE",
"529 1452 CURVE SMOOTH",
"575 1452 OFFCURVE",
"599 1424 OFFCURVE",
"592 1376 CURVE SMOOTH",
"575 1255 LINE",
"932 1255 LINE",
"987 1605 OFFCURVE",
"892 1776 OFFCURVE",
"569 1776 CURVE SMOOTH",
"305 1776 OFFCURVE",
"136 1615 OFFCURVE",
"89 1315 CURVE SMOOTH",
"67 1172 OFFCURVE",
"108 1049 OFFCURVE",
"206 933 CURVE SMOOTH",
"334 783 LINE SMOOTH",
"436 663 OFFCURVE",
"494 610 OFFCURVE",
"465 428 CURVE SMOOTH",
"452 342 OFFCURVE",
"426 308 OFFCURVE",
"362 308 CURVE SMOOTH",
"300 308 OFFCURVE",
"286 356 OFFCURVE",
"299 438 CURVE SMOOTH",
"334 658 LINE",
"-14 658 LINE",
"-41 486 LINE SMOOTH",
"-96 136 OFFCURVE",
"11 -16 OFFCURVE"
);
}
);
width = 945;
}
);
unicode = 0053;
userData = {
com.typemytype.robofont.layerData = {
};
public.markColor = "0.85,0.26,0.06,1";
};
},
{
glyphname = T;
lastChange = "2013-12-30 23:23:56 -0800";
layers = (
{
anchors = (
{
name = bot;
position = "{432, 0}";
},
{
name = mid;
position = "{420, 883}";
},
{
name = top;
position = "{420, 1760}";
}
);
layerId = "6CD1E358-6E98-409F-9A1F-EA9DE4C1A8AA";
name = Regular;
paths = (
{
closed = 1;
nodes = (
"236 0 LINE",
"588 0 LINE",
"588 1422 LINE",
"790 1422 LINE",
"790 1760 LINE",
"20 1760 LINE",
"20 1422 LINE",
"236 1422 LINE"
);
}
);
width = 811;
},
{
anchors = (
{
name = bot;
position = "{275, 0}";
},
{
name = mid;
position = "{401, 883}";
},
{
name = top;
position = "{540, 1760}";
}
);
layerId = "E8DA9D10-2326-4043-BA0A-F99E452091F3";
name = "Regular Italic";
paths = (
{
closed = 1;
nodes = (
"79 0 LINE",
"431 0 LINE",
"654 1422 LINE",
"856 1422 LINE",
"910 1760 LINE",
"140 1760 LINE",
"86 1422 LINE",
"302 1422 LINE"
);
}
);
width = 811;
}
);
unicode = 0054;
userData = {
com.typemytype.robofont.layerData = {
};
public.markColor = "0.85,0.26,0.06,1";
};
},
{
glyphname = U;
lastChange = "2013-12-30 23:23:56 -0800";
layers = (
{
anchors = (
{
name = ogonek;
position = "{507, 0}";
},
{
name = top;
position = "{491, 1760}";
}
);
layerId = "6CD1E358-6E98-409F-9A1F-EA9DE4C1A8AA";
name = Regular;
paths = (
{
closed = 1;
nodes = (
"485 -16 CURVE SMOOTH",
"778 -16 OFFCURVE",
"913 151 OFFCURVE",
"913 471 CURVE SMOOTH",
"913 1760 LINE",
"571 1760 LINE",
"571 485 LINE SMOOTH",
"571 396 OFFCURVE",
"566 308 OFFCURVE",
"485 308 CURVE SMOOTH",
"405 308 OFFCURVE",
"399 397 OFFCURVE",
"399 485 CURVE SMOOTH",
"399 1760 LINE",
"57 1760 LINE",
"57 471 LINE SMOOTH",
"57 151 OFFCURVE",
"192 -16 OFFCURVE"
);
}
);
width = 970;
},
{
anchors = (
{
name = ogonek;
position = "{350, 0}";
},
{
name = top;
position = "{611, 1760}";
}
);
layerId = "E8DA9D10-2326-4043-BA0A-F99E452091F3";
name = "Regular Italic";
paths = (
{
closed = 1;
nodes = (
"325 -16 CURVE SMOOTH",
"618 -16 OFFCURVE",
"779 151 OFFCURVE",
"830 471 CURVE SMOOTH",
"1033 1760 LINE",
"691 1760 LINE",
"489 485 LINE SMOOTH",
"476 396 OFFCURVE",
"457 308 OFFCURVE",
"376 308 CURVE SMOOTH",
"296 308 OFFCURVE",
"304 397 OFFCURVE",
"317 485 CURVE SMOOTH",
"519 1760 LINE",
"177 1760 LINE",
"-26 471 LINE SMOOTH",
"-77 151 OFFCURVE",
"32 -16 OFFCURVE"
);
}
);
width = 970;
}
);
unicode = 0055;
userData = {
com.typemytype.robofont.layerData = {
};
public.markColor = "0.85,0.26,0.06,1";
};
},
{
glyphname = V;
lastChange = "2013-12-30 23:23:56 -0800";
layers = (
{
layerId = "6CD1E358-6E98-409F-9A1F-EA9DE4C1A8AA";
name = Regular;
paths = (
{
closed = 1;
nodes = (
"240 0 LINE",
"720 0 LINE",
"937 1761 LINE",
"602 1761 LINE",
"487 563 LINE",
"358 1761 LINE",
"23 1761 LINE"
);
}
);
width = 961;
},
{
layerId = "E8DA9D10-2326-4043-BA0A-F99E452091F3";
name = "Regular Italic";
paths = (
{
closed = 1;
nodes = (
"83 0 LINE",
"563 0 LINE",
"1057 1761 LINE",
"722 1761 LINE",
"418 563 LINE",
"478 1761 LINE",
"143 1761 LINE"
);
}
);
width = 961;
}
);
unicode = 0056;
userData = {
com.typemytype.robofont.layerData = {
};
public.markColor = "0.85,0.26,0.06,1";
};
},
{
glyphname = W;
lastChange = "2013-12-30 23:23:56 -0800";
layers = (
{
anchors = (
{
name = top;
position = "{743, 1760}";
}
);
layerId = "6CD1E358-6E98-409F-9A1F-EA9DE4C1A8AA";
name = Regular;
paths = (
{
closed = 1;
nodes = (
"216 0 LINE",
"645 0 LINE",
"729 847 LINE",
"817 0 LINE",
"1239 0 LINE",
"1431 1760 LINE",
"1083 1760 LINE",
"989 649 LINE",
"895 1760 LINE",
"567 1760 LINE",
"468 649 LINE",
"371 1760 LINE",
"27 1760 LINE"
);
}
);
width = 1458;
},
{
anchors = (
{
name = top;
position = "{863, 1760}";
}
);
layerId = "E8DA9D10-2326-4043-BA0A-F99E452091F3";
name = "Regular Italic";
paths = (
{
closed = 1;
nodes = (
"59 0 LINE",
"488 0 LINE",
"705 847 LINE",
"660 0 LINE",
"1082 0 LINE",
"1551 1760 LINE",
"1203 1760 LINE",
"934 649 LINE",
"1015 1760 LINE",
"687 1760 LINE",
"413 649 LINE",
"491 1760 LINE",
"147 1760 LINE"
);
}
);
width = 1458;
}
);
unicode = 0057;
userData = {
com.typemytype.robofont.layerData = {
};
public.markColor = "0.85,0.26,0.06,1";
};
},
{
glyphname = X;
lastChange = "2013-12-30 23:23:56 -0800";
layers = (
{
layerId = "6CD1E358-6E98-409F-9A1F-EA9DE4C1A8AA";
name = Regular;
paths = (
{
closed = 1;
nodes = (
"27 0 LINE",
"384 0 LINE",
"498 688 LINE",
"609 0 LINE",
"965 0 LINE",
"777 933 LINE",
"927 1761 LINE",
"582 1761 LINE",
"501 1156 LINE",
"410 1761 LINE",
"66 1761 LINE",
"216 933 LINE"
);
}
);
width = 991;
},
{
layerId = "E8DA9D10-2326-4043-BA0A-F99E452091F3";
name = "Regular Italic";
paths = (
{
closed = 1;
nodes = (
"-130 0 LINE",
"227 0 LINE",
"449 688 LINE",
"452 0 LINE",
"808 0 LINE",
"766 933 LINE",
"1047 1761 LINE",
"702 1761 LINE",
"526 1156 LINE",
"530 1761 LINE",
"186 1761 LINE",
"205 933 LINE"
);
}
);
width = 991;
}
);
unicode = 0058;
userData = {
com.typemytype.robofont.layerData = {
};
public.markColor = "0.85,0.26,0.06,1";
};
},
{
glyphname = Y;
lastChange = "2013-12-30 23:23:56 -0800";
layers = (
{
anchors = (
{
name = top;
position = "{456, 1760}";
}
);
layerId = "6CD1E358-6E98-409F-9A1F-EA9DE4C1A8AA";
name = Regular;
paths = (
{
closed = 1;
nodes = (
"291 0 LINE",
"623 0 LINE",
"623 579 LINE",
"903 1760 LINE",
"555 1760 LINE",
"457 1164 LINE",
"359 1760 LINE",
"10 1760 LINE",
"291 579 LINE"
);
}
);
width = 914;
},
{
anchors = (
{
name = top;
position = "{576, 1760}";
}
);
layerId = "E8DA9D10-2326-4043-BA0A-F99E452091F3";
name = "Regular Italic";
paths = (
{
closed = 1;
nodes = (
"134 0 LINE",
"466 0 LINE",
"557 579 LINE",
"1023 1760 LINE",
"675 1760 LINE",
"483 1164 LINE",
"479 1760 LINE",
"130 1760 LINE",
"225 579 LINE"
);
}
);
width = 914;
}
);
unicode = 0059;
userData = {
com.typemytype.robofont.layerData = {
};
public.markColor = "0.85,0.26,0.06,1";
};
},
{
glyphname = Z;
lastChange = "2013-12-30 23:23:56 -0800";
layers = (
{
anchors = (
{
name = top;
position = "{478, 1760}";
}
);
layerId = "6CD1E358-6E98-409F-9A1F-EA9DE4C1A8AA";
name = Regular;
paths = (
{
closed = 1;
nodes = (
"32 0 LINE",
"789 0 LINE",
"789 324 LINE",
"396 324 LINE",
"806 1452 LINE",
"806 1760 LINE",
"71 1760 LINE",
"71 1436 LINE",
"435 1436 LINE",
"32 320 LINE"
);
}
);
width = 840;
},
{
anchors = (
{
name = top;
position = "{598, 1760}";
}
);
layerId = "E8DA9D10-2326-4043-BA0A-F99E452091F3";
name = "Regular Italic";
paths = (
{
closed = 1;
nodes = (
"-125 0 LINE",
"632 0 LINE",
"683 324 LINE",
"290 324 LINE",
"877 1452 LINE",
"926 1760 LINE",
"191 1760 LINE",
"140 1436 LINE",
"504 1436 LINE",
"-75 320 LINE"
);
}
);
width = 840;
}
);
unicode = 005A;
userData = {
com.typemytype.robofont.layerData = {
};
public.markColor = "0.85,0.26,0.06,1";
};
},
{
glyphname = AE;
lastChange = "2013-12-30 23:23:56 -0800";
layers = (
{
anchors = (
{
name = top;
position = "{796, 1760}";
}
);
layerId = "6CD1E358-6E98-409F-9A1F-EA9DE4C1A8AA";
name = Regular;
paths = (
{
closed = 1;
nodes = (
"-44 0 LINE",
"337 0 LINE",
"416 479 LINE",
"622 479 LINE",
"623 0 LINE",
"1272 0 LINE",
"1272 311 LINE",
"963 311 LINE",
"963 750 LINE",
"1235 750 LINE",
"1235 1049 LINE",
"963 1049 LINE",
"963 1451 LINE",
"1249 1451 LINE",
"1249 1760 LINE",
"277 1760 LINE"
);
},
{
closed = 1;
nodes = (
"462 769 LINE",
"561 1461 LINE",
"618 1461 LINE",
"618 769 LINE"
);
}
);
width = 1311;
},
{
anchors = (
{
name = top;
position = "{916, 1760}";
}
);
layerId = "E8DA9D10-2326-4043-BA0A-F99E452091F3";
name = "Regular Italic";
paths = (
{
closed = 1;
nodes = (
"-201 0 LINE",
"180 0 LINE",
"334 479 LINE",
"540 479 LINE",
"466 0 LINE",
"1115 0 LINE",
"1163 311 LINE",
"854 311 LINE",
"924 750 LINE",
"1196 750 LINE",
"1243 1049 LINE",
"971 1049 LINE",
"1034 1451 LINE",
"1320 1451 LINE",
"1369 1760 LINE",
"397 1760 LINE"
);
},
{
closed = 1;
nodes = (
"425 769 LINE",
"634 1461 LINE",
"691 1461 LINE",
"581 769 LINE"
);
}
);
width = 1311;
}
);
unicode = 00C6;
userData = {
com.typemytype.robofont.layerData = {
};
public.markColor = "0.85,0.26,0.06,1";
};
},
{
glyphname = Oslash;
lastChange = "2013-12-30 23:23:56 -0800";
layers = (
{
components = (
{
name = O;
transform = "{1, 0, 0, 1, -4, 0}";
}
);
layerId = "6CD1E358-6E98-409F-9A1F-EA9DE4C1A8AA";
name = Regular;
paths = (
{
closed = 1;
nodes = (
"240 -172 LINE",
"354 230 LINE",
"255 316 LINE",
"128 -132 LINE"
);
},
{
closed = 1;
nodes = (
"715 1500 LINE",
"849 1971 LINE",
"732 2004 LINE",
"604 1550 LINE"
);
}
);
width = 988;
},
{
components = (
{
name = O;
transform = "{1, 0, 0, 1, -4, 0}";
}
);
layerId = "E8DA9D10-2326-4043-BA0A-F99E452091F3";
name = "Regular Italic";
paths = (
{
closed = 1;
nodes = (
"17 -172 LINE",
"194 230 LINE",
"109 316 LINE",
"-89 -132 LINE"
);
},
{
closed = 1;
nodes = (
"755 1500 LINE",
"964 1971 LINE",
"852 2004 LINE",
"652 1550 LINE"
);
}
);
width = 988;
}
);
unicode = 00D8;
userData = {
com.typemytype.robofont.layerData = {
};
public.markColor = "0.85,0.26,0.06,1";
};
},
{
glyphname = Thorn;
lastChange = "2013-12-30 23:23:56 -0800";
layers = (
{
layerId = "6CD1E358-6E98-409F-9A1F-EA9DE4C1A8AA";
name = Regular;
paths = (
{
closed = 1;
nodes = (
"62 0 LINE",
"408 0 LINE",
"408 434 LINE",
"551 434 LINE SMOOTH",
"856 434 OFFCURVE",
"918 666 OFFCURVE",
"918 973 CURVE SMOOTH",
"918 1291 OFFCURVE",
"835 1516 OFFCURVE",
"527 1516 CURVE SMOOTH",
"407 1516 LINE",
"407 1760 LINE",
"62 1760 LINE"
);
},
{
closed = 1;
nodes = (
"408 721 LINE",
"408 1226 LINE",
"447 1226 LINE SMOOTH",
"562 1226 OFFCURVE",
"570 1121 OFFCURVE",
"570 979 CURVE SMOOTH",
"570 833 OFFCURVE",
"572 721 OFFCURVE",
"428 721 CURVE SMOOTH"
);
}
);
width = 947;
},
{
layerId = "E8DA9D10-2326-4043-BA0A-F99E452091F3";
name = "Regular Italic";
paths = (
{
closed = 1;
nodes = (
"-95 0 LINE",
"251 0 LINE",
"319 434 LINE",
"462 434 LINE SMOOTH",
"767 434 OFFCURVE",
"866 666 OFFCURVE",
"914 973 CURVE SMOOTH",
"964 1291 OFFCURVE",
"916 1516 OFFCURVE",
"608 1516 CURVE SMOOTH",
"488 1516 LINE",
"527 1760 LINE",
"182 1760 LINE"
);
},
{
closed = 1;
nodes = (
"364 721 LINE",
"443 1226 LINE",
"482 1226 LINE SMOOTH",
"597 1226 OFFCURVE",
"590 1121 OFFCURVE",
"567 979 CURVE SMOOTH",
"544 833 OFFCURVE",
"528 721 OFFCURVE",
"384 721 CURVE SMOOTH"
);
}
);
width = 947;
}
);
unicode = 00DE;
userData = {
com.typemytype.robofont.layerData = {
};
public.markColor = "0.85,0.26,0.06,1";
};
},
{
glyphname = Lslash;
lastChange = "2013-12-30 23:23:56 -0800";
layers = (
{
components = (
{
name = L;
transform = "{1, 0, 0, 1, 0, 0}";
}
);
layerId = "6CD1E358-6E98-409F-9A1F-EA9DE4C1A8AA";
name = Regular;
paths = (
{
closed = 1;
nodes = (
"-11 669 LINE",
"636 951 LINE",
"636 1293 LINE",
"-11 1011 LINE"
);
}
);
width = 853;
},
{
components = (
{
name = L;
transform = "{1, 0, 0, 1, 0, 0}";
}
);
layerId = "E8DA9D10-2326-4043-BA0A-F99E452091F3";
name = "Regular Italic";
paths = (
{
closed = 1;
nodes = (
"-63 669 LINE",
"629 951 LINE",
"683 1293 LINE",
"-9 1011 LINE"
);
}
);
width = 853;
}
);
unicode = 0141;
userData = {
com.typemytype.robofont.layerData = {
};
public.markColor = "0.85,0.26,0.06,1";
};
},
{
glyphname = OE;
lastChange = "2013-12-30 23:23:56 -0800";
layers = (
{
layerId = "6CD1E358-6E98-409F-9A1F-EA9DE4C1A8AA";
name = Regular;
paths = (
{
closed = 1;
nodes = (
"606 0 CURVE SMOOTH",
"1291 0 LINE",
"1291 311 LINE",
"931 311 LINE",
"931 784 LINE",
"1254 784 LINE",
"1254 1083 LINE",
"931 1083 LINE",
"931 1451 LINE",
"1268 1451 LINE",
"1268 1760 LINE",
"598 1760 LINE SMOOTH",
"273 1760 OFFCURVE",
"50 1665 OFFCURVE",
"50 1356 CURVE SMOOTH",
"50 430 LINE SMOOTH",
"50 143 OFFCURVE",
"235 0 OFFCURVE"
);
},
{
closed = 1;
nodes = (
"513 311 LINE SMOOTH",
"431 311 OFFCURVE",
"398 387 OFFCURVE",
"398 480 CURVE SMOOTH",
"398 1314 LINE SMOOTH",
"398 1399 OFFCURVE",
"440 1451 OFFCURVE",
"519 1451 CURVE SMOOTH",
"574 1451 LINE",
"574 311 LINE"
);
}
);
width = 1330;
},
{
layerId = "E8DA9D10-2326-4043-BA0A-F99E452091F3";
name = "Regular Italic";
paths = (
{
closed = 1;
nodes = (
"449 0 CURVE SMOOTH",
"1134 0 LINE",
"1182 311 LINE",
"822 311 LINE",
"897 784 LINE",
"1220 784 LINE",
"1267 1083 LINE",
"944 1083 LINE",
"1002 1451 LINE",
"1339 1451 LINE",
"1388 1760 LINE",
"718 1760 LINE SMOOTH",
"393 1760 OFFCURVE",
"155 1665 OFFCURVE",
"106 1356 CURVE SMOOTH",
"-39 430 LINE SMOOTH",
"-85 143 OFFCURVE",
"78 0 OFFCURVE"
);
},
{
closed = 1;
nodes = (
"404 311 LINE SMOOTH",
"322 311 OFFCURVE",
"301 387 OFFCURVE",
"316 480 CURVE SMOOTH",
"447 1314 LINE SMOOTH",
"461 1399 OFFCURVE",
"511 1451 OFFCURVE",
"590 1451 CURVE SMOOTH",
"645 1451 LINE",
"465 311 LINE"
);
}
);
width = 1330;
}
);
unicode = 0152;
userData = {
com.typemytype.robofont.layerData = {
};
public.markColor = "0.85,0.26,0.06,1";
};
},
{
glyphname = Omega;
lastChange = "2013-12-30 23:23:56 -0800";
layers = (
{
layerId = "6CD1E358-6E98-409F-9A1F-EA9DE4C1A8AA";
name = Regular;
paths = (
{
closed = 1;
nodes = (
"47 0 LINE",
"463 0 LINE",
"463 247 LINE",
"399 282 OFFCURVE",
"411 441 OFFCURVE",
"411 581 CURVE SMOOTH",
"411 1211 LINE SMOOTH",
"411 1281 OFFCURVE",
"427 1335 OFFCURVE",
"496 1335 CURVE SMOOTH",
"565 1335 OFFCURVE",
"581 1281 OFFCURVE",
"581 1211 CURVE SMOOTH",
"581 581 LINE SMOOTH",
"581 431 OFFCURVE",
"604 285 OFFCURVE",
"529 247 CURVE",
"529 0 LINE",
"945 0 LINE",
"945 246 LINE",
"823 246 LINE",
"888 345 OFFCURVE",
"920 499 OFFCURVE",
"920 710 CURVE SMOOTH",
"920 1189 LINE SMOOTH",
"920 1462 OFFCURVE",
"774 1607 OFFCURVE",
"496 1607 CURVE SMOOTH",
"218 1607 OFFCURVE",
"72 1462 OFFCURVE",
"72 1189 CURVE SMOOTH",
"72 710 LINE SMOOTH",
"72 499 OFFCURVE",
"104 345 OFFCURVE",
"169 246 CURVE",
"47 246 LINE"
);
}
);
width = 992;
},
{
layerId = "E8DA9D10-2326-4043-BA0A-F99E452091F3";
name = "Regular Italic";
paths = (
{
closed = 1;
nodes = (
"-86 0 LINE",
"330 0 LINE",
"369 247 LINE",
"310 282 OFFCURVE",
"347 441 OFFCURVE",
"369 581 CURVE SMOOTH",
"468 1211 LINE SMOOTH",
"480 1281 OFFCURVE",
"505 1335 OFFCURVE",
"574 1335 CURVE SMOOTH",
"643 1335 OFFCURVE",
"650 1281 OFFCURVE",
"638 1211 CURVE SMOOTH",
"539 581 LINE SMOOTH",
"516 431 OFFCURVE",
"516 285 OFFCURVE",
"435 247 CURVE",
"396 0 LINE",
"812 0 LINE",
"850 246 LINE",
"728 246 LINE",
"809 345 OFFCURVE",
"865 499 OFFCURVE",
"899 710 CURVE SMOOTH",
"974 1189 LINE SMOOTH",
"1017 1462 OFFCURVE",
"894 1607 OFFCURVE",
"616 1607 CURVE SMOOTH",
"338 1607 OFFCURVE",
"169 1462 OFFCURVE",
"126 1189 CURVE SMOOTH",
"51 710 LINE SMOOTH",
"17 499 OFFCURVE",
"25 345 OFFCURVE",
"74 246 CURVE",
"-48 246 LINE"
);
}
);
width = 992;
}
);
unicode = 03A9;
userData = {
com.typemytype.robofont.layerData = {
};
};
},
{
glyphname = a;
lastChange = "2013-12-30 23:23:56 -0800";
layers = (
{
anchors = (
{
name = ogonek;
position = "{755, 0}";
},
{
name = top;
position = "{503, 1500}";
}
);
layerId = "6CD1E358-6E98-409F-9A1F-EA9DE4C1A8AA";
name = Regular;
paths = (
{
closed = 1;
nodes = (
"345 -16 CURVE SMOOTH",
"448 -16 OFFCURVE",
"533 53 OFFCURVE",
"568 178 CURVE",
"568 0 LINE",
"924 0 LINE",
"924 1143 LINE SMOOTH",
"924 1387 OFFCURVE",
"743 1516 OFFCURVE",
"503 1516 CURVE SMOOTH",
"197 1516 OFFCURVE",
"63 1403 OFFCURVE",
"63 1105 CURVE SMOOTH",
"63 1084 OFFCURVE",
"63 1067 OFFCURVE",
"64 1056 CURVE",
"412 1056 LINE",
"412 1146 LINE SMOOTH",
"412 1201 OFFCURVE",
"433 1243 OFFCURVE",
"498 1239 CURVE SMOOTH",
"543 1236 OFFCURVE",
"563 1213 OFFCURVE",
"563 1123 CURVE SMOOTH",
"563 1102 OFFCURVE",
"563 998 OFFCURVE",
"563 972 CURVE SMOOTH",
"563 969 LINE",
"227 854 OFFCURVE",
"41 839 OFFCURVE",
"41 430 CURVE SMOOTH",
"41 174 OFFCURVE",
"95 -16 OFFCURVE"
);
},
{
closed = 1;
nodes = (
"486 262 CURVE SMOOTH",
"433 262 OFFCURVE",
"406 306 OFFCURVE",
"406 395 CURVE SMOOTH",
"406 588 LINE SMOOTH",
"406 705 OFFCURVE",
"463 757 OFFCURVE",
"562 797 CURVE",
"562 379 LINE SMOOTH",
"562 322 OFFCURVE",
"544 262 OFFCURVE"
);
}
);
width = 990;
},
{
anchors = (
{
name = ogonek;
position = "{636, 0}";
},
{
name = top;
position = "{620, 1500}";
}
);
layerId = "E8DA9D10-2326-4043-BA0A-F99E452091F3";
name = "Regular Italic";
paths = (
{
closed = 1;
nodes = (
"224 -16 CURVE SMOOTH",
"327 -16 OFFCURVE",
"422 53 OFFCURVE",
"477 178 CURVE",
"449 0 LINE",
"805 0 LINE",
"985 1143 LINE SMOOTH",
"1023 1387 OFFCURVE",
"863 1516 OFFCURVE",
"623 1516 CURVE SMOOTH",
"317 1516 OFFCURVE",
"165 1403 OFFCURVE",
"119 1105 CURVE SMOOTH",
"115 1084 OFFCURVE",
"112 1067 OFFCURVE",
"112 1056 CURVE",
"460 1056 LINE",
"474 1146 LINE SMOOTH",
"482 1201 OFFCURVE",
"509 1243 OFFCURVE",
"574 1239 CURVE SMOOTH",
"619 1236 OFFCURVE",
"635 1213 OFFCURVE",
"621 1123 CURVE SMOOTH",
"618 1102 OFFCURVE",
"601 998 OFFCURVE",
"597 972 CURVE SMOOTH",
"597 969 LINE",
"243 854 OFFCURVE",
"54 839 OFFCURVE",
"-10 430 CURVE SMOOTH",
"-51 174 OFFCURVE",
"-26 -16 OFFCURVE"
);
},
{
closed = 1;
nodes = (
"408 262 CURVE SMOOTH",
"355 262 OFFCURVE",
"335 306 OFFCURVE",
"349 395 CURVE SMOOTH",
"380 588 LINE SMOOTH",
"398 705 OFFCURVE",
"463 757 OFFCURVE",
"569 797 CURVE",
"502 379 LINE SMOOTH",
"493 322 OFFCURVE",
"466 262 OFFCURVE"
);
}
);
width = 990;
}
);
unicode = 0061;
userData = {
com.typemytype.robofont.layerData = {
};
public.markColor = "0.85,0.26,0.06,1";
};
},
{
glyphname = b;
lastChange = "2013-12-30 23:23:56 -0800";
layers = (
{
anchors = (
{
name = top;
position = "{679, 1760}";
}
);
layerId = "6CD1E358-6E98-409F-9A1F-EA9DE4C1A8AA";
name = Regular;
paths = (
{
closed = 1;
nodes = (
"651 -16 CURVE SMOOTH",
"875 -16 OFFCURVE",
"967 160 OFFCURVE",
"967 391 CURVE SMOOTH",
"967 1114 LINE SMOOTH",
"967 1360 OFFCURVE",
"884 1516 OFFCURVE",
"640 1516 CURVE SMOOTH",
"567 1516 OFFCURVE",
"500 1488 OFFCURVE",
"440 1427 CURVE",
"440 1770 LINE",
"72 1770 LINE",
"72 0 LINE",
"440 0 LINE",
"440 160 LINE",
"484 41 OFFCURVE",
"554 -16 OFFCURVE"
);
},
{
closed = 1;
nodes = (
"530 263 CURVE SMOOTH",
"447 263 OFFCURVE",
"440 349 OFFCURVE",
"440 457 CURVE SMOOTH",
"440 1085 LINE SMOOTH",
"440 1175 OFFCURVE",
"456 1239 OFFCURVE",
"528 1239 CURVE SMOOTH",
"598 1239 OFFCURVE",
"604 1171 OFFCURVE",
"604 1081 CURVE SMOOTH",
"604 457 LINE SMOOTH",
"604 347 OFFCURVE",
"609 263 OFFCURVE"
);
}
);
width = 1027;
},
{
anchors = (
{
name = top;
position = "{798, 1760}";
}
);
layerId = "E8DA9D10-2326-4043-BA0A-F99E452091F3";
name = "Regular Italic";
paths = (
{
closed = 1;
nodes = (
"490 -16 CURVE SMOOTH",
"714 -16 OFFCURVE",
"833 160 OFFCURVE",
"870 391 CURVE SMOOTH",
"983 1114 LINE SMOOTH",
"1023 1360 OFFCURVE",
"964 1516 OFFCURVE",
"720 1516 CURVE SMOOTH",
"647 1516 OFFCURVE",
"575 1488 OFFCURVE",
"506 1427 CURVE",
"560 1770 LINE",
"192 1770 LINE",
"-87 0 LINE",
"281 0 LINE",
"306 160 LINE",
"332 41 OFFCURVE",
"393 -16 OFFCURVE"
);
},
{
closed = 1;
nodes = (
"412 263 CURVE SMOOTH",
"329 263 OFFCURVE",
"336 349 OFFCURVE",
"353 457 CURVE SMOOTH",
"452 1085 LINE SMOOTH",
"466 1175 OFFCURVE",
"492 1239 OFFCURVE",
"564 1239 CURVE SMOOTH",
"634 1239 OFFCURVE",
"629 1171 OFFCURVE",
"615 1081 CURVE SMOOTH",
"517 457 LINE SMOOTH",
"499 347 OFFCURVE",
"491 263 OFFCURVE"
);
}
);
width = 1027;
}
);
unicode = 0062;
userData = {
com.typemytype.robofont.layerData = {
};
public.markColor = "0.85,0.26,0.06,1";
};
},
{
glyphname = c;
lastChange = "2013-12-30 23:45:58 -0800";
layers = (
{
anchors = (
{
name = bot;
position = "{514, 0}";
},
{
name = top;
position = "{515, 1500}";
}
);
layerId = "6CD1E358-6E98-409F-9A1F-EA9DE4C1A8AA";
name = Regular;
paths = (
{
closed = 1;
nodes = (
"523 -16 CURVE SMOOTH",
"773 -16 OFFCURVE",
"953 130 OFFCURVE",
"953 379 CURVE SMOOTH",
"953 641 LINE",
"588 641 LINE",
"590 389 LINE SMOOTH",
"591 322 OFFCURVE",
"568 264 OFFCURVE",
"506 264 CURVE SMOOTH",
"445 264 OFFCURVE",
"420 326 OFFCURVE",
"420 387 CURVE SMOOTH",
"420 1114 LINE SMOOTH",
"420 1197 OFFCURVE",
"449 1239 OFFCURVE",
"508 1239 CURVE SMOOTH",
"575 1239 OFFCURVE",
"588 1185 OFFCURVE",
"588 1116 CURVE SMOOTH",
"588 906 LINE",
"953 906 LINE",
"953 1135 LINE SMOOTH",
"953 1380 OFFCURVE",
"766 1516 OFFCURVE",
"518 1516 CURVE SMOOTH",
"161 1516 OFFCURVE",
"60 1330 OFFCURVE",
"60 954 CURVE SMOOTH",
"60 492 LINE SMOOTH",
"60 158 OFFCURVE",
"187 -16 OFFCURVE"
);
}
);
width = 1006;
},
{
anchors = (
{
name = bot;
position = "{364, 0}";
},
{
name = top;
position = "{632, 1500}";
}
);
layerId = "E8DA9D10-2326-4043-BA0A-F99E452091F3";
name = "Regular Italic";
paths = (
{
closed = 1;
nodes = (
"402 -16 CURVE SMOOTH",
"652 -16 OFFCURVE",
"855 130 OFFCURVE",
"893 379 CURVE SMOOTH",
"935 641 LINE",
"570 641 LINE",
"533 389 LINE SMOOTH",
"522 322 OFFCURVE",
"490 264 OFFCURVE",
"428 264 CURVE SMOOTH",
"367 264 OFFCURVE",
"352 326 OFFCURVE",
"362 387 CURVE SMOOTH",
"477 1114 LINE SMOOTH",
"490 1197 OFFCURVE",
"525 1239 OFFCURVE",
"584 1239 CURVE SMOOTH",
"651 1239 OFFCURVE",
"655 1185 OFFCURVE",
"645 1116 CURVE SMOOTH",
"612 906 LINE",
"977 906 LINE",
"1013 1135 LINE SMOOTH",
"1051 1380 OFFCURVE",
"886 1516 OFFCURVE",
"638 1516 CURVE SMOOTH",
"281 1516 OFFCURVE",
"151 1330 OFFCURVE",
"91 954 CURVE SMOOTH",
"18 492 LINE SMOOTH",
"-34 158 OFFCURVE",
"66 -16 OFFCURVE"
);
}
);
width = 1006;
}
);
unicode = 0063;
userData = {
com.typemytype.robofont.layerData = {
};
public.markColor = "0.85,0.26,0.06,1";
};
},
{
glyphname = d;
lastChange = "2013-12-31 00:24:23 -0800";
layers = (
{
anchors = (
{
name = caron.alt;
position = "{770, 1500}";
},
{
name = mid;
position = "{767, 1629}";
},
{
name = top;
position = "{366, 1618}";
}
);
layerId = "6CD1E358-6E98-409F-9A1F-EA9DE4C1A8AA";
name = Regular;
paths = (
{
closed = 1;
nodes = (
"367 -16 CURVE SMOOTH",
"492 -16 OFFCURVE",
"550 51 OFFCURVE",
"590 159 CURVE",
"590 0 LINE",
"948 0 LINE",
"948 1770 LINE",
"590 1770 LINE",
"590 1419 LINE",
"541 1485 OFFCURVE",
"468 1516 OFFCURVE",
"373 1516 CURVE SMOOTH",
"168 1516 OFFCURVE",
"64 1357 OFFCURVE",
"64 1153 CURVE SMOOTH",
"60 477 LINE SMOOTH",
"60 201 OFFCURVE",
"90 -16 OFFCURVE"
);
},
{
closed = 1;
nodes = (
"504 264 CURVE SMOOTH",
"447 264 OFFCURVE",
"418 327 OFFCURVE",
"418 452 CURVE SMOOTH",
"418 1083 LINE SMOOTH",
"418 1160 OFFCURVE",
"429 1239 OFFCURVE",
"506 1239 CURVE SMOOTH",
"576 1239 OFFCURVE",
"590 1153 OFFCURVE",
"590 1083 CURVE SMOOTH",
"590 520 LINE SMOOTH",
"590 422 OFFCURVE",
"602 264 OFFCURVE"
);
}
);
width = 1020;
},
{
anchors = (
{
name = caron.alt;
position = "{840, 1500}";
},
{
name = mid;
position = "{865, 1629}";
},
{
name = top;
position = "{456, 1618}";
}
);
layerId = "E8DA9D10-2326-4043-BA0A-F99E452091F3";
name = "Regular Italic";
paths = (
{
closed = 1;
nodes = (
"206 -16 CURVE SMOOTH",
"331 -16 OFFCURVE",
"399 51 OFFCURVE",
"456 159 CURVE",
"431 0 LINE",
"789 0 LINE",
"1068 1770 LINE",
"710 1770 LINE",
"655 1419 LINE",
"616 1485 OFFCURVE",
"548 1516 OFFCURVE",
"453 1516 CURVE SMOOTH",
"248 1516 OFFCURVE",
"119 1357 OFFCURVE",
"86 1153 CURVE SMOOTH",
"-24 477 LINE SMOOTH",
"-68 201 OFFCURVE",
"-71 -16 OFFCURVE"
);
},
{
closed = 1;
nodes = (
"386 264 CURVE SMOOTH",
"329 264 OFFCURVE",
"311 327 OFFCURVE",
"330 452 CURVE SMOOTH",
"430 1083 LINE SMOOTH",
"442 1160 OFFCURVE",
"465 1239 OFFCURVE",
"542 1239 CURVE SMOOTH",
"612 1239 OFFCURVE",
"612 1153 OFFCURVE",
"602 1083 CURVE SMOOTH",
"513 520 LINE SMOOTH",
"497 422 OFFCURVE",
"484 264 OFFCURVE"
);
}
);
width = 1020;
}
);
unicode = 0064;
userData = {
com.typemytype.robofont.layerData = {
};
public.markColor = "0.85,0.26,0.06,1";
};
},
{
glyphname = e;
lastChange = "2013-12-30 23:46:52 -0800";
layers = (
{
anchors = (
{
name = bot;
position = "{495, 0}";
},
{
name = ogonek;
position = "{518, 0}";
}
);
layerId = "6CD1E358-6E98-409F-9A1F-EA9DE4C1A8AA";
name = Regular;
paths = (
{
closed = 1;
nodes = (
"492 -16 CURVE SMOOTH",
"832 -16 OFFCURVE",
"942 157 OFFCURVE",
"942 494 CURVE SMOOTH",
"942 579 LINE",
"586 579 LINE",
"586 435 LINE SMOOTH",
"586 350 OFFCURVE",
"590 260 OFFCURVE",
"504 260 CURVE SMOOTH",
"424 260 OFFCURVE",
"418 346 OFFCURVE",
"418 427 CURVE SMOOTH",
"418 717 LINE",
"938 717 LINE",
"941 768 OFFCURVE",
"942 848 OFFCURVE",
"942 983 CURVE SMOOTH",
"942 1092 LINE SMOOTH",
"942 1376 OFFCURVE",
"798 1516 OFFCURVE",
"510 1516 CURVE SMOOTH",
"230 1516 OFFCURVE",
"60 1371 OFFCURVE",
"60 1092 CURVE SMOOTH",
"60 489 LINE SMOOTH",
"60 170 OFFCURVE",
"171 -16 OFFCURVE"
);
},
{
closed = 1;
nodes = (
"416 895 LINE",
"416 1087 LINE SMOOTH",
"416 1199 OFFCURVE",
"449 1249 OFFCURVE",
"506 1249 CURVE SMOOTH",
"559 1249 OFFCURVE",
"586 1195 OFFCURVE",
"586 1087 CURVE SMOOTH",
"586 895 LINE"
);
}
);
width = 1000;
},
{
anchors = (
{
name = bot;
position = "{379, 0}";
},
{
name = ogonek;
position = "{408, 0}";
},
{
name = top;
position = "{626, 1500}";
}
);
layerId = "E8DA9D10-2326-4043-BA0A-F99E452091F3";
name = "Regular Italic";
paths = (
{
closed = 1;
nodes = (
"371 -16 CURVE SMOOTH",
"711 -16 OFFCURVE",
"848 157 OFFCURVE",
"901 494 CURVE SMOOTH",
"914 579 LINE",
"558 579 LINE",
"535 435 LINE SMOOTH",
"522 350 OFFCURVE",
"512 260 OFFCURVE",
"426 260 CURVE SMOOTH",
"346 260 OFFCURVE",
"353 346 OFFCURVE",
"366 427 CURVE SMOOTH",
"412 717 LINE",
"932 717 LINE",
"943 768 OFFCURVE",
"957 848 OFFCURVE",
"978 983 CURVE SMOOTH",
"995 1092 LINE SMOOTH",
"1040 1376 OFFCURVE",
"918 1516 OFFCURVE",
"630 1516 CURVE SMOOTH",
"350 1516 OFFCURVE",
"157 1371 OFFCURVE",
"113 1092 CURVE SMOOTH",
"18 489 LINE SMOOTH",
"-32 170 OFFCURVE",
"50 -16 OFFCURVE"
);
},
{
closed = 1;
nodes = (
"438 895 LINE",
"468 1087 LINE SMOOTH",
"486 1199 OFFCURVE",
"527 1249 OFFCURVE",
"584 1249 CURVE SMOOTH",
"637 1249 OFFCURVE",
"656 1195 OFFCURVE",
"638 1087 CURVE SMOOTH",
"608 895 LINE"
);
}
);
width = 1000;
}
);
unicode = 0065;
userData = {
com.typemytype.robofont.layerData = {
};
public.markColor = "0.85,0.26,0.06,1";
};
},
{
glyphname = f;
lastChange = "2013-12-30 23:23:56 -0800";
layers = (
{
anchors = (
{
name = top;
position = "{321, 1760}";
}
);
layerId = "6CD1E358-6E98-409F-9A1F-EA9DE4C1A8AA";
name = Regular;
paths = (
{
closed = 1;
nodes = (
"105 0 LINE",
"460 0 LINE",
"460 1157 LINE",
"531 1157 LINE",
"531 1434 LINE",
"453 1434 LINE",
"453 1453 LINE SMOOTH",
"453 1500 OFFCURVE",
"456 1533 OFFCURVE",
"498 1533 CURVE SMOOTH",
"505 1533 OFFCURVE",
"516 1531 OFFCURVE",
"531 1528 CURVE",
"531 1749 LINE",
"485 1768 OFFCURVE",
"424 1778 OFFCURVE",
"347 1778 CURVE SMOOTH",
"186 1778 OFFCURVE",
"105 1697 OFFCURVE",
"105 1536 CURVE SMOOTH",
"105 1434 LINE",
"44 1434 LINE",
"41 1283 OFFCURVE",
"40 1192 OFFCURVE",
"40 1161 CURVE",
"105 1161 LINE"
);
}
);
width = 574;
},
{
anchors = (
{
name = top;
position = "{438, 1760}";
}
);
layerId = "E8DA9D10-2326-4043-BA0A-F99E452091F3";
name = "Regular Italic";
paths = (
{
closed = 1;
nodes = (
"-55 0 LINE",
"300 0 LINE",
"482 1157 LINE",
"553 1157 LINE",
"597 1434 LINE",
"519 1434 LINE",
"522 1453 LINE SMOOTH",
"529 1500 OFFCURVE",
"537 1533 OFFCURVE",
"579 1533 CURVE SMOOTH",
"586 1533 OFFCURVE",
"597 1531 OFFCURVE",
"611 1528 CURVE",
"646 1749 LINE",
"604 1768 OFFCURVE",
"544 1778 OFFCURVE",
"467 1778 CURVE SMOOTH",
"306 1778 OFFCURVE",
"212 1697 OFFCURVE",
"187 1536 CURVE SMOOTH",
"171 1434 LINE",
"110 1434 LINE",
"83 1283 OFFCURVE",
"68 1192 OFFCURVE",
"62 1161 CURVE",
"127 1161 LINE"
);
}
);
width = 574;
}
);
unicode = 0066;
userData = {
com.typemytype.robofont.layerData = {
};
public.markColor = "0.85,0.26,0.06,1";
};
},
{
glyphname = g;
lastChange = "2013-12-30 23:23:56 -0800";
layers = (
{
anchors = (
{
name = top;
position = "{509, 1500}";
}
);
layerId = "6CD1E358-6E98-409F-9A1F-EA9DE4C1A8AA";
name = Regular;
paths = (
{
closed = 1;
nodes = (
"476 -220 CURVE SMOOTH",
"813 -220 OFFCURVE",
"964 -86 OFFCURVE",
"964 254 CURVE SMOOTH",
"964 1500 LINE",
"599 1500 LINE",
"599 1331 LINE",
"574 1444 OFFCURVE",
"502 1516 OFFCURVE",
"370 1516 CURVE SMOOTH",
"135 1516 OFFCURVE",
"71 1348 OFFCURVE",
"71 1106 CURVE SMOOTH",
"71 543 LINE SMOOTH",
"71 328 OFFCURVE",
"155 160 OFFCURVE",
"370 160 CURVE SMOOTH",
"493 160 OFFCURVE",
"570 211 OFFCURVE",
"599 314 CURVE",
"599 231 LINE SMOOTH",
"599 113 OFFCURVE",
"544 33 OFFCURVE",
"429 33 CURVE SMOOTH",
"342 33 OFFCURVE",
"254 59 OFFCURVE",
"167 111 CURVE",
"46 -96 LINE",
"163 -194 OFFCURVE",
"268 -220 OFFCURVE"
);
},
{
closed = 1;
nodes = (
"515 430 CURVE SMOOTH",
"441 430 OFFCURVE",
"433 510 OFFCURVE",
"433 582 CURVE SMOOTH",
"433 1116 LINE SMOOTH",
"433 1183 OFFCURVE",
"442 1243 OFFCURVE",
"511 1243 CURVE SMOOTH",
"566 1243 OFFCURVE",
"599 1171 OFFCURVE",
"599 1116 CURVE SMOOTH",
"599 582 LINE SMOOTH",
"599 481 OFFCURVE",
"571 430 OFFCURVE"
);
}
);
width = 1032;
},
{
anchors = (
{
name = top;
position = "{626, 1500}";
}
);
layerId = "E8DA9D10-2326-4043-BA0A-F99E452091F3";
name = "Regular Italic";
paths = (
{
closed = 1;
nodes = (
"322 -220 CURVE SMOOTH",
"659 -220 OFFCURVE",
"831 -86 OFFCURVE",
"885 254 CURVE SMOOTH",
"1081 1500 LINE",
"716 1500 LINE",
"690 1331 LINE",
"682 1444 OFFCURVE",
"622 1516 OFFCURVE",
"490 1516 CURVE SMOOTH",
"255 1516 OFFCURVE",
"164 1348 OFFCURVE",
"127 1106 CURVE SMOOTH",
"38 543 LINE SMOOTH",
"4 328 OFFCURVE",
"62 160 OFFCURVE",
"277 160 CURVE SMOOTH",
"400 160 OFFCURVE",
"484 211 OFFCURVE",
"529 314 CURVE",
"516 231 LINE SMOOTH",
"498 113 OFFCURVE",
"430 33 OFFCURVE",
"315 33 CURVE SMOOTH",
"228 33 OFFCURVE",
"144 59 OFFCURVE",
"65 111 CURVE",
"-88 -96 LINE",
"13 -194 OFFCURVE",
"114 -220 OFFCURVE"
);
},
{
closed = 1;
nodes = (
"464 430 CURVE SMOOTH",
"390 430 OFFCURVE",
"394 510 OFFCURVE",
"405 582 CURVE SMOOTH",
"490 1116 LINE SMOOTH",
"500 1183 OFFCURVE",
"518 1243 OFFCURVE",
"587 1243 CURVE SMOOTH",
"642 1243 OFFCURVE",
"665 1171 OFFCURVE",
"656 1116 CURVE SMOOTH",
"571 582 LINE SMOOTH",
"556 481 OFFCURVE",
"520 430 OFFCURVE"
);
}
);
width = 1032;
}
);
unicode = 0067;
userData = {
com.typemytype.robofont.layerData = {
};
public.markColor = "0.85,0.26,0.06,1";
};
},
{
glyphname = h;
lastChange = "2013-12-30 23:51:25 -0800";
layers = (
{
anchors = (
{
name = mid;
position = "{250, 1603}";
},
{
name = top;
position = "{763, 1635}";
}
);
layerId = "6CD1E358-6E98-409F-9A1F-EA9DE4C1A8AA";
name = Regular;
paths = (
{
closed = 1;
nodes = (
"72 0 LINE",
"440 0 LINE",
"440 1135 LINE SMOOTH",
"440 1194 OFFCURVE",
"471 1243 OFFCURVE",
"520 1243 CURVE SMOOTH",
"579 1243 OFFCURVE",
"609 1197 OFFCURVE",
"609 1132 CURVE",
"608 0 LINE",
"967 0 LINE",
"967 1155 LINE SMOOTH",
"967 1375 OFFCURVE",
"867 1516 OFFCURVE",
"659 1516 CURVE SMOOTH",
"552 1516 OFFCURVE",
"479 1463 OFFCURVE",
"440 1351 CURVE",
"440 1770 LINE",
"72 1770 LINE"
);
}
);
width = 1035;
},
{
anchors = (
{
name = mid;
position = "{343, 1603}";
},
{
name = top;
position = "{853, 1626}";
}
);
layerId = "E8DA9D10-2326-4043-BA0A-F99E452091F3";
name = "Regular Italic";
paths = (
{
closed = 1;
nodes = (
"-87 0 LINE",
"281 0 LINE",
"460 1135 LINE SMOOTH",
"469 1194 OFFCURVE",
"508 1243 OFFCURVE",
"557 1243 CURVE SMOOTH",
"616 1243 OFFCURVE",
"639 1197 OFFCURVE",
"629 1132 CURVE",
"449 0 LINE",
"808 0 LINE",
"990 1155 LINE SMOOTH",
"1025 1375 OFFCURVE",
"947 1516 OFFCURVE",
"739 1516 CURVE SMOOTH",
"632 1516 OFFCURVE",
"550 1463 OFFCURVE",
"494 1351 CURVE",
"560 1770 LINE",
"192 1770 LINE"
);
}
);
width = 1035;
}
);
unicode = 0068;
userData = {
com.typemytype.robofont.layerData = {
};
public.markColor = "0.85,0.26,0.06,1";
};
},
{
glyphname = i;
lastChange = "2013-12-30 23:46:37 -0800";
layers = (
{
anchors = (
{
name = ogonek;
position = "{270, 0}";
}
);
layerId = "6CD1E358-6E98-409F-9A1F-EA9DE4C1A8AA";
name = Regular;
paths = (
{
closed = 1;
nodes = (
"70 0 LINE",
"428 0 LINE",
"428 1500 LINE",
"70 1500 LINE"
);
},
{
closed = 1;
nodes = (
"70 1600 LINE",
"428 1600 LINE",
"428 1850 LINE",
"70 1850 LINE"
);
}
);
width = 498;
},
{
anchors = (
{
name = ogonek;
position = "{75, 0}";
}
);
layerId = "E8DA9D10-2326-4043-BA0A-F99E452091F3";
name = "Regular Italic";
paths = (
{
closed = 1;
nodes = (
"-102 0 LINE",
"256 0 LINE",
"493 1500 LINE",
"135 1500 LINE"
);
},
{
closed = 1;
nodes = (
"150 1600 LINE",
"508 1600 LINE",
"548 1850 LINE",
"190 1850 LINE"
);
}
);
width = 498;
}
);
unicode = 0069;
userData = {
com.typemytype.robofont.layerData = {
};
public.markColor = "0.85,0.26,0.06,1";
};
},
{
glyphname = j;
lastChange = "2013-12-30 23:23:56 -0800";
layers = (
{
layerId = "6CD1E358-6E98-409F-9A1F-EA9DE4C1A8AA";
name = Regular;
paths = (
{
closed = 1;
nodes = (
"186 -176 CURVE SMOOTH",
"392 -176 OFFCURVE",
"468 -47 OFFCURVE",
"468 166 CURVE SMOOTH",
"468 1500 LINE",
"110 1500 LINE",
"110 156 LINE SMOOTH",
"110 115 OFFCURVE",
"105 85 OFFCURVE",
"67 85 CURVE SMOOTH",
"56 85 OFFCURVE",
"45 87 OFFCURVE",
"34 90 CURVE",
"34 -150 LINE",
"59 -167 OFFCURVE",
"109 -176 OFFCURVE"
);
},
{
closed = 1;
nodes = (
"110 1600 LINE",
"468 1600 LINE",
"468 1850 LINE",
"110 1850 LINE"
);
}
);
width = 538;
},
{
layerId = "E8DA9D10-2326-4043-BA0A-F99E452091F3";
name = "Regular Italic";
paths = (
{
closed = 1;
nodes = (
"-14 -176 CURVE SMOOTH",
"192 -176 OFFCURVE",
"289 -47 OFFCURVE",
"322 166 CURVE SMOOTH",
"533 1500 LINE",
"175 1500 LINE",
"-37 156 LINE SMOOTH",
"-44 115 OFFCURVE",
"-54 85 OFFCURVE",
"-92 85 CURVE SMOOTH",
"-103 85 OFFCURVE",
"-113 87 OFFCURVE",
"-123 90 CURVE",
"-162 -150 LINE",
"-139 -167 OFFCURVE",
"-91 -176 OFFCURVE"
);
},
{
closed = 1;
nodes = (
"190 1600 LINE",
"548 1600 LINE",
"588 1850 LINE",
"230 1850 LINE"
);
}
);
width = 538;
}
);
unicode = 006A;
userData = {
com.typemytype.robofont.layerData = {
};
public.markColor = "0.85,0.26,0.06,1";
};
},
{
glyphname = k;
lastChange = "2013-12-30 23:50:55 -0800";
layers = (
{
anchors = (
{
name = bot;
position = "{537, 0}";
},
{
name = top;
position = "{763, 1608}";
}
);
layerId = "6CD1E358-6E98-409F-9A1F-EA9DE4C1A8AA";
name = Regular;
paths = (
{
closed = 1;
nodes = (
"72 0 LINE",
"426 0 LINE",
"426 707 LINE",
"649 0 LINE",
"1030 0 LINE",
"744 848 LINE",
"969 1500 LINE",
"598 1500 LINE",
"426 983 LINE",
"426 1769 LINE",
"72 1769 LINE"
);
}
);
width = 1005;
},
{
anchors = (
{
name = bot;
position = "{358, 0}";
},
{
name = top;
position = "{843, 1608}";
}
);
layerId = "E8DA9D10-2326-4043-BA0A-F99E452091F3";
name = "Regular Italic";
paths = (
{
closed = 1;
nodes = (
"-87 0 LINE",
"267 0 LINE",
"379 707 LINE",
"490 0 LINE",
"871 0 LINE",
"719 848 LINE",
"1047 1500 LINE",
"676 1500 LINE",
"422 983 LINE",
"546 1769 LINE",
"192 1769 LINE"
);
}
);
width = 1005;
}
);
unicode = 006B;
userData = {
com.typemytype.robofont.layerData = {
};
public.markColor = "0.85,0.26,0.06,1";
};
},
{
glyphname = l;
lastChange = "2013-12-30 23:31:53 -0800";
layers = (
{
anchors = (
{
name = bot;
position = "{288, 0}";
},
{
name = caron.alt;
position = "{268, 1500}";
},
{
name = mid;
position = "{744, 1603}";
},
{
name = top;
position = "{258, 1760}";
}
);
layerId = "6CD1E358-6E98-409F-9A1F-EA9DE4C1A8AA";
name = Regular;
paths = (
{
closed = 1;
nodes = (
"72 0 LINE",
"436 0 LINE",
"436 1770 LINE",
"72 1770 LINE"
);
}
);
width = 508;
},
{
anchors = (
{
name = bot;
position = "{129, 0}";
},
{
name = caron.alt;
position = "{328, 1500}";
},
{
name = mid;
position = "{837, 1603}";
},
{
name = top;
position = "{377, 1760}";
}
);
layerId = "E8DA9D10-2326-4043-BA0A-F99E452091F3";
name = "Regular Italic";
paths = (
{
closed = 1;
nodes = (
"-87 0 LINE",
"277 0 LINE",
"556 1770 LINE",
"192 1770 LINE"
);
}
);
width = 508;
}
);
unicode = 006C;
userData = {
com.typemytype.robofont.layerData = {
};
public.markColor = "0.85,0.26,0.06,1";
};
},
{
glyphname = m;
lastChange = "2013-12-30 23:23:56 -0800";
layers = (
{
anchors = (
{
name = top;
position = "{923, 1500}";
}
);
layerId = "6CD1E358-6E98-409F-9A1F-EA9DE4C1A8AA";
name = Regular;
paths = (
{
closed = 1;
nodes = (
"72 0 LINE",
"422 0 LINE",
"422 1059 LINE SMOOTH",
"422 1140 OFFCURVE",
"441 1243 OFFCURVE",
"522 1243 CURVE SMOOTH",
"585 1243 OFFCURVE",
"592 1165 OFFCURVE",
"592 1102 CURVE SMOOTH",
"592 0 LINE",
"950 0 LINE",
"950 1077 LINE SMOOTH",
"950 1154 OFFCURVE",
"970 1247 OFFCURVE",
"1047 1247 CURVE SMOOTH",
"1096 1247 OFFCURVE",
"1120 1199 OFFCURVE",
"1120 1102 CURVE SMOOTH",
"1120 0 LINE",
"1481 0 LINE",
"1485 1096 LINE",
"1485 1343 OFFCURVE",
"1421 1516 OFFCURVE",
"1172 1516 CURVE SMOOTH",
"1034 1516 OFFCURVE",
"972 1464 OFFCURVE",
"917 1365 CURVE",
"882 1456 OFFCURVE",
"794 1516 OFFCURVE",
"674 1516 CURVE SMOOTH",
"524 1516 OFFCURVE",
"454 1448 OFFCURVE",
"422 1326 CURVE",
"422 1500 LINE",
"72 1500 LINE"
);
}
);
width = 1553;
},
{
anchors = (
{
name = top;
position = "{1040, 1500}";
}
);
layerId = "E8DA9D10-2326-4043-BA0A-F99E452091F3";
name = "Regular Italic";
paths = (
{
closed = 1;
nodes = (
"-47 0 LINE",
"303 0 LINE",
"470 1059 LINE SMOOTH",
"483 1140 OFFCURVE",
"517 1243 OFFCURVE",
"598 1243 CURVE SMOOTH",
"661 1243 OFFCURVE",
"657 1165 OFFCURVE",
"647 1102 CURVE SMOOTH",
"473 0 LINE",
"831 0 LINE",
"1001 1077 LINE SMOOTH",
"1013 1154 OFFCURVE",
"1048 1247 OFFCURVE",
"1125 1247 CURVE SMOOTH",
"1174 1247 OFFCURVE",
"1190 1199 OFFCURVE",
"1175 1102 CURVE SMOOTH",
"1001 0 LINE",
"1362 0 LINE",
"1538 1096 LINE",
"1578 1343 OFFCURVE",
"1541 1516 OFFCURVE",
"1292 1516 CURVE SMOOTH",
"1154 1516 OFFCURVE",
"1084 1464 OFFCURVE",
"1013 1365 CURVE",
"993 1456 OFFCURVE",
"914 1516 OFFCURVE",
"794 1516 CURVE SMOOTH",
"644 1516 OFFCURVE",
"564 1448 OFFCURVE",
"512 1326 CURVE",
"539 1500 LINE",
"189 1500 LINE"
);
}
);
width = 1553;
}
);
unicode = 006D;
userData = {
com.typemytype.robofont.layerData = {
};
public.markColor = "0.85,0.26,0.06,1";
};
},
{
glyphname = n;
lastChange = "2013-12-30 23:23:56 -0800";
layers = (
{
anchors = (
{
name = bot;
position = "{517, 0}";
},
{
name = top;
position = "{513, 1500}";
}
);
layerId = "6CD1E358-6E98-409F-9A1F-EA9DE4C1A8AA";
name = Regular;
paths = (
{
closed = 1;
nodes = (
"72 0 LINE",
"430 0 LINE",
"430 1055 LINE SMOOTH",
"430 1138 OFFCURVE",
"437 1239 OFFCURVE",
"520 1239 CURVE SMOOTH",
"578 1239 OFFCURVE",
"600 1179 OFFCURVE",
"600 1120 CURVE SMOOTH",
"600 0 LINE",
"953 0 LINE",
"953 1157 LINE SMOOTH",
"953 1379 OFFCURVE",
"864 1516 OFFCURVE",
"656 1516 CURVE SMOOTH",
"527 1516 OFFCURVE",
"456 1423 OFFCURVE",
"430 1309 CURVE",
"430 1500 LINE",
"72 1500 LINE"
);
}
);
width = 1021;
},
{
anchors = (
{
name = bot;
position = "{398, 0}";
},
{
name = top;
position = "{630, 1500}";
}
);
layerId = "E8DA9D10-2326-4043-BA0A-F99E452091F3";
name = "Regular Italic";
paths = (
{
closed = 1;
nodes = (
"-47 0 LINE",
"311 0 LINE",
"477 1055 LINE SMOOTH",
"491 1138 OFFCURVE",
"513 1239 OFFCURVE",
"596 1239 CURVE SMOOTH",
"654 1239 OFFCURVE",
"667 1179 OFFCURVE",
"657 1120 CURVE SMOOTH",
"481 0 LINE",
"834 0 LINE",
"1016 1157 LINE SMOOTH",
"1051 1379 OFFCURVE",
"984 1516 OFFCURVE",
"776 1516 CURVE SMOOTH",
"647 1516 OFFCURVE",
"562 1423 OFFCURVE",
"518 1309 CURVE",
"547 1500 LINE",
"189 1500 LINE"
);
}
);
width = 1021;
}
);
unicode = 006E;
userData = {
com.typemytype.robofont.layerData = {
};
public.markColor = "0.85,0.26,0.06,1";
};
},
{
glyphname = o;
lastChange = "2013-12-31 00:07:18 -0800";
layers = (
{
anchors = (
{
name = ogonek;
position = "{532, 0}";
},
{
name = top;
position = "{509, 1500}";
}
);
layerId = "6CD1E358-6E98-409F-9A1F-EA9DE4C1A8AA";
name = Regular;
paths = (
{
closed = 1;
nodes = (
"508 260 CURVE SMOOTH",
"448 260 OFFCURVE",
"424 308 OFFCURVE",
"424 375 CURVE SMOOTH",
"424 1108 LINE SMOOTH",
"424 1195 OFFCURVE",
"452 1239 OFFCURVE",
"508 1239 CURVE SMOOTH",
"564 1239 OFFCURVE",
"592 1195 OFFCURVE",
"592 1108 CURVE SMOOTH",
"592 375 LINE SMOOTH",
"592 308 OFFCURVE",
"568 260 OFFCURVE"
);
},
{
closed = 1;
nodes = (
"508 -16 CURVE SMOOTH",
"809 -16 OFFCURVE",
"957 143 OFFCURVE",
"957 449 CURVE SMOOTH",
"957 1051 LINE SMOOTH",
"957 1334 OFFCURVE",
"789 1516 OFFCURVE",
"508 1516 CURVE SMOOTH",
"228 1516 OFFCURVE",
"60 1333 OFFCURVE",
"60 1051 CURVE SMOOTH",
"60 449 LINE SMOOTH",
"60 138 OFFCURVE",
"209 -16 OFFCURVE"
);
}
);
width = 1017;
},
{
anchors = (
{
name = ogonek;
position = "{376, 0}";
},
{
name = top;
position = "{626, 1500}";
}
);
layerId = "E8DA9D10-2326-4043-BA0A-F99E452091F3";
name = "Regular Italic";
paths = (
{
closed = 1;
nodes = (
"430 260 CURVE SMOOTH",
"370 260 OFFCURVE",
"354 308 OFFCURVE",
"364 375 CURVE SMOOTH",
"480 1108 LINE SMOOTH",
"494 1195 OFFCURVE",
"528 1239 OFFCURVE",
"584 1239 CURVE SMOOTH",
"640 1239 OFFCURVE",
"662 1195 OFFCURVE",
"648 1108 CURVE SMOOTH",
"532 375 LINE SMOOTH",
"522 308 OFFCURVE",
"490 260 OFFCURVE"
);
},
{
closed = 1;
nodes = (
"387 -16 CURVE SMOOTH",
"688 -16 OFFCURVE",
"860 143 OFFCURVE",
"909 449 CURVE SMOOTH",
"1004 1051 LINE SMOOTH",
"1049 1334 OFFCURVE",
"909 1516 OFFCURVE",
"628 1516 CURVE SMOOTH",
"348 1516 OFFCURVE",
"152 1333 OFFCURVE",
"107 1051 CURVE SMOOTH",
"12 449 LINE SMOOTH",
"-37 138 OFFCURVE",
"88 -16 OFFCURVE"
);
}
);
width = 1017;
}
);
unicode = 006F;
userData = {
com.typemytype.robofont.layerData = {
};
public.markColor = "0.85,0.26,0.06,1";
};
},
{
glyphname = p;
lastChange = "2013-12-30 23:23:56 -0800";
layers = (
{
anchors = (
{
name = top;
position = "{513, 1500}";
}
);
layerId = "6CD1E358-6E98-409F-9A1F-EA9DE4C1A8AA";
name = Regular;
paths = (
{
closed = 1;
nodes = (
"72 -300 LINE",
"436 -300 LINE",
"436 59 LINE",
"483 8 OFFCURVE",
"551 -16 OFFCURVE",
"641 -16 CURVE SMOOTH",
"937 -16 OFFCURVE",
"963 225 OFFCURVE",
"963 521 CURVE SMOOTH",
"963 1075 LINE SMOOTH",
"963 1323 OFFCURVE",
"899 1516 OFFCURVE",
"651 1516 CURVE SMOOTH",
"562 1516 OFFCURVE",
"490 1485 OFFCURVE",
"436 1419 CURVE",
"436 1500 LINE",
"72 1500 LINE"
);
},
{
closed = 1;
nodes = (
"522 262 CURVE SMOOTH",
"447 262 OFFCURVE",
"436 336 OFFCURVE",
"436 422 CURVE SMOOTH",
"436 1079 LINE SMOOTH",
"436 1183 OFFCURVE",
"464 1235 OFFCURVE",
"520 1235 CURVE SMOOTH",
"597 1235 OFFCURVE",
"600 1152 OFFCURVE",
"600 1075 CURVE SMOOTH",
"600 438 LINE SMOOTH",
"600 346 OFFCURVE",
"595 262 OFFCURVE"
);
}
);
width = 1023;
},
{
anchors = (
{
name = top;
position = "{630, 1500}";
}
);
layerId = "E8DA9D10-2326-4043-BA0A-F99E452091F3";
name = "Regular Italic";
paths = (
{
closed = 1;
nodes = (
"-94 -300 LINE",
"270 -300 LINE",
"326 59 LINE",
"365 8 OFFCURVE",
"430 -16 OFFCURVE",
"520 -16 CURVE SMOOTH",
"816 -16 OFFCURVE",
"879 225 OFFCURVE",
"926 521 CURVE SMOOTH",
"1014 1075 LINE SMOOTH",
"1052 1323 OFFCURVE",
"1019 1516 OFFCURVE",
"771 1516 CURVE SMOOTH",
"682 1516 OFFCURVE",
"605 1485 OFFCURVE",
"541 1419 CURVE",
"553 1500 LINE",
"189 1500 LINE"
);
},
{
closed = 1;
nodes = (
"444 262 CURVE SMOOTH",
"369 262 OFFCURVE",
"370 336 OFFCURVE",
"384 422 CURVE SMOOTH",
"487 1079 LINE SMOOTH",
"503 1183 OFFCURVE",
"539 1235 OFFCURVE",
"595 1235 CURVE SMOOTH",
"672 1235 OFFCURVE",
"662 1152 OFFCURVE",
"651 1075 CURVE SMOOTH",
"550 438 LINE SMOOTH",
"535 346 OFFCURVE",
"517 262 OFFCURVE"
);
}
);
width = 1023;
}
);
unicode = 0070;
userData = {
com.typemytype.robofont.layerData = {
};
public.markColor = "0.85,0.26,0.06,1";
};
},
{
glyphname = q;
lastChange = "2013-12-30 23:23:56 -0800";
layers = (
{
layerId = "6CD1E358-6E98-409F-9A1F-EA9DE4C1A8AA";
name = Regular;
paths = (
{
closed = 1;
nodes = (
"586 -300 LINE",
"951 -300 LINE",
"951 1500 LINE",
"586 1500 LINE",
"586 1419 LINE",
"533 1485 OFFCURVE",
"461 1516 OFFCURVE",
"371 1516 CURVE SMOOTH",
"124 1516 OFFCURVE",
"60 1322 OFFCURVE",
"60 1075 CURVE SMOOTH",
"60 482 LINE SMOOTH",
"60 191 OFFCURVE",
"89 -16 OFFCURVE",
"381 -16 CURVE SMOOTH",
"473 -16 OFFCURVE",
"543 32 OFFCURVE",
"586 90 CURVE"
);
},
{
closed = 1;
nodes = (
"500 262 CURVE SMOOTH",
"427 262 OFFCURVE",
"422 346 OFFCURVE",
"422 438 CURVE SMOOTH",
"422 1075 LINE SMOOTH",
"422 1152 OFFCURVE",
"425 1235 OFFCURVE",
"502 1235 CURVE SMOOTH",
"558 1235 OFFCURVE",
"586 1183 OFFCURVE",
"586 1079 CURVE SMOOTH",
"586 422 LINE SMOOTH",
"586 335 OFFCURVE",
"576 262 OFFCURVE"
);
}
);
width = 1023;
},
{
layerId = "E8DA9D10-2326-4043-BA0A-F99E452091F3";
name = "Regular Italic";
paths = (
{
closed = 1;
nodes = (
"420 -300 LINE",
"785 -300 LINE",
"1068 1500 LINE",
"703 1500 LINE",
"691 1419 LINE",
"648 1485 OFFCURVE",
"581 1516 OFFCURVE",
"491 1516 CURVE SMOOTH",
"244 1516 OFFCURVE",
"149 1322 OFFCURVE",
"111 1075 CURVE SMOOTH",
"17 482 LINE SMOOTH",
"-29 191 OFFCURVE",
"-32 -16 OFFCURVE",
"260 -16 CURVE SMOOTH",
"352 -16 OFFCURVE",
"429 32 OFFCURVE",
"481 90 CURVE"
);
},
{
closed = 1;
nodes = (
"422 262 CURVE SMOOTH",
"349 262 OFFCURVE",
"357 346 OFFCURVE",
"372 438 CURVE SMOOTH",
"473 1075 LINE SMOOTH",
"484 1152 OFFCURVE",
"500 1235 OFFCURVE",
"577 1235 CURVE SMOOTH",
"633 1235 OFFCURVE",
"653 1183 OFFCURVE",
"637 1079 CURVE SMOOTH",
"534 422 LINE SMOOTH",
"520 335 OFFCURVE",
"498 262 OFFCURVE"
);
}
);
width = 1023;
}
);
unicode = 0071;
userData = {
com.typemytype.robofont.layerData = {
};
public.markColor = "0.85,0.26,0.06,1";
};
},
{
glyphname = r;
lastChange = "2013-12-30 23:48:29 -0800";
layers = (
{
anchors = (
{
name = bot;
position = "{265, 0}";
}
);
layerId = "6CD1E358-6E98-409F-9A1F-EA9DE4C1A8AA";
name = Regular;
paths = (
{
closed = 1;
nodes = (
"72 0 LINE",
"430 0 LINE",
"430 1147 LINE SMOOTH",
"430 1187 OFFCURVE",
"600 1219 OFFCURVE",
"688 1219 CURVE",
"688 1518 LINE",
"555 1518 OFFCURVE",
"464 1449 OFFCURVE",
"430 1333 CURVE",
"430 1500 LINE",
"72 1500 LINE"
);
}
);
width = 704;
},
{
anchors = (
{
name = bot;
position = "{150, 0}";
},
{
name = top;
position = "{530, 1500}";
}
);
layerId = "E8DA9D10-2326-4043-BA0A-F99E452091F3";
name = "Regular Italic";
paths = (
{
closed = 1;
nodes = (
"-47 0 LINE",
"311 0 LINE",
"491 1147 LINE SMOOTH",
"497 1187 OFFCURVE",
"673 1219 OFFCURVE",
"761 1219 CURVE",
"808 1518 LINE",
"675 1518 OFFCURVE",
"574 1449 OFFCURVE",
"521 1333 CURVE",
"547 1500 LINE",
"189 1500 LINE"
);
}
);
width = 704;
}
);
unicode = 0072;
userData = {
com.typemytype.robofont.layerData = {
};
public.markColor = "0.85,0.26,0.06,1";
};
},
{
glyphname = s;
lastChange = "2013-12-30 23:23:56 -0800";
layers = (
{
anchors = (
{
name = bot;
position = "{478, 0}";
},
{
name = top;
position = "{489, 1500}";
}
);
layerId = "6CD1E358-6E98-409F-9A1F-EA9DE4C1A8AA";
name = Regular;
paths = (
{
closed = 1;
nodes = (
"483 -16 CURVE SMOOTH",
"763 -16 OFFCURVE",
"934 135 OFFCURVE",
"934 418 CURVE SMOOTH",
"934 646 OFFCURVE",
"825 768 OFFCURVE",
"688 870 CURVE SMOOTH",
"467 1032 LINE SMOOTH",
"424 1063 OFFCURVE",
"403 1106 OFFCURVE",
"403 1159 CURVE SMOOTH",
"403 1209 OFFCURVE",
"429 1239 OFFCURVE",
"479 1239 CURVE SMOOTH",
"539 1239 OFFCURVE",
"555 1170 OFFCURVE",
"555 1110 CURVE SMOOTH",
"555 1053 LINE",
"925 1053 LINE",
"925 1081 LINE SMOOTH",
"925 1372 OFFCURVE",
"776 1516 OFFCURVE",
"489 1516 CURVE SMOOTH",
"252 1516 OFFCURVE",
"45 1394 OFFCURVE",
"45 1157 CURVE SMOOTH",
"45 951 OFFCURVE",
"109 865 OFFCURVE",
"229 772 CURVE SMOOTH",
"420 625 LINE SMOOTH",
"498 566 OFFCURVE",
"561 515 OFFCURVE",
"561 385 CURVE SMOOTH",
"561 307 OFFCURVE",
"537 268 OFFCURVE",
"489 268 CURVE SMOOTH",
"424 268 OFFCURVE",
"401 309 OFFCURVE",
"401 377 CURVE SMOOTH",
"399 553 LINE",
"41 553 LINE",
"39 434 LINE SMOOTH",
"39 133 OFFCURVE",
"187 -16 OFFCURVE"
);
}
);
width = 972;
},
{
anchors = (
{
name = bot;
position = "{350, 0}";
},
{
name = top;
position = "{606, 1500}";
}
);
layerId = "E8DA9D10-2326-4043-BA0A-F99E452091F3";
name = "Regular Italic";
paths = (
{
closed = 1;
nodes = (
"362 -16 CURVE SMOOTH",
"642 -16 OFFCURVE",
"836 135 OFFCURVE",
"881 418 CURVE SMOOTH",
"917 646 OFFCURVE",
"827 768 OFFCURVE",
"706 870 CURVE SMOOTH",
"511 1032 LINE SMOOTH",
"472 1063 OFFCURVE",
"459 1106 OFFCURVE",
"467 1159 CURVE SMOOTH",
"474 1209 OFFCURVE",
"505 1239 OFFCURVE",
"555 1239 CURVE SMOOTH",
"615 1239 OFFCURVE",
"621 1170 OFFCURVE",
"611 1110 CURVE SMOOTH",
"602 1053 LINE",
"972 1053 LINE",
"977 1081 LINE SMOOTH",
"1022 1372 OFFCURVE",
"896 1516 OFFCURVE",
"609 1516 CURVE SMOOTH",
"372 1516 OFFCURVE",
"146 1394 OFFCURVE",
"108 1157 CURVE SMOOTH",
"76 951 OFFCURVE",
"126 865 OFFCURVE",
"232 772 CURVE SMOOTH",
"400 625 LINE SMOOTH",
"468 566 OFFCURVE",
"523 515 OFFCURVE",
"503 385 CURVE SMOOTH",
"491 307 OFFCURVE",
"460 268 OFFCURVE",
"412 268 CURVE SMOOTH",
"347 268 OFFCURVE",
"331 309 OFFCURVE",
"341 377 CURVE SMOOTH",
"367 553 LINE",
"9 553 LINE",
"-12 434 LINE SMOOTH",
"-59 133 OFFCURVE",
"66 -16 OFFCURVE"
);
}
);
width = 972;
}
);
unicode = 0073;
userData = {
com.typemytype.robofont.layerData = {
};
public.markColor = "0.85,0.26,0.06,1";
};
},
{
glyphname = t;
lastChange = "2013-12-30 23:32:34 -0800";
layers = (
{
anchors = (
{
name = bot;
position = "{382, 0}";
},
{
name = caron.alt;
position = "{318, 1500}";
},
{
name = mid;
position = "{315, 776}";
},
{
name = top;
position = "{315, 1760}";
}
);
layerId = "6CD1E358-6E98-409F-9A1F-EA9DE4C1A8AA";
name = Regular;
paths = (
{
closed = 1;
nodes = (
"380 -16 CURVE SMOOTH",
"467 -16 OFFCURVE",
"567 6 OFFCURVE",
"583 11 CURVE",
"583 255 LINE",
"583 255 OFFCURVE",
"546 251 OFFCURVE",
"520 251 CURVE SMOOTH",
"482 251 OFFCURVE",
"482 288 OFFCURVE",
"482 328 CURVE SMOOTH",
"482 1169 LINE",
"583 1169 LINE",
"583 1442 LINE",
"482 1442 LINE",
"482 1760 LINE",
"134 1760 LINE",
"134 1442 LINE",
"33 1442 LINE",
"33 1169 LINE",
"134 1169 LINE",
"134 234 LINE SMOOTH",
"134 65 OFFCURVE",
"187 -16 OFFCURVE"
);
}
);
width = 625;
},
{
anchors = (
{
name = bot;
position = "{225, 0}";
},
{
name = caron.alt;
position = "{398, 1500}";
},
{
name = mid;
position = "{280, 776}";
},
{
name = top;
position = "{435, 1760}";
}
);
layerId = "E8DA9D10-2326-4043-BA0A-F99E452091F3";
name = "Regular Italic";
paths = (
{
closed = 1;
nodes = (
"220 -16 CURVE SMOOTH",
"307 -16 OFFCURVE",
"411 6 OFFCURVE",
"427 11 CURVE",
"465 255 LINE",
"465 255 OFFCURVE",
"428 251 OFFCURVE",
"402 251 CURVE SMOOTH",
"364 251 OFFCURVE",
"370 288 OFFCURVE",
"376 328 CURVE SMOOTH",
"508 1169 LINE",
"609 1169 LINE",
"653 1442 LINE",
"552 1442 LINE",
"602 1760 LINE",
"254 1760 LINE",
"204 1442 LINE",
"103 1442 LINE",
"59 1169 LINE",
"160 1169 LINE",
"14 234 LINE SMOOTH",
"-13 65 OFFCURVE",
"27 -16 OFFCURVE"
);
}
);
width = 625;
}
);
unicode = 0074;
userData = {
com.typemytype.robofont.layerData = {
};
public.markColor = "0.85,0.26,0.06,1";
};
},
{
glyphname = u;
lastChange = "2013-12-30 23:23:56 -0800";
layers = (
{
anchors = (
{
name = ogonek;
position = "{755, 0}";
},
{
name = top;
position = "{512, 1500}";
}
);
layerId = "6CD1E358-6E98-409F-9A1F-EA9DE4C1A8AA";
name = Regular;
paths = (
{
closed = 1;
nodes = (
"361 -16 CURVE SMOOTH",
"497 -16 OFFCURVE",
"546 45 OFFCURVE",
"592 160 CURVE",
"592 0 LINE",
"950 0 LINE",
"950 1500 LINE",
"594 1500 LINE",
"592 455 LINE",
"592 443 LINE SMOOTH",
"592 360 OFFCURVE",
"591 264 OFFCURVE",
"508 264 CURVE SMOOTH",
"420 264 OFFCURVE",
"428 342 OFFCURVE",
"428 455 CURVE SMOOTH",
"428 1500 LINE",
"68 1500 LINE",
"68 383 LINE SMOOTH",
"68 143 OFFCURVE",
"120 -16 OFFCURVE"
);
}
);
width = 1022;
},
{
anchors = (
{
name = ogonek;
position = "{639, 0}";
},
{
name = top;
position = "{632, 1500}";
}
);
layerId = "E8DA9D10-2326-4043-BA0A-F99E452091F3";
name = "Regular Italic";
paths = (
{
closed = 1;
nodes = (
"242 -16 CURVE SMOOTH",
"378 -16 OFFCURVE",
"436 45 OFFCURVE",
"500 160 CURVE",
"476 0 LINE",
"834 0 LINE",
"1070 1500 LINE",
"714 1500 LINE",
"548 455 LINE",
"545 443 LINE SMOOTH",
"532 360 OFFCURVE",
"516 264 OFFCURVE",
"433 264 CURVE SMOOTH",
"345 264 OFFCURVE",
"366 342 OFFCURVE",
"384 455 CURVE SMOOTH",
"548 1500 LINE",
"188 1500 LINE",
"12 383 LINE SMOOTH",
"-26 143 OFFCURVE",
"1 -16 OFFCURVE"
);
}
);
width = 1022;
}
);
unicode = 0075;
userData = {
com.typemytype.robofont.layerData = {
};
public.markColor = "0.85,0.26,0.06,1";
};
},
{
glyphname = v;
lastChange = "2013-12-30 23:23:56 -0800";
layers = (
{
layerId = "6CD1E358-6E98-409F-9A1F-EA9DE4C1A8AA";
name = Regular;
paths = (
{
closed = 1;
nodes = (
"263 0 LINE",
"677 0 LINE",
"922 1500 LINE",
"564 1500 LINE",
"481 743 LINE",
"467 498 LINE",
"455 741 LINE",
"381 1500 LINE",
"22 1500 LINE"
);
}
);
width = 944;
},
{
layerId = "E8DA9D10-2326-4043-BA0A-F99E452091F3";
name = "Regular Italic";
paths = (
{
closed = 1;
nodes = (
"147 0 LINE",
"561 0 LINE",
"1042 1500 LINE",
"684 1500 LINE",
"482 743 LINE",
"429 498 LINE",
"455 741 LINE",
"501 1500 LINE",
"142 1500 LINE"
);
}
);
width = 944;
}
);
unicode = 0076;
userData = {
com.typemytype.robofont.layerData = {
};
public.markColor = "0.85,0.26,0.06,1";
};
},
{
glyphname = w;
lastChange = "2013-12-30 23:23:56 -0800";
layers = (
{
anchors = (
{
name = top;
position = "{722, 1500}";
}
);
layerId = "6CD1E358-6E98-409F-9A1F-EA9DE4C1A8AA";
name = Regular;
paths = (
{
closed = 1;
nodes = (
"229 0 LINE",
"626 0 LINE",
"720 851 LINE",
"828 0 LINE",
"1185 0 LINE",
"1378 1500 LINE",
"1040 1500 LINE",
"957 694 LINE",
"854 1500 LINE",
"541 1500 LINE",
"454 694 LINE",
"355 1500 LINE",
"48 1500 LINE"
);
}
);
width = 1426;
},
{
anchors = (
{
name = top;
position = "{842, 1500}";
}
);
layerId = "E8DA9D10-2326-4043-BA0A-F99E452091F3";
name = "Regular Italic";
paths = (
{
closed = 1;
nodes = (
"113 0 LINE",
"510 0 LINE",
"737 851 LINE",
"712 0 LINE",
"1069 0 LINE",
"1498 1500 LINE",
"1160 1500 LINE",
"950 694 LINE",
"974 1500 LINE",
"661 1500 LINE",
"447 694 LINE",
"475 1500 LINE",
"168 1500 LINE"
);
}
);
width = 1426;
}
);
unicode = 0077;
userData = {
com.typemytype.robofont.layerData = {
};
public.markColor = "0.85,0.26,0.06,1";
};
},
{
glyphname = x;
lastChange = "2013-12-30 23:23:56 -0800";
layers = (
{
layerId = "6CD1E358-6E98-409F-9A1F-EA9DE4C1A8AA";
name = Regular;
paths = (
{
closed = 1;
nodes = (
"8 0 LINE",
"279 0 LINE",
"520 714 LINE",
"660 754 LINE",
"920 1501 LINE",
"654 1501 LINE",
"434 869 LINE",
"292 833 LINE"
);
},
{
closed = 1;
nodes = (
"573 0 LINE",
"932 0 LINE",
"398 1501 LINE",
"33 1501 LINE"
);
}
);
width = 940;
},
{
layerId = "E8DA9D10-2326-4043-BA0A-F99E452091F3";
name = "Regular Italic";
paths = (
{
closed = 1;
nodes = (
"-108 0 LINE",
"163 0 LINE",
"516 714 LINE",
"662 754 LINE",
"1040 1501 LINE",
"774 1501 LINE",
"454 869 LINE",
"307 833 LINE"
);
},
{
closed = 1;
nodes = (
"457 0 LINE",
"816 0 LINE",
"518 1501 LINE",
"153 1501 LINE"
);
}
);
width = 940;
}
);
unicode = 0078;
userData = {
com.typemytype.robofont.layerData = {
};
public.markColor = "0.85,0.26,0.06,1";
};
},
{
glyphname = y;
lastChange = "2013-12-30 23:23:56 -0800";
layers = (
{
anchors = (
{
name = top;
position = "{471, 1500}";
}
);
layerId = "6CD1E358-6E98-409F-9A1F-EA9DE4C1A8AA";
name = Regular;
paths = (
{
closed = 1;
nodes = (
"43 -250 LINE",
"447 -250 LINE SMOOTH",
"576 -250 OFFCURVE",
"624 -191 OFFCURVE",
"644 -78 CURVE SMOOTH",
"922 1500 LINE",
"577 1500 LINE",
"497 767 LINE SMOOTH",
"459 395 LINE",
"425 767 LINE SMOOTH",
"359 1500 LINE",
"16 1500 LINE",
"250 31 LINE SMOOTH",
"255 0 OFFCURVE",
"257 -23 OFFCURVE",
"215 -23 CURVE SMOOTH",
"43 -23 LINE"
);
}
);
width = 944;
},
{
anchors = (
{
name = top;
position = "{591, 1500}";
}
);
layerId = "E8DA9D10-2326-4043-BA0A-F99E452091F3";
name = "Regular Italic";
paths = (
{
closed = 1;
nodes = (
"-113 -250 LINE",
"291 -250 LINE SMOOTH",
"420 -250 OFFCURVE",
"477 -191 OFFCURVE",
"515 -78 CURVE SMOOTH",
"1042 1500 LINE",
"697 1500 LINE",
"501 767 LINE SMOOTH",
"404 395 LINE",
"429 767 LINE SMOOTH",
"479 1500 LINE",
"136 1500 LINE",
"139 31 LINE SMOOTH",
"139 0 OFFCURVE",
"137 -23 OFFCURVE",
"95 -23 CURVE SMOOTH",
"-77 -23 LINE"
);
}
);
width = 944;
}
);
unicode = 0079;
userData = {
com.typemytype.robofont.layerData = {
};
public.markColor = "0.85,0.26,0.06,1";
};
},
{
glyphname = z;
lastChange = "2013-12-30 23:23:56 -0800";
layers = (
{
anchors = (
{
name = top;
position = "{436, 1500}";
}
);
layerId = "6CD1E358-6E98-409F-9A1F-EA9DE4C1A8AA";
name = Regular;
paths = (
{
closed = 1;
nodes = (
"28 0 LINE",
"776 0 LINE",
"776 268 LINE",
"420 268 LINE",
"773 1256 LINE",
"773 1500 LINE",
"46 1500 LINE",
"46 1216 LINE",
"402 1216 LINE",
"28 219 LINE"
);
}
);
width = 790;
},
{
anchors = (
{
name = top;
position = "{556, 1500}";
}
);
layerId = "E8DA9D10-2326-4043-BA0A-F99E452091F3";
name = "Regular Italic";
paths = (
{
closed = 1;
nodes = (
"-88 0 LINE",
"660 0 LINE",
"702 268 LINE",
"346 268 LINE",
"854 1256 LINE",
"893 1500 LINE",
"166 1500 LINE",
"121 1216 LINE",
"477 1216 LINE",
"-54 219 LINE"
);
}
);
width = 790;
}
);
unicode = 007A;
userData = {
com.typemytype.robofont.layerData = {
};
public.markColor = "0.85,0.26,0.06,1";
};
},
{
glyphname = ordfeminine;
lastChange = "2013-12-31 00:20:10 -0800";
layers = (
{
layerId = "6CD1E358-6E98-409F-9A1F-EA9DE4C1A8AA";
name = Regular;
paths = (
{
closed = 1;
nodes = (
"286 779 CURVE SMOOTH",
"368 779 OFFCURVE",
"446 851 OFFCURVE",
"463 917 CURVE",
"463 793 LINE",
"745 793 LINE",
"745 1700 LINE SMOOTH",
"745 1891 OFFCURVE",
"606 1997 OFFCURVE",
"419 1997 CURVE SMOOTH",
"412 1997 LINE SMOOTH",
"169 1997 OFFCURVE",
"62 1906 OFFCURVE",
"62 1670 CURVE SMOOTH",
"62 1653 OFFCURVE",
"62 1640 OFFCURVE",
"63 1631 CURVE",
"339 1631 LINE",
"339 1711 LINE SMOOTH",
"339 1754 OFFCURVE",
"359 1776 OFFCURVE",
"398 1776 CURVE SMOOTH",
"474 1776 OFFCURVE",
"459 1649 OFFCURVE",
"459 1573 CURVE SMOOTH",
"459 1571 LINE",
"193 1480 OFFCURVE",
"44 1458 OFFCURVE",
"44 1134 CURVE SMOOTH",
"44 931 OFFCURVE",
"88 779 OFFCURVE"
);
},
{
closed = 1;
nodes = (
"398 1001 CURVE SMOOTH",
"355 1001 OFFCURVE",
"334 1036 OFFCURVE",
"334 1106 CURVE SMOOTH",
"334 1245 LINE SMOOTH",
"334 1338 OFFCURVE",
"379 1376 OFFCURVE",
"458 1407 CURVE",
"458 1094 LINE SMOOTH",
"458 1049 OFFCURVE",
"444 1001 OFFCURVE"
);
}
);
width = 803;
},
{
layerId = "E8DA9D10-2326-4043-BA0A-F99E452091F3";
name = "Regular Italic";
paths = (
{
closed = 1;
nodes = (
"273 779 CURVE SMOOTH",
"355 779 OFFCURVE",
"445 851 OFFCURVE",
"472 917 CURVE",
"453 793 LINE",
"735 793 LINE",
"879 1700 LINE SMOOTH",
"908 1891 OFFCURVE",
"786 1997 OFFCURVE",
"599 1997 CURVE SMOOTH",
"592 1997 LINE SMOOTH",
"349 1997 OFFCURVE",
"228 1906 OFFCURVE",
"191 1670 CURVE SMOOTH",
"188 1653 OFFCURVE",
"186 1640 OFFCURVE",
"185 1631 CURVE",
"461 1631 LINE",
"474 1711 LINE SMOOTH",
"481 1754 OFFCURVE",
"504 1776 OFFCURVE",
"543 1776 CURVE SMOOTH",
"619 1776 OFFCURVE",
"584 1649 OFFCURVE",
"572 1573 CURVE SMOOTH",
"572 1571 LINE",
"292 1480 OFFCURVE",
"139 1458 OFFCURVE",
"88 1134 CURVE SMOOTH",
"56 931 OFFCURVE",
"75 779 OFFCURVE"
);
},
{
closed = 1;
nodes = (
"421 1001 CURVE SMOOTH",
"378 1001 OFFCURVE",
"362 1036 OFFCURVE",
"374 1106 CURVE SMOOTH",
"396 1245 LINE SMOOTH",
"410 1338 OFFCURVE",
"461 1376 OFFCURVE",
"545 1407 CURVE",
"495 1094 LINE SMOOTH",
"489 1049 OFFCURVE",
"467 1001 OFFCURVE"
);
}
);
width = 803;
}
);
unicode = 00AA;
userData = {
com.typemytype.robofont.layerData = {
};
public.markColor = "0.85,0.26,0.06,1";
};
},
{
glyphname = ordmasculine;
lastChange = "2013-12-31 00:20:13 -0800";
layers = (
{
layerId = "6CD1E358-6E98-409F-9A1F-EA9DE4C1A8AA";
name = Regular;
paths = (
{
closed = 1;
nodes = (
"406 779 CURVE SMOOTH",
"645 779 OFFCURVE",
"762 907 OFFCURVE",
"762 1149 CURVE SMOOTH",
"762 1627 LINE SMOOTH",
"762 1852 OFFCURVE",
"629 1997 OFFCURVE",
"406 1997 CURVE SMOOTH",
"403 1997 LINE SMOOTH",
"182 1997 OFFCURVE",
"50 1848 OFFCURVE",
"50 1627 CURVE SMOOTH",
"50 1149 LINE SMOOTH",
"50 902 OFFCURVE",
"169 779 OFFCURVE"
);
},
{
closed = 1;
nodes = (
"339 1091 CURVE SMOOTH",
"339 1672 LINE SMOOTH",
"339 1741 OFFCURVE",
"361 1776 OFFCURVE",
"406 1776 CURVE SMOOTH",
"450 1776 OFFCURVE",
"472 1741 OFFCURVE",
"472 1672 CURVE SMOOTH",
"472 1091 LINE SMOOTH",
"472 961 OFFCURVE",
"339 978 OFFCURVE"
);
}
);
width = 813;
},
{
layerId = "E8DA9D10-2326-4043-BA0A-F99E452091F3";
name = "Regular Italic";
paths = (
{
closed = 1;
nodes = (
"393 779 CURVE SMOOTH",
"632 779 OFFCURVE",
"770 907 OFFCURVE",
"808 1149 CURVE SMOOTH",
"884 1627 LINE SMOOTH",
"919 1852 OFFCURVE",
"809 1997 OFFCURVE",
"586 1997 CURVE SMOOTH",
"583 1997 LINE SMOOTH",
"362 1997 OFFCURVE",
"207 1848 OFFCURVE",
"172 1627 CURVE SMOOTH",
"96 1149 LINE SMOOTH",
"58 902 OFFCURVE",
"156 779 OFFCURVE"
);
},
{
closed = 1;
nodes = (
"376 1091 CURVE SMOOTH",
"468 1672 LINE SMOOTH",
"479 1741 OFFCURVE",
"506 1776 OFFCURVE",
"551 1776 CURVE SMOOTH",
"595 1776 OFFCURVE",
"612 1741 OFFCURVE",
"601 1672 CURVE SMOOTH",
"509 1091 LINE SMOOTH",
"489 961 OFFCURVE",
"358 978 OFFCURVE"
);
}
);
width = 813;
}
);
unicode = 00BA;
userData = {
com.typemytype.robofont.layerData = {
};
public.markColor = "0.85,0.26,0.06,1";
};
},
{
glyphname = germandbls;
lastChange = "2013-12-30 23:23:56 -0800";
layers = (
{
layerId = "6CD1E358-6E98-409F-9A1F-EA9DE4C1A8AA";
name = Regular;
paths = (
{
closed = 1;
nodes = (
"58 0 LINE",
"408 0 LINE",
"408 1453 LINE SMOOTH",
"408 1504 OFFCURVE",
"433 1529 OFFCURVE",
"483 1529 CURVE SMOOTH",
"533 1529 OFFCURVE",
"558 1504 OFFCURVE",
"558 1453 CURVE SMOOTH",
"558 1245 LINE SMOOTH",
"558 1177 OFFCURVE",
"544 1126 OFFCURVE",
"474 1126 CURVE",
"474 878 LINE",
"583 878 OFFCURVE",
"621 839 OFFCURVE",
"621 731 CURVE SMOOTH",
"621 399 LINE SMOOTH",
"621 320 OFFCURVE",
"573 281 OFFCURVE",
"478 281 CURVE",
"478 0 LINE",
"582 0 LINE SMOOTH",
"882 0 OFFCURVE",
"969 260 OFFCURVE",
"969 559 CURVE SMOOTH",
"969 817 OFFCURVE",
"928 980 OFFCURVE",
"759 1020 CURVE",
"867 1055 OFFCURVE",
"909 1155 OFFCURVE",
"909 1295 CURVE SMOOTH",
"909 1412 LINE SMOOTH",
"909 1673 OFFCURVE",
"742 1776 OFFCURVE",
"483 1776 CURVE SMOOTH",
"200 1776 OFFCURVE",
"58 1655 OFFCURVE",
"58 1412 CURVE SMOOTH"
);
}
);
width = 1007;
},
{
layerId = "E8DA9D10-2326-4043-BA0A-F99E452091F3";
name = "Regular Italic";
paths = (
{
closed = 1;
nodes = (
"-102 0 LINE",
"248 0 LINE",
"477 1453 LINE SMOOTH",
"486 1504 OFFCURVE",
"514 1529 OFFCURVE",
"564 1529 CURVE SMOOTH",
"614 1529 OFFCURVE",
"636 1504 OFFCURVE",
"627 1453 CURVE SMOOTH",
"594 1245 LINE SMOOTH",
"583 1177 OFFCURVE",
"561 1126 OFFCURVE",
"491 1126 CURVE",
"453 878 LINE",
"562 878 OFFCURVE",
"593 839 OFFCURVE",
"577 731 CURVE SMOOTH",
"524 399 LINE SMOOTH",
"511 320 OFFCURVE",
"457 281 OFFCURVE",
"362 281 CURVE",
"318 0 LINE",
"422 0 LINE SMOOTH",
"722 0 OFFCURVE",
"850 260 OFFCURVE",
"898 559 CURVE SMOOTH",
"938 817 OFFCURVE",
"922 980 OFFCURVE",
"760 1020 CURVE",
"873 1055 OFFCURVE",
"931 1155 OFFCURVE",
"953 1295 CURVE SMOOTH",
"971 1412 LINE SMOOTH",
"1012 1673 OFFCURVE",
"862 1776 OFFCURVE",
"603 1776 CURVE SMOOTH",
"320 1776 OFFCURVE",
"159 1655 OFFCURVE",
"120 1412 CURVE SMOOTH"
);
}
);
width = 1007;
}
);
unicode = 00DF;
userData = {
com.typemytype.robofont.layerData = {
};
public.markColor = "0.85,0.26,0.06,1";
};
},
{
glyphname = ae;
lastChange = "2013-12-30 23:23:56 -0800";
layers = (
{
anchors = (
{
name = top;
position = "{769, 1500}";
}
);
layerId = "6CD1E358-6E98-409F-9A1F-EA9DE4C1A8AA";
name = Regular;
paths = (
{
closed = 1;
nodes = (
"449 -18 CURVE SMOOTH",
"598 -18 OFFCURVE",
"702 51 OFFCURVE",
"748 148 CURVE",
"789 53 OFFCURVE",
"896 -18 OFFCURVE",
"1036 -18 CURVE SMOOTH",
"1358 -18 OFFCURVE",
"1446 172 OFFCURVE",
"1446 494 CURVE SMOOTH",
"1446 579 LINE",
"1090 579 LINE",
"1091 574 OFFCURVE",
"1092 542 OFFCURVE",
"1092 483 CURVE SMOOTH",
"1092 394 OFFCURVE",
"1094 260 OFFCURVE",
"1008 260 CURVE SMOOTH",
"950 260 OFFCURVE",
"921 338 OFFCURVE",
"921 494 CURVE SMOOTH",
"921 704 LINE",
"1442 704 LINE",
"1445 755 OFFCURVE",
"1446 848 OFFCURVE",
"1446 983 CURVE SMOOTH",
"1446 1092 LINE SMOOTH",
"1446 1376 OFFCURVE",
"1302 1518 OFFCURVE",
"1014 1518 CURVE SMOOTH",
"889 1518 OFFCURVE",
"800 1477 OFFCURVE",
"747 1396 CURVE",
"692 1477 OFFCURVE",
"610 1518 OFFCURVE",
"501 1518 CURVE SMOOTH",
"195 1518 OFFCURVE",
"60 1403 OFFCURVE",
"60 1105 CURVE SMOOTH",
"60 1084 OFFCURVE",
"60 1067 OFFCURVE",
"61 1056 CURVE",
"409 1056 LINE",
"409 1157 LINE SMOOTH",
"409 1212 OFFCURVE",
"434 1239 OFFCURVE",
"483 1239 CURVE SMOOTH",
"578 1239 OFFCURVE",
"560 1079 OFFCURVE",
"560 983 CURVE SMOOTH",
"560 980 LINE",
"224 865 OFFCURVE",
"38 839 OFFCURVE",
"38 430 CURVE SMOOTH",
"38 154 OFFCURVE",
"182 -18 OFFCURVE"
);
},
{
closed = 1;
nodes = (
"483 262 CURVE SMOOTH",
"430 262 OFFCURVE",
"403 306 OFFCURVE",
"403 395 CURVE SMOOTH",
"403 570 LINE SMOOTH",
"403 687 OFFCURVE",
"460 734 OFFCURVE",
"559 774 CURVE",
"559 379 LINE SMOOTH",
"559 322 OFFCURVE",
"541 262 OFFCURVE"
);
},
{
closed = 1;
nodes = (
"921 931 LINE",
"921 1052 LINE SMOOTH",
"921 1167 OFFCURVE",
"921 1249 OFFCURVE",
"1010 1249 CURVE SMOOTH",
"1063 1249 OFFCURVE",
"1090 1195 OFFCURVE",
"1090 1087 CURVE SMOOTH",
"1090 931 LINE"
);
}
);
width = 1497;
},
{
anchors = (
{
name = top;
position = "{886, 1500}";
}
);
layerId = "E8DA9D10-2326-4043-BA0A-F99E452091F3";
name = "Regular Italic";
paths = (
{
closed = 1;
nodes = (
"326 -18 CURVE SMOOTH",
"475 -18 OFFCURVE",
"591 51 OFFCURVE",
"652 148 CURVE",
"678 53 OFFCURVE",
"773 -18 OFFCURVE",
"913 -18 CURVE SMOOTH",
"1235 -18 OFFCURVE",
"1354 172 OFFCURVE",
"1404 494 CURVE SMOOTH",
"1418 579 LINE",
"1062 579 LINE",
"1062 574 OFFCURVE",
"1058 542 OFFCURVE",
"1049 483 CURVE SMOOTH",
"1035 394 OFFCURVE",
"1016 260 OFFCURVE",
"930 260 CURVE SMOOTH",
"872 260 OFFCURVE",
"855 338 OFFCURVE",
"879 494 CURVE SMOOTH",
"913 704 LINE",
"1434 704 LINE",
"1444 755 OFFCURVE",
"1461 848 OFFCURVE",
"1481 983 CURVE SMOOTH",
"1499 1092 LINE SMOOTH",
"1544 1376 OFFCURVE",
"1422 1518 OFFCURVE",
"1134 1518 CURVE SMOOTH",
"1009 1518 OFFCURVE",
"914 1477 OFFCURVE",
"848 1396 CURVE",
"806 1477 OFFCURVE",
"730 1518 OFFCURVE",
"621 1518 CURVE SMOOTH",
"315 1518 OFFCURVE",
"162 1403 OFFCURVE",
"115 1105 CURVE SMOOTH",
"112 1084 OFFCURVE",
"109 1067 OFFCURVE",
"108 1056 CURVE",
"456 1056 LINE",
"472 1157 LINE SMOOTH",
"480 1212 OFFCURVE",
"510 1239 OFFCURVE",
"559 1239 CURVE SMOOTH",
"654 1239 OFFCURVE",
"611 1079 OFFCURVE",
"595 983 CURVE SMOOTH",
"595 980 LINE",
"241 865 OFFCURVE",
"51 839 OFFCURVE",
"-14 430 CURVE SMOOTH",
"-57 154 OFFCURVE",
"59 -18 OFFCURVE"
);
},
{
closed = 1;
nodes = (
"405 262 CURVE SMOOTH",
"352 262 OFFCURVE",
"332 306 OFFCURVE",
"346 395 CURVE SMOOTH",
"374 570 LINE SMOOTH",
"392 687 OFFCURVE",
"457 734 OFFCURVE",
"562 774 CURVE",
"499 379 LINE SMOOTH",
"490 322 OFFCURVE",
"463 262 OFFCURVE"
);
},
{
closed = 1;
nodes = (
"949 931 LINE",
"968 1052 LINE SMOOTH",
"986 1167 OFFCURVE",
"999 1249 OFFCURVE",
"1088 1249 CURVE SMOOTH",
"1141 1249 OFFCURVE",
"1159 1195 OFFCURVE",
"1142 1087 CURVE SMOOTH",
"1118 931 LINE"
);
}
);
width = 1497;
}
);
unicode = 00E6;
userData = {
com.typemytype.robofont.layerData = {
};
public.markColor = "0.85,0.26,0.06,1";
};
},
{
glyphname = oslash;
lastChange = "2013-12-30 23:23:56 -0800";
layers = (
{
components = (
{
name = o;
transform = "{1, 0, 0, 1, 0, 0}";
}
);
layerId = "6CD1E358-6E98-409F-9A1F-EA9DE4C1A8AA";
name = Regular;
paths = (
{
closed = 1;
nodes = (
"222 -175 LINE",
"336 92 LINE",
"198 144 LINE",
"86 -123 LINE"
);
},
{
closed = 1;
nodes = (
"836 1348 LINE",
"978 1603 LINE",
"837 1661 LINE",
"706 1403 LINE"
);
}
);
width = 989;
},
{
components = (
{
name = o;
transform = "{1, 0, 0, 1, 0, 0}";
}
);
layerId = "E8DA9D10-2326-4043-BA0A-F99E452091F3";
name = "Regular Italic";
paths = (
{
closed = 1;
nodes = (
"53 -175 LINE",
"208 92 LINE",
"79 144 LINE",
"-75 -123 LINE"
);
},
{
closed = 1;
nodes = (
"907 1348 LINE",
"1089 1603 LINE",
"957 1661 LINE",
"785 1403 LINE"
);
}
);
width = 989;
}
);
unicode = 00F8;
userData = {
com.typemytype.robofont.layerData = {
};
public.markColor = "0.85,0.26,0.06,1";
};
},
{
glyphname = thorn;
lastChange = "2013-12-30 23:23:56 -0800";
layers = (
{
layerId = "6CD1E358-6E98-409F-9A1F-EA9DE4C1A8AA";
name = Regular;
paths = (
{
closed = 1;
nodes = (
"62 -185 LINE",
"430 -185 LINE",
"430 160 LINE",
"474 41 OFFCURVE",
"544 -18 OFFCURVE",
"641 -18 CURVE SMOOTH",
"865 -18 OFFCURVE",
"957 160 OFFCURVE",
"957 391 CURVE SMOOTH",
"957 1114 LINE SMOOTH",
"957 1360 OFFCURVE",
"874 1519 OFFCURVE",
"630 1519 CURVE SMOOTH",
"557 1519 OFFCURVE",
"490 1488 OFFCURVE",
"430 1427 CURVE",
"430 1769 LINE",
"62 1769 LINE"
);
},
{
closed = 1;
nodes = (
"520 263 CURVE SMOOTH",
"437 263 OFFCURVE",
"430 349 OFFCURVE",
"430 457 CURVE SMOOTH",
"430 1085 LINE SMOOTH",
"430 1175 OFFCURVE",
"446 1239 OFFCURVE",
"518 1239 CURVE SMOOTH",
"588 1239 OFFCURVE",
"594 1171 OFFCURVE",
"594 1081 CURVE SMOOTH",
"594 457 LINE SMOOTH",
"594 347 OFFCURVE",
"599 263 OFFCURVE"
);
}
);
width = 1007;
},
{
layerId = "E8DA9D10-2326-4043-BA0A-F99E452091F3";
name = "Regular Italic";
paths = (
{
closed = 1;
nodes = (
"-126 -185 LINE",
"242 -185 LINE",
"296 160 LINE",
"322 41 OFFCURVE",
"383 -18 OFFCURVE",
"480 -18 CURVE SMOOTH",
"704 -18 OFFCURVE",
"823 160 OFFCURVE",
"860 391 CURVE SMOOTH",
"974 1114 LINE SMOOTH",
"1013 1360 OFFCURVE",
"954 1519 OFFCURVE",
"710 1519 CURVE SMOOTH",
"637 1519 OFFCURVE",
"565 1488 OFFCURVE",
"496 1427 CURVE",
"550 1769 LINE",
"182 1769 LINE"
);
},
{
closed = 1;
nodes = (
"402 263 CURVE SMOOTH",
"319 263 OFFCURVE",
"326 349 OFFCURVE",
"343 457 CURVE SMOOTH",
"442 1085 LINE SMOOTH",
"456 1175 OFFCURVE",
"482 1239 OFFCURVE",
"554 1239 CURVE SMOOTH",
"624 1239 OFFCURVE",
"620 1171 OFFCURVE",
"606 1081 CURVE SMOOTH",
"507 457 LINE SMOOTH",
"489 347 OFFCURVE",
"481 263 OFFCURVE"
);
}
);
width = 1007;
}
);
unicode = 00FE;
userData = {
com.typemytype.robofont.layerData = {
};
public.markColor = "0.85,0.26,0.06,1";
};
},
{
glyphname = dotlessi;
lastChange = "2013-12-30 23:47:43 -0800";
layers = (
{
anchors = (
{
name = ogonek;
position = "{260, 0}";
},
{
name = top;
position = "{247, 1500}";
}
);
layerId = "6CD1E358-6E98-409F-9A1F-EA9DE4C1A8AA";
name = Regular;
paths = (
{
closed = 1;
nodes = (
"62 0 LINE",
"420 0 LINE",
"420 1500 LINE",
"62 1500 LINE"
);
}
);
width = 482;
},
{
anchors = (
{
name = ogonek;
position = "{114, 0}";
},
{
name = top;
position = "{367, 1500}";
}
);
layerId = "E8DA9D10-2326-4043-BA0A-F99E452091F3";
name = "Regular Italic";
paths = (
{
closed = 1;
nodes = (
"-54 0 LINE",
"304 0 LINE",
"540 1500 LINE",
"182 1500 LINE"
);
}
);
width = 482;
}
);
unicode = 0131;
userData = {
com.typemytype.robofont.layerData = {
};
public.markColor = "0.85,0.26,0.06,1";
};
},
{
glyphname = lslash;
lastChange = "2013-12-30 23:23:56 -0800";
layers = (
{
layerId = "6CD1E358-6E98-409F-9A1F-EA9DE4C1A8AA";
name = Regular;
paths = (
{
closed = 1;
nodes = (
"-3 619 LINE",
"593 851 LINE",
"593 1143 LINE",
"-3 911 LINE"
);
},
{
closed = 1;
nodes = (
"112 0 LINE",
"476 0 LINE",
"476 1767 LINE",
"112 1767 LINE"
);
}
);
width = 590;
},
{
layerId = "E8DA9D10-2326-4043-BA0A-F99E452091F3";
name = "Regular Italic";
paths = (
{
closed = 1;
nodes = (
"-64 619 LINE",
"569 851 LINE",
"614 1143 LINE",
"-18 911 LINE"
);
},
{
closed = 1;
nodes = (
"-47 0 LINE",
"317 0 LINE",
"596 1767 LINE",
"232 1767 LINE"
);
}
);
width = 590;
}
);
unicode = 0142;
userData = {
com.typemytype.robofont.layerData = {
};
public.markColor = "0.85,0.26,0.06,1";
};
},
{
glyphname = oe;
lastChange = "2013-12-30 23:23:56 -0800";
layers = (
{
layerId = "6CD1E358-6E98-409F-9A1F-EA9DE4C1A8AA";
name = Regular;
paths = (
{
closed = 1;
nodes = (
"496 -18 CURVE SMOOTH",
"606 -18 OFFCURVE",
"696 11 OFFCURVE",
"766 69 CURVE",
"829 11 OFFCURVE",
"911 -18 OFFCURVE",
"1012 -18 CURVE SMOOTH",
"1352 -18 OFFCURVE",
"1462 157 OFFCURVE",
"1462 494 CURVE SMOOTH",
"1462 579 LINE",
"1106 579 LINE",
"1107 574 OFFCURVE",
"1108 542 OFFCURVE",
"1108 483 CURVE SMOOTH",
"1108 395 OFFCURVE",
"1110 260 OFFCURVE",
"1024 260 CURVE SMOOTH",
"944 260 OFFCURVE",
"937 346 OFFCURVE",
"937 427 CURVE SMOOTH",
"937 439 OFFCURVE",
"938 482 OFFCURVE",
"938 494 CURVE SMOOTH",
"938 704 LINE",
"1458 704 LINE",
"1461 755 OFFCURVE",
"1462 848 OFFCURVE",
"1462 983 CURVE SMOOTH",
"1462 1092 LINE SMOOTH",
"1462 1376 OFFCURVE",
"1318 1518 OFFCURVE",
"1030 1518 CURVE SMOOTH",
"919 1518 OFFCURVE",
"829 1486 OFFCURVE",
"761 1422 CURVE",
"686 1486 OFFCURVE",
"598 1518 OFFCURVE",
"496 1518 CURVE SMOOTH",
"216 1518 OFFCURVE",
"48 1333 OFFCURVE",
"48 1051 CURVE SMOOTH",
"48 449 LINE SMOOTH",
"48 138 OFFCURVE",
"197 -18 OFFCURVE"
);
},
{
closed = 1;
nodes = (
"496 260 CURVE SMOOTH",
"436 260 OFFCURVE",
"412 308 OFFCURVE",
"412 375 CURVE SMOOTH",
"412 1108 LINE SMOOTH",
"412 1195 OFFCURVE",
"440 1239 OFFCURVE",
"496 1239 CURVE SMOOTH",
"552 1239 OFFCURVE",
"580 1195 OFFCURVE",
"580 1108 CURVE SMOOTH",
"580 375 LINE SMOOTH",
"580 308 OFFCURVE",
"556 260 OFFCURVE"
);
},
{
closed = 1;
nodes = (
"938 931 LINE",
"938 955 OFFCURVE",
"936 1033 OFFCURVE",
"936 1057 CURVE SMOOTH",
"936 1146 OFFCURVE",
"939 1249 OFFCURVE",
"1026 1249 CURVE SMOOTH",
"1079 1249 OFFCURVE",
"1106 1195 OFFCURVE",
"1106 1087 CURVE SMOOTH",
"1106 931 LINE"
);
}
);
width = 1513;
},
{
layerId = "E8DA9D10-2326-4043-BA0A-F99E452091F3";
name = "Regular Italic";
paths = (
{
closed = 1;
nodes = (
"373 -18 CURVE SMOOTH",
"483 -18 OFFCURVE",
"578 11 OFFCURVE",
"657 69 CURVE",
"711 11 OFFCURVE",
"788 -18 OFFCURVE",
"889 -18 CURVE SMOOTH",
"1229 -18 OFFCURVE",
"1367 157 OFFCURVE",
"1420 494 CURVE SMOOTH",
"1434 579 LINE",
"1078 579 LINE",
"1078 574 OFFCURVE",
"1074 542 OFFCURVE",
"1065 483 CURVE SMOOTH",
"1051 395 OFFCURVE",
"1032 260 OFFCURVE",
"946 260 CURVE SMOOTH",
"866 260 OFFCURVE",
"872 346 OFFCURVE",
"885 427 CURVE SMOOTH",
"887 439 OFFCURVE",
"895 482 OFFCURVE",
"896 494 CURVE SMOOTH",
"930 704 LINE",
"1450 704 LINE",
"1460 755 OFFCURVE",
"1477 848 OFFCURVE",
"1497 983 CURVE SMOOTH",
"1515 1092 LINE SMOOTH",
"1560 1376 OFFCURVE",
"1438 1518 OFFCURVE",
"1150 1518 CURVE SMOOTH",
"1039 1518 OFFCURVE",
"944 1486 OFFCURVE",
"866 1422 CURVE",
"801 1486 OFFCURVE",
"718 1518 OFFCURVE",
"616 1518 CURVE SMOOTH",
"336 1518 OFFCURVE",
"139 1333 OFFCURVE",
"95 1051 CURVE SMOOTH",
"0 449 LINE SMOOTH",
"-49 138 OFFCURVE",
"74 -18 OFFCURVE"
);
},
{
closed = 1;
nodes = (
"418 260 CURVE SMOOTH",
"358 260 OFFCURVE",
"341 308 OFFCURVE",
"352 375 CURVE SMOOTH",
"468 1108 LINE SMOOTH",
"481 1195 OFFCURVE",
"516 1239 OFFCURVE",
"572 1239 CURVE SMOOTH",
"628 1239 OFFCURVE",
"649 1195 OFFCURVE",
"636 1108 CURVE SMOOTH",
"520 375 LINE SMOOTH",
"509 308 OFFCURVE",
"478 260 OFFCURVE"
);
},
{
closed = 1;
nodes = (
"966 931 LINE",
"969 955 OFFCURVE",
"979 1033 OFFCURVE",
"983 1057 CURVE SMOOTH",
"997 1146 OFFCURVE",
"1017 1249 OFFCURVE",
"1104 1249 CURVE SMOOTH",
"1157 1249 OFFCURVE",
"1175 1195 OFFCURVE",
"1158 1087 CURVE SMOOTH",
"1134 931 LINE"
);
}
);
width = 1513;
}
);
unicode = 0153;
userData = {
com.typemytype.robofont.layerData = {
};
public.markColor = "0.85,0.26,0.06,1";
};
},
{
glyphname = florin;
lastChange = "2013-12-30 23:23:56 -0800";
layers = (
{
layerId = "6CD1E358-6E98-409F-9A1F-EA9DE4C1A8AA";
name = Regular;
paths = (
{
closed = 1;
nodes = (
"245 -47 CURVE SMOOTH",
"406 -47 OFFCURVE",
"487 34 OFFCURVE",
"487 195 CURVE SMOOTH",
"487 986 LINE",
"578 986 LINE",
"578 1263 LINE",
"480 1263 LINE",
"480 1281 LINE SMOOTH",
"480 1332 OFFCURVE",
"486 1362 OFFCURVE",
"535 1362 CURVE SMOOTH",
"545 1362 OFFCURVE",
"559 1360 OFFCURVE",
"578 1357 CURVE",
"578 1578 LINE",
"527 1597 OFFCURVE",
"459 1607 OFFCURVE",
"374 1607 CURVE SMOOTH",
"213 1607 OFFCURVE",
"132 1526 OFFCURVE",
"132 1365 CURVE SMOOTH",
"132 1263 LINE",
"47 1263 LINE",
"47 986 LINE",
"132 986 LINE",
"139 297 LINE",
"139 279 LINE SMOOTH",
"139 228 OFFCURVE",
"133 198 OFFCURVE",
"84 198 CURVE SMOOTH",
"74 198 OFFCURVE",
"60 200 OFFCURVE",
"41 203 CURVE",
"41 -18 LINE",
"92 -37 OFFCURVE",
"160 -47 OFFCURVE"
);
}
);
width = 620;
},
{
layerId = "E8DA9D10-2326-4043-BA0A-F99E452091F3";
name = "Regular Italic";
paths = (
{
closed = 1;
nodes = (
"104 -47 CURVE SMOOTH",
"265 -47 OFFCURVE",
"359 34 OFFCURVE",
"385 195 CURVE SMOOTH",
"509 986 LINE",
"600 986 LINE",
"644 1263 LINE",
"546 1263 LINE",
"549 1281 LINE SMOOTH",
"556 1332 OFFCURVE",
"567 1362 OFFCURVE",
"616 1362 CURVE SMOOTH",
"626 1362 OFFCURVE",
"640 1360 OFFCURVE",
"658 1357 CURVE",
"693 1578 LINE",
"646 1597 OFFCURVE",
"579 1607 OFFCURVE",
"494 1607 CURVE SMOOTH",
"333 1607 OFFCURVE",
"239 1526 OFFCURVE",
"214 1365 CURVE SMOOTH",
"198 1263 LINE",
"113 1263 LINE",
"69 986 LINE",
"154 986 LINE",
"52 297 LINE",
"50 279 LINE SMOOTH",
"42 228 OFFCURVE",
"31 198 OFFCURVE",
"-18 198 CURVE SMOOTH",
"-28 198 OFFCURVE",
"-42 200 OFFCURVE",
"-60 203 CURVE",
"-96 -18 LINE",
"-47 -37 OFFCURVE",
"19 -47 OFFCURVE"
);
}
);
width = 620;
}
);
unicode = 0192;
userData = {
com.typemytype.robofont.layerData = {
};
public.markColor = "0.85,0.26,0.06,1";
};
},
{
glyphname = pi;
lastChange = "2013-12-30 23:23:56 -0800";
layers = (
{
layerId = "6CD1E358-6E98-409F-9A1F-EA9DE4C1A8AA";
name = Regular;
paths = (
{
closed = 1;
nodes = (
"175 0 LINE",
"533 0 LINE",
"533 1178 LINE",
"710 1178 LINE",
"720 0 LINE",
"1069 0 LINE",
"1065 1178 LINE",
"1206 1178 LINE",
"1206 1500 LINE",
"37 1500 LINE",
"37 1178 LINE",
"175 1178 LINE"
);
}
);
width = 1241;
},
{
layerId = "E8DA9D10-2326-4043-BA0A-F99E452091F3";
name = "Regular Italic";
paths = (
{
closed = 1;
nodes = (
"59 0 LINE",
"417 0 LINE",
"602 1178 LINE",
"779 1178 LINE",
"604 0 LINE",
"953 0 LINE",
"1134 1178 LINE",
"1275 1178 LINE",
"1326 1500 LINE",
"157 1500 LINE",
"106 1178 LINE",
"244 1178 LINE"
);
}
);
width = 1241;
}
);
unicode = 03C0;
userData = {
com.typemytype.robofont.layerData = {
};
public.markColor = "0.85,0.26,0.06,1";
};
},
{
glyphname = circumflex;
lastChange = "2013-12-30 23:23:56 -0800";
layers = (
{
anchors = (
{
name = _top;
position = "{494, 1500}";
}
);
layerId = "6CD1E358-6E98-409F-9A1F-EA9DE4C1A8AA";
name = Regular;
paths = (
{
closed = 1;
nodes = (
"40 1591 LINE",
"399 1591 LINE",
"485 1876 LINE",
"571 1591 LINE",
"930 1591 LINE",
"689 1994 LINE",
"281 1994 LINE"
);
}
);
width = 970;
},
{
anchors = (
{
name = _top;
position = "{536, 1500}";
}
);
layerId = "E8DA9D10-2326-4043-BA0A-F99E452091F3";
name = "Regular Italic";
paths = (
{
closed = 1;
nodes = (
"97 1591 LINE",
"456 1591 LINE",
"587 1876 LINE",
"628 1591 LINE",
"987 1591 LINE",
"809 1994 LINE",
"401 1994 LINE"
);
}
);
width = 970;
}
);
unicode = 02C6;
userData = {
com.typemytype.robofont.layerData = {
};
public.markColor = "0.85,0.26,0.06,1";
};
},
{
glyphname = caron;
lastChange = "2013-12-30 23:23:56 -0800";
layers = (
{
anchors = (
{
name = _top;
position = "{494, 1500}";
}
);
layerId = "6CD1E358-6E98-409F-9A1F-EA9DE4C1A8AA";
name = Regular;
paths = (
{
closed = 1;
nodes = (
"281 1591 LINE",
"689 1591 LINE",
"930 1994 LINE",
"571 1994 LINE",
"485 1709 LINE",
"399 1994 LINE",
"40 1994 LINE"
);
}
);
width = 970;
},
{
anchors = (
{
name = _top;
position = "{536, 1500}";
}
);
layerId = "E8DA9D10-2326-4043-BA0A-F99E452091F3";
name = "Regular Italic";
paths = (
{
closed = 1;
nodes = (
"338 1591 LINE",
"746 1591 LINE",
"1050 1994 LINE",
"691 1994 LINE",
"560 1709 LINE",
"519 1994 LINE",
"160 1994 LINE"
);
}
);
width = 970;
}
);
unicode = 02C7;
userData = {
com.typemytype.robofont.layerData = {
};
public.markColor = "0.85,0.26,0.06,1";
};
},
{
glyphname = zero;
lastChange = "2013-12-30 23:23:56 -0800";
layers = (
{
layerId = "6CD1E358-6E98-409F-9A1F-EA9DE4C1A8AA";
name = Regular;
paths = (
{
closed = 1;
nodes = (
"506 308 CURVE SMOOTH",
"452 308 OFFCURVE",
"419 366 OFFCURVE",
"419 428 CURVE SMOOTH",
"419 1297 LINE SMOOTH",
"419 1379 OFFCURVE",
"426 1452 OFFCURVE",
"506 1452 CURVE SMOOTH",
"586 1452 OFFCURVE",
"593 1379 OFFCURVE",
"593 1297 CURVE SMOOTH",
"593 428 LINE SMOOTH",
"593 366 OFFCURVE",
"560 308 OFFCURVE"
);
},
{
closed = 1;
nodes = (
"506 -16 CURVE SMOOTH",
"804 -16 OFFCURVE",
"972 156 OFFCURVE",
"972 469 CURVE SMOOTH",
"972 1263 LINE SMOOTH",
"972 1594 OFFCURVE",
"820 1776 OFFCURVE",
"506 1776 CURVE SMOOTH",
"192 1776 OFFCURVE",
"40 1594 OFFCURVE",
"40 1263 CURVE SMOOTH",
"40 469 LINE SMOOTH",
"40 156 OFFCURVE",
"208 -16 OFFCURVE"
);
}
);
width = 1012;
},
{
layerId = "E8DA9D10-2326-4043-BA0A-F99E452091F3";
name = "Regular Italic";
paths = (
{
closed = 1;
nodes = (
"395 308 CURVE SMOOTH",
"341 308 OFFCURVE",
"317 366 OFFCURVE",
"326 428 CURVE SMOOTH",
"463 1297 LINE SMOOTH",
"476 1379 OFFCURVE",
"495 1452 OFFCURVE",
"575 1452 CURVE SMOOTH",
"655 1452 OFFCURVE",
"650 1379 OFFCURVE",
"637 1297 CURVE SMOOTH",
"500 428 LINE SMOOTH",
"491 366 OFFCURVE",
"449 308 OFFCURVE"
);
},
{
closed = 1;
nodes = (
"343 -16 CURVE SMOOTH",
"641 -16 OFFCURVE",
"836 156 OFFCURVE",
"886 469 CURVE SMOOTH",
"1011 1263 LINE SMOOTH",
"1064 1594 OFFCURVE",
"940 1776 OFFCURVE",
"626 1776 CURVE SMOOTH",
"312 1776 OFFCURVE",
"132 1594 OFFCURVE",
"79 1263 CURVE SMOOTH",
"-46 469 LINE SMOOTH",
"-96 156 OFFCURVE",
"45 -16 OFFCURVE"
);
}
);
width = 1012;
}
);
unicode = 0030;
userData = {
com.typemytype.robofont.layerData = {
};
public.markColor = "0.85,0.26,0.06,1";
};
},
{
glyphname = one;
lastChange = "2013-12-30 23:23:56 -0800";
layers = (
{
layerId = "6CD1E358-6E98-409F-9A1F-EA9DE4C1A8AA";
name = Regular;
paths = (
{
closed = 1;
nodes = (
"242 0 LINE",
"615 0 LINE",
"615 1761 LINE",
"332 1761 LINE",
"276 1629 OFFCURVE",
"130 1556 OFFCURVE",
"24 1541 CURVE",
"24 1260 LINE",
"98 1260 OFFCURVE",
"194 1299 OFFCURVE",
"242 1356 CURVE"
);
}
);
width = 677;
},
{
layerId = "E8DA9D10-2326-4043-BA0A-F99E452091F3";
name = "Regular Italic";
paths = (
{
closed = 1;
nodes = (
"85 0 LINE",
"458 0 LINE",
"735 1761 LINE",
"452 1761 LINE",
"375 1629 OFFCURVE",
"218 1556 OFFCURVE",
"109 1541 CURVE",
"65 1260 LINE",
"139 1260 OFFCURVE",
"241 1299 OFFCURVE",
"298 1356 CURVE"
);
}
);
width = 677;
}
);
unicode = 0031;
userData = {
com.typemytype.robofont.layerData = {
};
public.markColor = "0.85,0.26,0.06,1";
};
},
{
glyphname = two;
lastChange = "2013-12-30 23:23:56 -0800";
layers = (
{
layerId = "6CD1E358-6E98-409F-9A1F-EA9DE4C1A8AA";
name = Regular;
paths = (
{
closed = 1;
nodes = (
"62 0 LINE",
"975 0 LINE",
"975 332 LINE",
"495 332 LINE",
"653 645 OFFCURVE",
"987 823 OFFCURVE",
"987 1293 CURVE SMOOTH",
"987 1597 OFFCURVE",
"817 1767 OFFCURVE",
"525 1767 CURVE SMOOTH",
"156 1767 OFFCURVE",
"58 1553 OFFCURVE",
"58 1173 CURVE SMOOTH",
"62 1065 LINE",
"432 1065 LINE",
"432 1280 LINE SMOOTH",
"432 1384 OFFCURVE",
"461 1437 OFFCURVE",
"520 1437 CURVE SMOOTH",
"597 1437 OFFCURVE",
"615 1369 OFFCURVE",
"615 1286 CURVE SMOOTH",
"615 1164 OFFCURVE",
"585 1067 OFFCURVE",
"525 992 CURVE SMOOTH",
"406 844 OFFCURVE",
"326 743 OFFCURVE",
"287 689 CURVE SMOOTH",
"141 484 OFFCURVE",
"62 337 OFFCURVE",
"62 84 CURVE SMOOTH"
);
}
);
width = 1012;
},
{
layerId = "E8DA9D10-2326-4043-BA0A-F99E452091F3";
name = "Regular Italic";
paths = (
{
closed = 1;
nodes = (
"-97 0 LINE",
"816 0 LINE",
"869 332 LINE",
"389 332 LINE",
"596 645 OFFCURVE",
"958 823 OFFCURVE",
"1032 1293 CURVE SMOOTH",
"1080 1597 OFFCURVE",
"937 1767 OFFCURVE",
"645 1767 CURVE SMOOTH",
"276 1767 OFFCURVE",
"145 1553 OFFCURVE",
"84 1173 CURVE SMOOTH",
"71 1065 LINE",
"441 1065 LINE",
"475 1280 LINE SMOOTH",
"492 1384 OFFCURVE",
"528 1437 OFFCURVE",
"587 1437 CURVE SMOOTH",
"664 1437 OFFCURVE",
"672 1369 OFFCURVE",
"659 1286 CURVE SMOOTH",
"640 1164 OFFCURVE",
"595 1067 OFFCURVE",
"523 992 CURVE SMOOTH",
"381 844 OFFCURVE",
"284 743 OFFCURVE",
"237 689 CURVE SMOOTH",
"58 484 OFFCURVE",
"-44 337 OFFCURVE",
"-84 84 CURVE SMOOTH"
);
}
);
width = 1012;
}
);
unicode = 0032;
userData = {
com.typemytype.robofont.layerData = {
};
public.markColor = "0.85,0.26,0.06,1";
};
},
{
glyphname = three;
lastChange = "2013-12-30 23:23:56 -0800";
layers = (
{
layerId = "6CD1E358-6E98-409F-9A1F-EA9DE4C1A8AA";
name = Regular;
paths = (
{
closed = 1;
nodes = (
"484 -20 CURVE SMOOTH",
"825 -20 OFFCURVE",
"961 178 OFFCURVE",
"961 530 CURVE SMOOTH",
"961 766 OFFCURVE",
"942 889 OFFCURVE",
"792 962 CURVE",
"918 1007 OFFCURVE",
"957 1122 OFFCURVE",
"957 1295 CURVE SMOOTH",
"957 1609 OFFCURVE",
"807 1763 OFFCURVE",
"507 1763 CURVE SMOOTH",
"196 1763 OFFCURVE",
"50 1618 OFFCURVE",
"48 1295 CURVE SMOOTH",
"50 1233 LINE",
"414 1233 LINE",
"414 1286 LINE",
"426 1369 OFFCURVE",
"415 1440 OFFCURVE",
"509 1440 CURVE SMOOTH",
"566 1440 OFFCURVE",
"595 1391 OFFCURVE",
"595 1291 CURVE SMOOTH",
"595 1164 OFFCURVE",
"529 1115 OFFCURVE",
"408 1115 CURVE",
"408 799 LINE",
"416 800 OFFCURVE",
"427 801 OFFCURVE",
"442 801 CURVE SMOOTH",
"560 801 OFFCURVE",
"592 695 OFFCURVE",
"592 574 CURVE SMOOTH",
"592 530 LINE SMOOTH",
"592 418 OFFCURVE",
"596 306 OFFCURVE",
"501 306 CURVE SMOOTH",
"414 306 OFFCURVE",
"400 380 OFFCURVE",
"400 473 CURVE SMOOTH",
"400 658 LINE",
"39 658 LINE",
"39 474 LINE SMOOTH",
"39 143 OFFCURVE",
"173 -20 OFFCURVE"
);
}
);
width = 1012;
},
{
layerId = "E8DA9D10-2326-4043-BA0A-F99E452091F3";
name = "Regular Italic";
paths = (
{
closed = 1;
nodes = (
"323 -20 CURVE SMOOTH",
"664 -20 OFFCURVE",
"831 178 OFFCURVE",
"887 530 CURVE SMOOTH",
"924 766 OFFCURVE",
"924 889 OFFCURVE",
"786 962 CURVE",
"919 1007 OFFCURVE",
"976 1122 OFFCURVE",
"1004 1295 CURVE SMOOTH",
"1053 1609 OFFCURVE",
"927 1763 OFFCURVE",
"627 1763 CURVE SMOOTH",
"316 1763 OFFCURVE",
"147 1618 OFFCURVE",
"95 1295 CURVE SMOOTH",
"86 1233 LINE",
"450 1233 LINE",
"458 1286 LINE",
"484 1369 OFFCURVE",
"484 1440 OFFCURVE",
"578 1440 CURVE SMOOTH",
"635 1440 OFFCURVE",
"656 1391 OFFCURVE",
"641 1291 CURVE SMOOTH",
"620 1164 OFFCURVE",
"546 1115 OFFCURVE",
"425 1115 CURVE",
"376 799 LINE",
"384 800 OFFCURVE",
"395 801 OFFCURVE",
"410 801 CURVE SMOOTH",
"528 801 OFFCURVE",
"544 695 OFFCURVE",
"524 574 CURVE SMOOTH",
"518 530 LINE SMOOTH",
"500 418 OFFCURVE",
"486 306 OFFCURVE",
"391 306 CURVE SMOOTH",
"304 306 OFFCURVE",
"302 380 OFFCURVE",
"317 473 CURVE SMOOTH",
"345 658 LINE",
"-16 658 LINE",
"-44 474 LINE SMOOTH",
"-97 143 OFFCURVE",
"12 -20 OFFCURVE"
);
}
);
width = 1012;
}
);
unicode = 0033;
userData = {
com.typemytype.robofont.layerData = {
};
public.markColor = "0.85,0.26,0.06,1";
};
},
{
glyphname = four;
lastChange = "2013-12-30 23:23:56 -0800";
layers = (
{
layerId = "6CD1E358-6E98-409F-9A1F-EA9DE4C1A8AA";
name = Regular;
paths = (
{
closed = 1;
nodes = (
"540 -1 LINE",
"899 -1 LINE",
"899 278 LINE",
"993 278 LINE",
"993 572 LINE",
"899 572 LINE",
"899 1761 LINE",
"351 1761 LINE",
"18 553 LINE",
"18 278 LINE",
"540 278 LINE"
);
},
{
closed = 1;
nodes = (
"332 572 LINE",
"540 1459 LINE",
"540 572 LINE"
);
}
);
width = 1012;
},
{
layerId = "E8DA9D10-2326-4043-BA0A-F99E452091F3";
name = "Regular Italic";
paths = (
{
closed = 1;
nodes = (
"382 -1 LINE",
"741 -1 LINE",
"785 278 LINE",
"879 278 LINE",
"925 572 LINE",
"831 572 LINE",
"1019 1761 LINE",
"471 1761 LINE",
"-52 553 LINE",
"-96 278 LINE",
"426 278 LINE"
);
},
{
closed = 1;
nodes = (
"264 572 LINE",
"612 1459 LINE",
"472 572 LINE"
);
}
);
width = 1012;
}
);
unicode = 0034;
userData = {
com.typemytype.robofont.layerData = {
};
public.markColor = "0.85,0.26,0.06,1";
};
},
{
glyphname = five;
lastChange = "2013-12-30 23:23:56 -0800";
layers = (
{
layerId = "6CD1E358-6E98-409F-9A1F-EA9DE4C1A8AA";
name = Regular;
paths = (
{
closed = 1;
nodes = (
"506 -25 CURVE SMOOTH",
"917 -25 OFFCURVE",
"977 245 OFFCURVE",
"977 668 CURVE SMOOTH",
"977 999 OFFCURVE",
"914 1264 OFFCURVE",
"594 1264 CURVE SMOOTH",
"514 1264 OFFCURVE",
"453 1226 OFFCURVE",
"419 1183 CURVE",
"419 1431 LINE",
"924 1431 LINE",
"924 1761 LINE",
"85 1761 LINE",
"85 825 LINE",
"408 825 LINE",
"408 922 OFFCURVE",
"441 970 OFFCURVE",
"508 970 CURVE SMOOTH",
"591 970 OFFCURVE",
"599 873 OFFCURVE",
"599 787 CURVE SMOOTH",
"599 441 LINE SMOOTH",
"599 361 OFFCURVE",
"582 304 OFFCURVE",
"506 304 CURVE SMOOTH",
"419 304 OFFCURVE",
"412 400 OFFCURVE",
"412 495 CURVE SMOOTH",
"412 646 LINE",
"46 646 LINE",
"46 384 LINE SMOOTH",
"46 107 OFFCURVE",
"235 -25 OFFCURVE"
);
}
);
width = 1012;
},
{
layerId = "E8DA9D10-2326-4043-BA0A-F99E452091F3";
name = "Regular Italic";
paths = (
{
closed = 1;
nodes = (
"345 -25 CURVE SMOOTH",
"756 -25 OFFCURVE",
"858 245 OFFCURVE",
"925 668 CURVE SMOOTH",
"976 999 OFFCURVE",
"956 1264 OFFCURVE",
"636 1264 CURVE SMOOTH",
"556 1264 OFFCURVE",
"488 1226 OFFCURVE",
"448 1183 CURVE",
"486 1431 LINE",
"991 1431 LINE",
"1044 1761 LINE",
"205 1761 LINE",
"57 825 LINE",
"380 825 LINE",
"396 922 OFFCURVE",
"436 970 OFFCURVE",
"503 970 CURVE SMOOTH",
"586 970 OFFCURVE",
"579 873 OFFCURVE",
"565 787 CURVE SMOOTH",
"511 441 LINE SMOOTH",
"498 361 OFFCURVE",
"472 304 OFFCURVE",
"396 304 CURVE SMOOTH",
"309 304 OFFCURVE",
"317 400 OFFCURVE",
"333 495 CURVE SMOOTH",
"356 646 LINE",
"-10 646 LINE",
"-51 384 LINE SMOOTH",
"-95 107 OFFCURVE",
"74 -25 OFFCURVE"
);
}
);
width = 1012;
}
);
unicode = 0035;
userData = {
com.typemytype.robofont.layerData = {
};
public.markColor = "0.85,0.26,0.06,1";
};
},
{
glyphname = six;
lastChange = "2013-12-30 23:23:56 -0800";
layers = (
{
layerId = "6CD1E358-6E98-409F-9A1F-EA9DE4C1A8AA";
name = Regular;
paths = (
{
closed = 1;
nodes = (
"529 -16 CURVE SMOOTH",
"873 -16 OFFCURVE",
"988 217 OFFCURVE",
"988 569 CURVE SMOOTH",
"988 916 OFFCURVE",
"916 1092 OFFCURVE",
"625 1092 CURVE SMOOTH",
"529 1092 OFFCURVE",
"461 1050 OFFCURVE",
"428 988 CURVE",
"428 1341 LINE SMOOTH",
"428 1422 OFFCURVE",
"454 1467 OFFCURVE",
"533 1467 CURVE SMOOTH",
"618 1467 OFFCURVE",
"621 1365 OFFCURVE",
"621 1277 CURVE SMOOTH",
"621 1241 LINE",
"960 1241 LINE",
"960 1431 LINE SMOOTH",
"960 1660 OFFCURVE",
"761 1776 OFFCURVE",
"539 1776 CURVE SMOOTH",
"106 1776 OFFCURVE",
"54 1512 OFFCURVE",
"54 1025 CURVE SMOOTH",
"54 549 LINE SMOOTH",
"54 172 OFFCURVE",
"162 -16 OFFCURVE"
);
},
{
closed = 1;
nodes = (
"516 308 CURVE SMOOTH",
"457 308 OFFCURVE",
"428 351 OFFCURVE",
"428 438 CURVE SMOOTH",
"428 656 LINE SMOOTH",
"428 739 OFFCURVE",
"459 781 OFFCURVE",
"521 781 CURVE SMOOTH",
"575 781 OFFCURVE",
"602 733 OFFCURVE",
"602 637 CURVE SMOOTH",
"602 495 LINE SMOOTH",
"602 386 OFFCURVE",
"599 308 OFFCURVE"
);
}
);
width = 1012;
},
{
layerId = "E8DA9D10-2326-4043-BA0A-F99E452091F3";
name = "Regular Italic";
paths = (
{
closed = 1;
nodes = (
"366 -16 CURVE SMOOTH",
"710 -16 OFFCURVE",
"863 217 OFFCURVE",
"918 569 CURVE SMOOTH",
"972 916 OFFCURVE",
"928 1092 OFFCURVE",
"637 1092 CURVE SMOOTH",
"541 1092 OFFCURVE",
"467 1050 OFFCURVE",
"423 988 CURVE",
"480 1341 LINE SMOOTH",
"493 1422 OFFCURVE",
"525 1467 OFFCURVE",
"604 1467 CURVE SMOOTH",
"689 1467 OFFCURVE",
"677 1365 OFFCURVE",
"663 1277 CURVE SMOOTH",
"656 1241 LINE",
"995 1241 LINE",
"1026 1431 LINE SMOOTH",
"1062 1660 OFFCURVE",
"881 1776 OFFCURVE",
"659 1776 CURVE SMOOTH",
"226 1776 OFFCURVE",
"133 1512 OFFCURVE",
"56 1025 CURVE SMOOTH",
"-20 549 LINE SMOOTH",
"-79 172 OFFCURVE",
"-1 -16 OFFCURVE"
);
},
{
closed = 1;
nodes = (
"405 308 CURVE SMOOTH",
"346 308 OFFCURVE",
"323 351 OFFCURVE",
"337 438 CURVE SMOOTH",
"371 656 LINE SMOOTH",
"385 739 OFFCURVE",
"422 781 OFFCURVE",
"484 781 CURVE SMOOTH",
"538 781 OFFCURVE",
"558 733 OFFCURVE",
"542 637 CURVE SMOOTH",
"520 495 LINE SMOOTH",
"502 386 OFFCURVE",
"488 308 OFFCURVE"
);
}
);
width = 1012;
}
);
unicode = 0036;
userData = {
com.typemytype.robofont.layerData = {
};
public.markColor = "0.85,0.26,0.06,1";
};
},
{
glyphname = seven;
lastChange = "2013-12-30 23:23:56 -0800";
layers = (
{
layerId = "6CD1E358-6E98-409F-9A1F-EA9DE4C1A8AA";
name = Regular;
paths = (
{
closed = 1;
nodes = (
"145 1 CURVE",
"543 1 LINE",
"566 368 OFFCURVE",
"653 676 OFFCURVE",
"758 946 CURVE SMOOTH",
"829 1129 OFFCURVE",
"936 1292 OFFCURVE",
"958 1499 CURVE",
"958 1761 LINE",
"70 1761 LINE",
"70 1435 LINE",
"567 1435 LINE",
"497 1252 LINE SMOOTH",
"356 883 OFFCURVE",
"177 492 OFFCURVE"
);
}
);
width = 1012;
},
{
layerId = "E8DA9D10-2326-4043-BA0A-F99E452091F3";
name = "Regular Italic";
paths = (
{
closed = 1;
nodes = (
"-12 1 CURVE",
"386 1 LINE",
"466 368 OFFCURVE",
"602 676 OFFCURVE",
"750 946 CURVE SMOOTH",
"849 1129 OFFCURVE",
"982 1292 OFFCURVE",
"1037 1499 CURVE",
"1078 1761 LINE",
"190 1761 LINE",
"139 1435 LINE",
"636 1435 LINE",
"537 1252 LINE SMOOTH",
"337 883 OFFCURVE",
"97 492 OFFCURVE"
);
}
);
width = 1012;
}
);
unicode = 0037;
userData = {
com.typemytype.robofont.layerData = {
};
public.markColor = "0.85,0.26,0.06,1";
};
},
{
glyphname = eight;
lastChange = "2013-12-30 23:23:56 -0800";
layers = (
{
layerId = "6CD1E358-6E98-409F-9A1F-EA9DE4C1A8AA";
name = Regular;
paths = (
{
closed = 1;
nodes = (
"506 -19 CURVE SMOOTH",
"837 -19 OFFCURVE",
"965 178 OFFCURVE",
"965 525 CURVE",
"966 535 OFFCURVE",
"966 550 OFFCURVE",
"966 569 CURVE SMOOTH",
"966 776 OFFCURVE",
"952 918 OFFCURVE",
"815 984 CURVE",
"934 1034 OFFCURVE",
"964 1152 OFFCURVE",
"964 1321 CURVE SMOOTH",
"964 1644 OFFCURVE",
"812 1782 OFFCURVE",
"506 1782 CURVE SMOOTH",
"207 1782 OFFCURVE",
"47 1647 OFFCURVE",
"47 1335 CURVE SMOOTH",
"47 1289 LINE SMOOTH",
"47 1135 OFFCURVE",
"88 1030 OFFCURVE",
"196 986 CURVE",
"81 927 OFFCURVE",
"46 820 OFFCURVE",
"46 642 CURVE SMOOTH",
"46 525 LINE SMOOTH",
"46 178 OFFCURVE",
"175 -19 OFFCURVE"
);
},
{
closed = 1;
nodes = (
"506 329 CURVE SMOOTH",
"442 329 OFFCURVE",
"410 387 OFFCURVE",
"410 503 CURVE SMOOTH",
"410 514 OFFCURVE",
"411 550 OFFCURVE",
"411 560 CURVE SMOOTH",
"411 575 LINE",
"404 674 OFFCURVE",
"415 815 OFFCURVE",
"506 815 CURVE SMOOTH",
"597 815 OFFCURVE",
"601 686 OFFCURVE",
"601 592 CURVE SMOOTH",
"601 571 OFFCURVE",
"602 525 OFFCURVE",
"602 503 CURVE SMOOTH",
"602 387 OFFCURVE",
"570 329 OFFCURVE"
);
},
{
closed = 1;
nodes = (
"506 1134 CURVE SMOOTH",
"444 1134 OFFCURVE",
"413 1190 OFFCURVE",
"413 1302 CURVE SMOOTH",
"413 1377 OFFCURVE",
"434 1458 OFFCURVE",
"506 1458 CURVE SMOOTH",
"578 1458 OFFCURVE",
"599 1377 OFFCURVE",
"599 1302 CURVE SMOOTH",
"599 1190 OFFCURVE",
"568 1134 OFFCURVE"
);
}
);
width = 1012;
},
{
layerId = "E8DA9D10-2326-4043-BA0A-F99E452091F3";
name = "Regular Italic";
paths = (
{
closed = 1;
nodes = (
"342 -19 CURVE SMOOTH",
"673 -19 OFFCURVE",
"832 178 OFFCURVE",
"887 525 CURVE",
"889 535 OFFCURVE",
"892 550 OFFCURVE",
"895 569 CURVE SMOOTH",
"927 776 OFFCURVE",
"936 918 OFFCURVE",
"809 984 CURVE",
"936 1034 OFFCURVE",
"985 1152 OFFCURVE",
"1011 1321 CURVE SMOOTH",
"1062 1644 OFFCURVE",
"932 1782 OFFCURVE",
"626 1782 CURVE SMOOTH",
"327 1782 OFFCURVE",
"145 1647 OFFCURVE",
"96 1335 CURVE SMOOTH",
"89 1289 LINE SMOOTH",
"65 1135 OFFCURVE",
"90 1030 OFFCURVE",
"190 986 CURVE",
"66 927 OFFCURVE",
"14 820 OFFCURVE",
"-14 642 CURVE SMOOTH",
"-32 525 LINE SMOOTH",
"-87 178 OFFCURVE",
"11 -19 OFFCURVE"
);
},
{
closed = 1;
nodes = (
"397 329 CURVE SMOOTH",
"333 329 OFFCURVE",
"310 387 OFFCURVE",
"328 503 CURVE SMOOTH",
"330 514 OFFCURVE",
"337 550 OFFCURVE",
"338 560 CURVE SMOOTH",
"341 575 LINE",
"349 674 OFFCURVE",
"382 815 OFFCURVE",
"473 815 CURVE SMOOTH",
"564 815 OFFCURVE",
"548 686 OFFCURVE",
"533 592 CURVE SMOOTH",
"530 571 OFFCURVE",
"524 525 OFFCURVE",
"520 503 CURVE SMOOTH",
"502 387 OFFCURVE",
"461 329 OFFCURVE"
);
},
{
closed = 1;
nodes = (
"523 1134 CURVE SMOOTH",
"461 1134 OFFCURVE",
"439 1190 OFFCURVE",
"457 1302 CURVE SMOOTH",
"469 1377 OFFCURVE",
"503 1458 OFFCURVE",
"575 1458 CURVE SMOOTH",
"647 1458 OFFCURVE",
"655 1377 OFFCURVE",
"643 1302 CURVE SMOOTH",
"625 1190 OFFCURVE",
"585 1134 OFFCURVE"
);
}
);
width = 1012;
}
);
unicode = 0038;
userData = {
com.typemytype.robofont.layerData = {
};
public.markColor = "0.85,0.26,0.06,1";
};
},
{
glyphname = nine;
lastChange = "2013-12-30 23:23:56 -0800";
layers = (
{
layerId = "6CD1E358-6E98-409F-9A1F-EA9DE4C1A8AA";
name = Regular;
paths = (
{
closed = 1;
nodes = (
"500 -16 CURVE SMOOTH",
"933 -16 OFFCURVE",
"985 248 OFFCURVE",
"985 735 CURVE SMOOTH",
"985 1211 LINE SMOOTH",
"985 1588 OFFCURVE",
"877 1776 OFFCURVE",
"510 1776 CURVE SMOOTH",
"166 1776 OFFCURVE",
"51 1543 OFFCURVE",
"51 1191 CURVE SMOOTH",
"51 844 OFFCURVE",
"123 668 OFFCURVE",
"414 668 CURVE SMOOTH",
"510 668 OFFCURVE",
"578 710 OFFCURVE",
"611 772 CURVE",
"611 419 LINE SMOOTH",
"611 338 OFFCURVE",
"585 293 OFFCURVE",
"506 293 CURVE SMOOTH",
"421 293 OFFCURVE",
"418 395 OFFCURVE",
"418 483 CURVE SMOOTH",
"418 519 LINE",
"79 519 LINE",
"79 329 LINE SMOOTH",
"79 100 OFFCURVE",
"278 -16 OFFCURVE"
);
},
{
closed = 1;
nodes = (
"518 979 CURVE SMOOTH",
"464 979 OFFCURVE",
"437 1027 OFFCURVE",
"437 1123 CURVE SMOOTH",
"437 1265 LINE SMOOTH",
"437 1374 OFFCURVE",
"440 1452 OFFCURVE",
"523 1452 CURVE SMOOTH",
"582 1452 OFFCURVE",
"611 1409 OFFCURVE",
"611 1322 CURVE SMOOTH",
"611 1104 LINE SMOOTH",
"611 1021 OFFCURVE",
"580 979 OFFCURVE"
);
}
);
width = 1033;
},
{
layerId = "E8DA9D10-2326-4043-BA0A-F99E452091F3";
name = "Regular Italic";
paths = (
{
closed = 1;
nodes = (
"337 -16 CURVE SMOOTH",
"770 -16 OFFCURVE",
"864 248 OFFCURVE",
"941 735 CURVE SMOOTH",
"1016 1211 LINE SMOOTH",
"1075 1588 OFFCURVE",
"997 1776 OFFCURVE",
"630 1776 CURVE SMOOTH",
"286 1776 OFFCURVE",
"134 1543 OFFCURVE",
"79 1191 CURVE SMOOTH",
"24 844 OFFCURVE",
"68 668 OFFCURVE",
"359 668 CURVE SMOOTH",
"455 668 OFFCURVE",
"530 710 OFFCURVE",
"573 772 CURVE",
"517 419 LINE SMOOTH",
"504 338 OFFCURVE",
"471 293 OFFCURVE",
"392 293 CURVE SMOOTH",
"307 293 OFFCURVE",
"320 395 OFFCURVE",
"334 483 CURVE SMOOTH",
"340 519 LINE",
"1 519 LINE",
"-30 329 LINE SMOOTH",
"-66 100 OFFCURVE",
"115 -16 OFFCURVE"
);
},
{
closed = 1;
nodes = (
"512 979 CURVE SMOOTH",
"458 979 OFFCURVE",
"439 1027 OFFCURVE",
"454 1123 CURVE SMOOTH",
"476 1265 LINE SMOOTH",
"494 1374 OFFCURVE",
"509 1452 OFFCURVE",
"592 1452 CURVE SMOOTH",
"651 1452 OFFCURVE",
"673 1409 OFFCURVE",
"659 1322 CURVE SMOOTH",
"625 1104 LINE SMOOTH",
"612 1021 OFFCURVE",
"574 979 OFFCURVE"
);
}
);
width = 1033;
}
);
unicode = 0039;
userData = {
com.typemytype.robofont.layerData = {
};
public.markColor = "0.85,0.26,0.06,1";
};
},
{
glyphname = onequarter;
lastChange = "2013-12-31 00:15:10 -0800";
layers = (
{
layerId = "6CD1E358-6E98-409F-9A1F-EA9DE4C1A8AA";
name = Regular;
paths = (
{
closed = 1;
nodes = (
"1133 -1 LINE",
"1340 -1 LINE",
"1340 151 LINE",
"1379 151 LINE",
"1379 322 LINE",
"1340 322 LINE",
"1340 941 LINE",
"1017 941 LINE",
"830 300 LINE",
"830 151 LINE",
"1133 151 LINE"
);
},
{
closed = 1;
nodes = (
"145 696 LINE",
"355 696 LINE",
"355 1647 LINE",
"196 1647 LINE",
"196 1585 OFFCURVE",
"80 1527 OFFCURVE",
"22 1527 CURVE",
"23 1523 OFFCURVE",
"24 1509 OFFCURVE",
"24 1484 CURVE SMOOTH",
"24 1453 OFFCURVE",
"23 1417 OFFCURVE",
"22 1374 CURVE",
"65 1374 OFFCURVE",
"106 1384 OFFCURVE",
"145 1404 CURVE"
);
},
{
closed = 1;
nodes = (
"297 0 LINE",
"480 0 LINE",
"1151 1767 LINE",
"867 1767 LINE"
);
},
{
closed = 1;
nodes = (
"993 322 LINE",
"1133 777 LINE",
"1133 322 LINE"
);
}
);
width = 1453;
},
{
layerId = "E8DA9D10-2326-4043-BA0A-F99E452091F3";
name = "Regular Italic";
paths = (
{
closed = 1;
nodes = (
"974 -1 LINE",
"1181 -1 LINE",
"1206 151 LINE",
"1245 151 LINE",
"1272 322 LINE",
"1233 322 LINE",
"1330 941 LINE",
"1007 941 LINE",
"719 300 LINE",
"696 151 LINE",
"999 151 LINE"
);
},
{
closed = 1;
nodes = (
"96 696 LINE",
"306 696 LINE",
"456 1647 LINE",
"297 1647 LINE",
"288 1585 OFFCURVE",
"163 1527 OFFCURVE",
"105 1527 CURVE",
"104 1523 OFFCURVE",
"103 1509 OFFCURVE",
"99 1484 CURVE SMOOTH",
"94 1453 OFFCURVE",
"88 1417 OFFCURVE",
"80 1374 CURVE",
"123 1374 OFFCURVE",
"166 1384 OFFCURVE",
"207 1404 CURVE"
);
},
{
closed = 1;
nodes = (
"124 0 LINE",
"307 0 LINE",
"1257 1767 LINE",
"973 1767 LINE"
);
},
{
closed = 1;
nodes = (
"886 322 LINE",
"1096 777 LINE",
"1026 322 LINE"
);
}
);
width = 1453;
}
);
unicode = 00BC;
userData = {
com.typemytype.robofont.layerData = {
};
public.markColor = "0.85,0.26,0.06,1";
};
},
{
glyphname = onehalf;
lastChange = "2013-12-31 00:15:16 -0800";
layers = (
{
layerId = "6CD1E358-6E98-409F-9A1F-EA9DE4C1A8AA";
name = Regular;
paths = (
{
closed = 1;
nodes = (
"960 -1 LINE",
"1479 -1 LINE",
"1479 182 LINE",
"1206 182 LINE",
"1296 355 OFFCURVE",
"1486 453 OFFCURVE",
"1486 712 CURVE SMOOTH",
"1486 879 OFFCURVE",
"1388 974 OFFCURVE",
"1223 974 CURVE SMOOTH",
"1012 974 OFFCURVE",
"958 864 OFFCURVE",
"958 646 CURVE SMOOTH",
"960 586 LINE",
"1170 586 LINE",
"1170 705 LINE SMOOTH",
"1170 763 OFFCURVE",
"1187 792 OFFCURVE",
"1221 792 CURVE SMOOTH",
"1256 792 OFFCURVE",
"1274 764 OFFCURVE",
"1274 709 CURVE SMOOTH",
"1274 640 OFFCURVE",
"1257 586 OFFCURVE",
"1223 546 CURVE SMOOTH",
"1088 383 OFFCURVE",
"960 258 OFFCURVE",
"960 46 CURVE SMOOTH"
);
},
{
closed = 1;
nodes = (
"145 696 LINE",
"355 696 LINE",
"355 1647 LINE",
"196 1647 LINE",
"196 1585 OFFCURVE",
"80 1527 OFFCURVE",
"22 1527 CURVE",
"23 1523 OFFCURVE",
"24 1509 OFFCURVE",
"24 1484 CURVE SMOOTH",
"24 1453 OFFCURVE",
"23 1417 OFFCURVE",
"22 1374 CURVE",
"65 1374 OFFCURVE",
"106 1384 OFFCURVE",
"145 1404 CURVE"
);
},
{
closed = 1;
nodes = (
"303 0 LINE",
"486 0 LINE",
"1157 1767 LINE",
"873 1767 LINE"
);
}
);
width = 1560;
},
{
layerId = "E8DA9D10-2326-4043-BA0A-F99E452091F3";
name = "Regular Italic";
paths = (
{
closed = 1;
nodes = (
"801 -1 LINE",
"1320 -1 LINE",
"1349 182 LINE",
"1076 182 LINE",
"1194 355 OFFCURVE",
"1399 453 OFFCURVE",
"1439 712 CURVE SMOOTH",
"1466 879 OFFCURVE",
"1383 974 OFFCURVE",
"1218 974 CURVE SMOOTH",
"1007 974 OFFCURVE",
"935 864 OFFCURVE",
"901 646 CURVE SMOOTH",
"894 586 LINE",
"1104 586 LINE",
"1123 705 LINE SMOOTH",
"1132 763 OFFCURVE",
"1153 792 OFFCURVE",
"1187 792 CURVE SMOOTH",
"1222 792 OFFCURVE",
"1236 764 OFFCURVE",
"1227 709 CURVE SMOOTH",
"1217 640 OFFCURVE",
"1191 586 OFFCURVE",
"1150 546 CURVE SMOOTH",
"990 383 OFFCURVE",
"842 258 OFFCURVE",
"809 46 CURVE SMOOTH"
);
},
{
closed = 1;
nodes = (
"96 696 LINE",
"306 696 LINE",
"456 1647 LINE",
"297 1647 LINE",
"288 1585 OFFCURVE",
"163 1527 OFFCURVE",
"105 1527 CURVE",
"104 1523 OFFCURVE",
"103 1509 OFFCURVE",
"99 1484 CURVE SMOOTH",
"94 1453 OFFCURVE",
"88 1417 OFFCURVE",
"80 1374 CURVE",
"123 1374 OFFCURVE",
"166 1384 OFFCURVE",
"207 1404 CURVE"
);
},
{
closed = 1;
nodes = (
"144 0 LINE",
"327 0 LINE",
"1277 1767 LINE",
"993 1767 LINE"
);
}
);
width = 1560;
}
);
unicode = 00BD;
userData = {
com.typemytype.robofont.layerData = {
};
public.markColor = "0.85,0.26,0.06,1";
};
},
{
glyphname = threequarters;
lastChange = "2013-12-31 00:15:24 -0800";
layers = (
{
layerId = "6CD1E358-6E98-409F-9A1F-EA9DE4C1A8AA";
name = Regular;
paths = (
{
closed = 1;
nodes = (
"279 635 CURVE SMOOTH",
"471 635 OFFCURVE",
"547 743 OFFCURVE",
"547 935 CURVE SMOOTH",
"547 1066 OFFCURVE",
"536 1132 OFFCURVE",
"452 1170 CURVE",
"522 1194 OFFCURVE",
"544 1258 OFFCURVE",
"544 1351 CURVE SMOOTH",
"544 1521 OFFCURVE",
"460 1606 OFFCURVE",
"292 1606 CURVE SMOOTH",
"118 1606 OFFCURVE",
"36 1532 OFFCURVE",
"35 1351 CURVE SMOOTH",
"36 1317 LINE",
"240 1317 LINE",
"243 1373 OFFCURVE",
"232 1430 OFFCURVE",
"293 1430 CURVE SMOOTH",
"325 1430 OFFCURVE",
"341 1403 OFFCURVE",
"341 1349 CURVE SMOOTH",
"341 1279 OFFCURVE",
"305 1254 OFFCURVE",
"236 1254 CURVE",
"236 1081 LINE",
"241 1082 OFFCURVE",
"247 1082 OFFCURVE",
"256 1082 CURVE SMOOTH",
"332 1082 OFFCURVE",
"340 1011 OFFCURVE",
"340 935 CURVE SMOOTH",
"340 865 OFFCURVE",
"340 813 OFFCURVE",
"289 813 CURVE SMOOTH",
"241 813 OFFCURVE",
"232 851 OFFCURVE",
"232 903 CURVE SMOOTH",
"232 1004 LINE",
"30 1004 LINE",
"30 904 LINE SMOOTH",
"30 725 OFFCURVE",
"105 635 OFFCURVE"
);
},
{
closed = 1;
nodes = (
"1273 -1 LINE",
"1480 -1 LINE",
"1480 151 LINE",
"1519 151 LINE",
"1519 322 LINE",
"1480 322 LINE",
"1480 941 LINE",
"1157 941 LINE",
"970 300 LINE",
"970 151 LINE",
"1273 151 LINE"
);
},
{
closed = 1;
nodes = (
"442 0 LINE",
"625 0 LINE",
"1296 1767 LINE",
"1012 1767 LINE"
);
},
{
closed = 1;
nodes = (
"1133 322 LINE",
"1273 777 LINE",
"1273 322 LINE"
);
}
);
width = 1580;
},
{
layerId = "E8DA9D10-2326-4043-BA0A-F99E452091F3";
name = "Regular Italic";
paths = (
{
closed = 1;
nodes = (
"220 635 CURVE SMOOTH",
"412 635 OFFCURVE",
"505 743 OFFCURVE",
"536 935 CURVE SMOOTH",
"557 1066 OFFCURVE",
"556 1132 OFFCURVE",
"478 1170 CURVE",
"552 1194 OFFCURVE",
"584 1258 OFFCURVE",
"598 1351 CURVE SMOOTH",
"625 1521 OFFCURVE",
"554 1606 OFFCURVE",
"386 1606 CURVE SMOOTH",
"212 1606 OFFCURVE",
"119 1532 OFFCURVE",
"89 1351 CURVE SMOOTH",
"85 1317 LINE",
"289 1317 LINE",
"301 1373 OFFCURVE",
"299 1430 OFFCURVE",
"360 1430 CURVE SMOOTH",
"392 1430 OFFCURVE",
"403 1403 OFFCURVE",
"395 1349 CURVE SMOOTH",
"384 1279 OFFCURVE",
"344 1254 OFFCURVE",
"275 1254 CURVE",
"248 1081 LINE",
"253 1082 OFFCURVE",
"259 1082 OFFCURVE",
"268 1082 CURVE SMOOTH",
"344 1082 OFFCURVE",
"341 1011 OFFCURVE",
"329 935 CURVE SMOOTH",
"318 865 OFFCURVE",
"310 813 OFFCURVE",
"259 813 CURVE SMOOTH",
"211 813 OFFCURVE",
"208 851 OFFCURVE",
"216 903 CURVE SMOOTH",
"231 1004 LINE",
"29 1004 LINE",
"14 904 LINE SMOOTH",
"-14 725 OFFCURVE",
"46 635 OFFCURVE"
);
},
{
closed = 1;
nodes = (
"1114 -1 LINE",
"1321 -1 LINE",
"1346 151 LINE",
"1385 151 LINE",
"1412 322 LINE",
"1373 322 LINE",
"1470 941 LINE",
"1147 941 LINE",
"859 300 LINE",
"836 151 LINE",
"1139 151 LINE"
);
},
{
closed = 1;
nodes = (
"264 0 LINE",
"447 0 LINE",
"1397 1767 LINE",
"1113 1767 LINE"
);
},
{
closed = 1;
nodes = (
"1026 322 LINE",
"1236 777 LINE",
"1166 322 LINE"
);
}
);
width = 1580;
}
);
unicode = 00BE;
userData = {
com.typemytype.robofont.layerData = {
};
public.markColor = "0.85,0.26,0.06,1";
};
},
{
glyphname = underscore;
lastChange = "2013-12-31 00:17:30 -0800";
layers = (
{
layerId = "6CD1E358-6E98-409F-9A1F-EA9DE4C1A8AA";
name = Regular;
paths = (
{
closed = 1;
nodes = (
"49 -362 LINE",
"700 -362 LINE",
"700 -130 LINE",
"49 -130 LINE"
);
}
);
width = 748;
},
{
layerId = "E8DA9D10-2326-4043-BA0A-F99E452091F3";
name = "Regular Italic";
paths = (
{
closed = 1;
nodes = (
"-126 -342 LINE",
"525 -342 LINE",
"561 -110 LINE",
"-90 -110 LINE"
);
}
);
width = 748;
}
);
unicode = 005F;
userData = {
com.typemytype.robofont.layerData = {
};
public.markColor = "0.85,0.26,0.06,1";
};
},
{
glyphname = hyphen;
lastChange = "2013-12-31 00:20:37 -0800";
layers = (
{
anchors = (
{
name = _mid;
position = "{328, 628}";
}
);
layerId = "6CD1E358-6E98-409F-9A1F-EA9DE4C1A8AA";
name = Regular;
paths = (
{
closed = 1;
nodes = (
"60 509 LINE",
"576 509 LINE",
"576 741 LINE",
"60 741 LINE"
);
}
);
width = 637;
},
{
anchors = (
{
name = _mid;
position = "{300, 628}";
}
);
layerId = "E8DA9D10-2326-4043-BA0A-F99E452091F3";
name = "Regular Italic";
paths = (
{
closed = 1;
nodes = (
"14 509 LINE",
"530 509 LINE",
"566 741 LINE",
"50 741 LINE"
);
}
);
width = 637;
}
);
unicode = 002D;
userData = {
com.typemytype.robofont.layerData = {
};
public.markColor = "0.85,0.26,0.06,1";
};
},
{
glyphname = endash;
lastChange = "2013-12-31 00:20:42 -0800";
layers = (
{
layerId = "6CD1E358-6E98-409F-9A1F-EA9DE4C1A8AA";
name = Regular;
paths = (
{
closed = 1;
nodes = (
"60 509 LINE",
"576 509 LINE",
"576 741 LINE",
"60 741 LINE"
);
}
);
width = 637;
},
{
layerId = "E8DA9D10-2326-4043-BA0A-F99E452091F3";
name = "Regular Italic";
paths = (
{
closed = 1;
nodes = (
"24 509 LINE",
"540 509 LINE",
"576 741 LINE",
"60 741 LINE"
);
}
);
width = 637;
}
);
unicode = 2013;
userData = {
com.typemytype.robofont.layerData = {
};
public.markColor = "0.85,0.26,0.06,1";
};
},
{
glyphname = emdash;
lastChange = "2013-12-31 00:20:53 -0800";
layers = (
{
layerId = "6CD1E358-6E98-409F-9A1F-EA9DE4C1A8AA";
name = Regular;
paths = (
{
closed = 1;
nodes = (
"60 509 LINE",
"1092 509 LINE",
"1092 741 LINE",
"60 741 LINE"
);
}
);
width = 1153;
},
{
layerId = "E8DA9D10-2326-4043-BA0A-F99E452091F3";
name = "Regular Italic";
paths = (
{
closed = 1;
nodes = (
"21 509 LINE",
"1053 509 LINE",
"1089 741 LINE",
"57 741 LINE"
);
}
);
width = 1153;
}
);
unicode = 2014;
userData = {
com.typemytype.robofont.layerData = {
};
public.markColor = "0.85,0.26,0.06,1";
};
},
{
glyphname = parenleft;
lastChange = "2013-12-30 23:23:56 -0800";
layers = (
{
layerId = "6CD1E358-6E98-409F-9A1F-EA9DE4C1A8AA";
name = Regular;
paths = (
{
closed = 1;
nodes = (
"560 -17 CURVE",
"560 268 LINE",
"481 289 OFFCURVE",
"421 350 OFFCURVE",
"421 450 CURVE SMOOTH",
"421 1297 LINE SMOOTH",
"421 1415 OFFCURVE",
"459 1476 OFFCURVE",
"560 1494 CURVE",
"560 1761 LINE",
"215 1751 OFFCURVE",
"49 1546 OFFCURVE",
"49 1183 CURVE SMOOTH",
"49 562 LINE SMOOTH",
"49 227 OFFCURVE",
"244 -4 OFFCURVE"
);
}
);
width = 596;
},
{
layerId = "E8DA9D10-2326-4043-BA0A-F99E452091F3";
name = "Regular Italic";
paths = (
{
closed = 1;
nodes = (
"400 -17 CURVE",
"445 268 LINE",
"369 289 OFFCURVE",
"319 350 OFFCURVE",
"334 450 CURVE SMOOTH",
"468 1297 LINE SMOOTH",
"487 1415 OFFCURVE",
"534 1476 OFFCURVE",
"638 1494 CURVE",
"680 1761 LINE",
"334 1751 OFFCURVE",
"135 1546 OFFCURVE",
"78 1183 CURVE SMOOTH",
"-20 562 LINE SMOOTH",
"-73 227 OFFCURVE",
"85 -4 OFFCURVE"
);
}
);
width = 596;
}
);
unicode = 0028;
userData = {
com.typemytype.robofont.layerData = {
};
public.markColor = "0.85,0.26,0.06,1";
};
},
{
glyphname = bracketleft;
lastChange = "2013-12-30 23:23:56 -0800";
layers = (
{
layerId = "6CD1E358-6E98-409F-9A1F-EA9DE4C1A8AA";
name = Regular;
paths = (
{
closed = 1;
nodes = (
"62 0 LINE",
"616 0 LINE",
"616 281 LINE",
"414 281 LINE",
"414 1480 LINE",
"616 1480 LINE",
"616 1761 LINE",
"62 1761 LINE"
);
}
);
width = 651;
},
{
layerId = "E8DA9D10-2326-4043-BA0A-F99E452091F3";
name = "Regular Italic";
paths = (
{
closed = 1;
nodes = (
"-95 0 LINE",
"459 0 LINE",
"502 281 LINE",
"300 281 LINE",
"489 1480 LINE",
"691 1480 LINE",
"736 1761 LINE",
"182 1761 LINE"
);
}
);
width = 651;
}
);
unicode = 005B;
userData = {
com.typemytype.robofont.layerData = {
};
public.markColor = "0.85,0.26,0.06,1";
};
},
{
glyphname = braceleft;
lastChange = "2013-12-31 00:13:43 -0800";
layers = (
{
layerId = "6CD1E358-6E98-409F-9A1F-EA9DE4C1A8AA";
name = Regular;
paths = (
{
closed = 1;
nodes = (
"522 1472 LINE SMOOTH",
"522 1543 OFFCURVE",
"589 1551 OFFCURVE",
"661 1556 CURVE",
"661 1823 LINE",
"281 1815 OFFCURVE",
"170 1734 OFFCURVE",
"170 1455 CURVE SMOOTH",
"170 1120 LINE SMOOTH",
"170 987 OFFCURVE",
"153 930 OFFCURVE",
"31 916 CURVE",
"31 719 LINE",
"153 705 OFFCURVE",
"170 648 OFFCURVE",
"170 515 CURVE SMOOTH",
"170 180 LINE SMOOTH",
"170 -99 OFFCURVE",
"281 -180 OFFCURVE",
"661 -188 CURVE",
"661 79 LINE",
"589 84 OFFCURVE",
"522 92 OFFCURVE",
"522 163 CURVE SMOOTH",
"522 538 LINE SMOOTH",
"522 731.741 OFFCURVE",
"418.386 791.24 OFFCURVE",
"304.27 817.5 CURVE",
"418.386 843.76 OFFCURVE",
"522 903.259 OFFCURVE",
"522 1097 CURVE SMOOTH"
);
}
);
width = 696;
},
{
layerId = "E8DA9D10-2326-4043-BA0A-F99E452091F3";
name = "Regular Italic";
paths = (
{
closed = 1;
nodes = (
"619 1472 LINE SMOOTH",
"632 1543 OFFCURVE",
"700 1551 OFFCURVE",
"773 1556 CURVE",
"820 1823 LINE",
"439 1815 OFFCURVE",
"314 1734 OFFCURVE",
"264 1455 CURVE SMOOTH",
"205 1120 LINE SMOOTH",
"182 987 OFFCURVE",
"155 930 OFFCURVE",
"30 916 CURVE",
"-4 719 LINE",
"115 705 OFFCURVE",
"122 648 OFFCURVE",
"99 515 CURVE SMOOTH",
"40 180 LINE SMOOTH",
"-10 -99 OFFCURVE",
"87 -180 OFFCURVE",
"466 -188 CURVE",
"513 79 LINE",
"442 84 OFFCURVE",
"376 92 OFFCURVE",
"389 163 CURVE SMOOTH",
"455 538 LINE SMOOTH",
"489 732 OFFCURVE",
"396 791 OFFCURVE",
"286 818 CURVE",
"405 844 OFFCURVE",
"519 903 OFFCURVE",
"553 1097 CURVE SMOOTH"
);
}
);
width = 756.003;
}
);
unicode = 007B;
userData = {
com.typemytype.robofont.layerData = {
};
public.markColor = "0.85,0.26,0.06,1";
};
},
{
glyphname = quotesinglbase;
lastChange = "2013-12-31 00:20:57 -0800";
layers = (
{
layerId = "6CD1E358-6E98-409F-9A1F-EA9DE4C1A8AA";
name = Regular;
paths = (
{
closed = 1;
nodes = (
"116 -236 LINE",
"327 -236 LINE",
"429 9 LINE",
"429 298 LINE",
"55 298 LINE",
"55 0 LINE",
"182 0 LINE"
);
}
);
width = 484;
},
{
layerId = "E8DA9D10-2326-4043-BA0A-F99E452091F3";
name = "Regular Italic";
paths = (
{
closed = 1;
nodes = (
"-49 -236 LINE",
"162 -236 LINE",
"304 9 LINE",
"349 298 LINE",
"-25 298 LINE",
"-72 0 LINE",
"55 0 LINE"
);
}
);
width = 484;
}
);
unicode = 201A;
userData = {
com.typemytype.robofont.layerData = {
};
public.markColor = "0.85,0.26,0.06,1";
};
},
{
glyphname = quotedblbase;
lastChange = "2013-12-31 00:21:03 -0800";
layers = (
{
layerId = "6CD1E358-6E98-409F-9A1F-EA9DE4C1A8AA";
name = Regular;
paths = (
{
closed = 1;
nodes = (
"116 -236 LINE",
"327 -236 LINE",
"429 9 LINE",
"429 298 LINE",
"55 298 LINE",
"55 0 LINE",
"182 0 LINE"
);
},
{
closed = 1;
nodes = (
"589 -236 LINE",
"800 -236 LINE",
"902 9 LINE",
"902 298 LINE",
"528 298 LINE",
"528 0 LINE",
"655 0 LINE"
);
}
);
width = 957;
},
{
layerId = "E8DA9D10-2326-4043-BA0A-F99E452091F3";
name = "Regular Italic";
paths = (
{
closed = 1;
nodes = (
"-29 -236 LINE",
"182 -236 LINE",
"324 9 LINE",
"369 298 LINE",
"-5 298 LINE",
"-52 0 LINE",
"75 0 LINE"
);
},
{
closed = 1;
nodes = (
"444 -236 LINE",
"655 -236 LINE",
"797 9 LINE",
"842 298 LINE",
"468 298 LINE",
"421 0 LINE",
"548 0 LINE"
);
}
);
width = 957;
}
);
unicode = 201E;
userData = {
com.typemytype.robofont.layerData = {
};
public.markColor = "0.85,0.26,0.06,1";
};
},
{
glyphname = parenright;
lastChange = "2013-12-30 23:23:56 -0800";
layers = (
{
layerId = "6CD1E358-6E98-409F-9A1F-EA9DE4C1A8AA";
name = Regular;
paths = (
{
closed = 1;
nodes = (
"36 -17 LINE",
"352 -4 OFFCURVE",
"547 225 OFFCURVE",
"547 562 CURVE SMOOTH",
"547 1183 LINE SMOOTH",
"547 1546 OFFCURVE",
"381 1751 OFFCURVE",
"36 1761 CURVE",
"36 1494 LINE",
"137 1476 OFFCURVE",
"175 1415 OFFCURVE",
"175 1297 CURVE SMOOTH",
"175 450 LINE SMOOTH",
"175 350 OFFCURVE",
"115 289 OFFCURVE",
"36 268 CURVE"
);
}
);
width = 596;
},
{
layerId = "E8DA9D10-2326-4043-BA0A-F99E452091F3";
name = "Regular Italic";
paths = (
{
closed = 1;
nodes = (
"-124 -17 LINE",
"193 -4 OFFCURVE",
"424 225 OFFCURVE",
"478 562 CURVE SMOOTH",
"576 1183 LINE SMOOTH",
"633 1546 OFFCURVE",
"500 1751 OFFCURVE",
"156 1761 CURVE",
"114 1494 LINE",
"212 1476 OFFCURVE",
"241 1415 OFFCURVE",
"222 1297 CURVE SMOOTH",
"88 450 LINE SMOOTH",
"73 350 OFFCURVE",
"3 289 OFFCURVE",
"-79 268 CURVE"
);
}
);
width = 596;
}
);
unicode = 0029;
userData = {
com.typemytype.robofont.layerData = {
};
public.markColor = "0.85,0.26,0.06,1";
};
},
{
glyphname = bracketright;
lastChange = "2013-12-30 23:23:56 -0800";
layers = (
{
layerId = "6CD1E358-6E98-409F-9A1F-EA9DE4C1A8AA";
name = Regular;
paths = (
{
closed = 1;
nodes = (
"35 0 LINE",
"589 0 LINE",
"589 1761 LINE",
"35 1761 LINE",
"35 1480 LINE",
"237 1480 LINE",
"237 281 LINE",
"35 281 LINE"
);
}
);
width = 651;
},
{
layerId = "E8DA9D10-2326-4043-BA0A-F99E452091F3";
name = "Regular Italic";
paths = (
{
closed = 1;
nodes = (
"-122 0 LINE",
"432 0 LINE",
"709 1761 LINE",
"155 1761 LINE",
"110 1480 LINE",
"312 1480 LINE",
"123 281 LINE",
"-79 281 LINE"
);
}
);
width = 651;
}
);
unicode = 005D;
userData = {
com.typemytype.robofont.layerData = {
};
public.markColor = "0.85,0.26,0.06,1";
};
},
{
glyphname = braceright;
lastChange = "2013-12-31 00:14:15 -0800";
layers = (
{
layerId = "6CD1E358-6E98-409F-9A1F-EA9DE4C1A8AA";
name = Regular;
paths = (
{
closed = 1;
nodes = (
"179 903 OFFCURVE",
"283 844 OFFCURVE",
"397 818 CURVE",
"283 791 OFFCURVE",
"179 732 OFFCURVE",
"179 538 CURVE SMOOTH",
"179 163 LINE SMOOTH",
"179 92 OFFCURVE",
"112 84 OFFCURVE",
"40 79 CURVE",
"40 -188 LINE",
"420 -180 OFFCURVE",
"531 -99 OFFCURVE",
"531 180 CURVE SMOOTH",
"531 515 LINE SMOOTH",
"531 648 OFFCURVE",
"548 705 OFFCURVE",
"670 719 CURVE",
"670 916 LINE",
"548 930 OFFCURVE",
"531 987 OFFCURVE",
"531 1120 CURVE SMOOTH",
"531 1455 LINE SMOOTH",
"531 1734 OFFCURVE",
"420 1815 OFFCURVE",
"40 1823 CURVE",
"40 1556 LINE",
"112 1551 OFFCURVE",
"179 1543 OFFCURVE",
"179 1472 CURVE SMOOTH",
"179 1097 LINE SMOOTH"
);
}
);
width = 697;
},
{
layerId = "E8DA9D10-2326-4043-BA0A-F99E452091F3";
name = "Regular Italic";
paths = (
{
closed = 1;
nodes = (
"174 903 OFFCURVE",
"268 844 OFFCURVE",
"377 818 CURVE",
"258 791 OFFCURVE",
"144 732 OFFCURVE",
"110 538 CURVE SMOOTH",
"44 163 LINE SMOOTH",
"31 92 OFFCURVE",
"-37 84 OFFCURVE",
"-110 79 CURVE",
"-157 -188 LINE",
"224 -180 OFFCURVE",
"349 -99 OFFCURVE",
"399 180 CURVE SMOOTH",
"458 515 LINE SMOOTH",
"481 648 OFFCURVE",
"508 705 OFFCURVE",
"633 719 CURVE",
"667 916 LINE",
"548 930 OFFCURVE",
"541 987 OFFCURVE",
"564 1120 CURVE SMOOTH",
"623 1455 LINE SMOOTH",
"673 1734 OFFCURVE",
"576 1815 OFFCURVE",
"197 1823 CURVE",
"150 1556 LINE",
"221 1551 OFFCURVE",
"287 1543 OFFCURVE",
"274 1472 CURVE SMOOTH",
"208 1097 LINE SMOOTH"
);
}
);
width = 697;
}
);
unicode = 007D;
userData = {
com.typemytype.robofont.layerData = {
};
public.markColor = "0.85,0.26,0.06,1";
};
},
{
glyphname = quoteleft;
lastChange = "2013-12-30 23:23:56 -0800";
layers = (
{
layerId = "6CD1E358-6E98-409F-9A1F-EA9DE4C1A8AA";
name = Regular;
paths = (
{
closed = 1;
nodes = (
"54 1226 LINE",
"428 1226 LINE",
"428 1524 LINE",
"301 1524 LINE",
"367 1760 LINE",
"156 1760 LINE",
"54 1515 LINE"
);
}
);
width = 481;
},
{
layerId = "E8DA9D10-2326-4043-BA0A-F99E452091F3";
name = "Regular Italic";
paths = (
{
closed = 1;
nodes = (
"89 1226 LINE",
"463 1226 LINE",
"511 1524 LINE",
"384 1524 LINE",
"487 1760 LINE",
"276 1760 LINE",
"135 1515 LINE"
);
}
);
width = 481;
}
);
unicode = 2018;
userData = {
com.typemytype.robofont.layerData = {
};
public.markColor = "0.85,0.26,0.06,1";
};
},
{
glyphname = quotedblleft;
lastChange = "2013-12-30 23:23:56 -0800";
layers = (
{
layerId = "6CD1E358-6E98-409F-9A1F-EA9DE4C1A8AA";
name = Regular;
paths = (
{
closed = 1;
nodes = (
"54 1226 LINE",
"428 1226 LINE",
"428 1524 LINE",
"301 1524 LINE",
"367 1760 LINE",
"156 1760 LINE",
"54 1515 LINE"
);
},
{
closed = 1;
nodes = (
"523 1226 LINE",
"897 1226 LINE",
"897 1524 LINE",
"770 1524 LINE",
"836 1760 LINE",
"625 1760 LINE",
"523 1515 LINE"
);
}
);
width = 950;
},
{
layerId = "E8DA9D10-2326-4043-BA0A-F99E452091F3";
name = "Regular Italic";
paths = (
{
closed = 1;
nodes = (
"89 1226 LINE",
"463 1226 LINE",
"511 1524 LINE",
"384 1524 LINE",
"487 1760 LINE",
"276 1760 LINE",
"135 1515 LINE"
);
},
{
closed = 1;
nodes = (
"558 1226 LINE",
"932 1226 LINE",
"980 1524 LINE",
"853 1524 LINE",
"956 1760 LINE",
"745 1760 LINE",
"604 1515 LINE"
);
}
);
width = 950;
}
);
unicode = 201C;
userData = {
com.typemytype.robofont.layerData = {
};
public.markColor = "0.85,0.26,0.06,1";
};
},
{
glyphname = guilsinglleft;
lastChange = "2013-12-30 23:23:56 -0800";
layers = (
{
layerId = "6CD1E358-6E98-409F-9A1F-EA9DE4C1A8AA";
name = Regular;
paths = (
{
closed = 1;
nodes = (
"548 260 LINE",
"548 618 LINE",
"236 749 LINE",
"548 871 LINE",
"548 1230 LINE",
"38 959 LINE",
"38 545 LINE"
);
}
);
width = 606;
},
{
layerId = "E8DA9D10-2326-4043-BA0A-F99E452091F3";
name = "Regular Italic";
paths = (
{
closed = 1;
nodes = (
"515 260 LINE",
"572 618 LINE",
"280 749 LINE",
"611 871 LINE",
"668 1230 LINE",
"116 959 LINE",
"50 545 LINE"
);
}
);
width = 606;
}
);
unicode = 2039;
userData = {
com.typemytype.robofont.layerData = {
};
public.markColor = "0.85,0.26,0.06,1";
};
},
{
glyphname = quoteright;
lastChange = "2013-12-30 23:23:56 -0800";
layers = (
{
layerId = "6CD1E358-6E98-409F-9A1F-EA9DE4C1A8AA";
name = Regular;
paths = (
{
closed = 1;
nodes = (
"111 1244 LINE",
"322 1244 LINE",
"424 1489 LINE",
"424 1778 LINE",
"50 1778 LINE",
"50 1480 LINE",
"177 1480 LINE"
);
}
);
width = 475;
},
{
layerId = "E8DA9D10-2326-4043-BA0A-F99E452091F3";
name = "Regular Italic";
paths = (
{
closed = 1;
nodes = (
"146 1244 LINE",
"357 1244 LINE",
"499 1489 LINE",
"544 1778 LINE",
"170 1778 LINE",
"123 1480 LINE",
"250 1480 LINE"
);
}
);
width = 475;
}
);
unicode = 2019;
userData = {
com.typemytype.robofont.layerData = {
};
public.markColor = "0.85,0.26,0.06,1";
};
},
{
glyphname = quotedblright;
lastChange = "2013-12-30 23:23:56 -0800";
layers = (
{
layerId = "6CD1E358-6E98-409F-9A1F-EA9DE4C1A8AA";
name = Regular;
paths = (
{
closed = 1;
nodes = (
"111 1226 LINE",
"322 1226 LINE",
"424 1471 LINE",
"424 1760 LINE",
"50 1760 LINE",
"50 1462 LINE",
"177 1462 LINE"
);
},
{
closed = 1;
nodes = (
"584 1226 LINE",
"795 1226 LINE",
"897 1471 LINE",
"897 1760 LINE",
"523 1760 LINE",
"523 1462 LINE",
"650 1462 LINE"
);
}
);
width = 948;
},
{
layerId = "E8DA9D10-2326-4043-BA0A-F99E452091F3";
name = "Regular Italic";
paths = (
{
closed = 1;
nodes = (
"146 1226 LINE",
"357 1226 LINE",
"499 1471 LINE",
"544 1760 LINE",
"170 1760 LINE",
"123 1462 LINE",
"250 1462 LINE"
);
},
{
closed = 1;
nodes = (
"619 1226 LINE",
"830 1226 LINE",
"972 1471 LINE",
"1017 1760 LINE",
"643 1760 LINE",
"596 1462 LINE",
"723 1462 LINE"
);
}
);
width = 948;
}
);
unicode = 201D;
userData = {
com.typemytype.robofont.layerData = {
};
public.markColor = "0.85,0.26,0.06,1";
};
},
{
glyphname = guilsinglright;
lastChange = "2013-12-30 23:23:56 -0800";
layers = (
{
layerId = "6CD1E358-6E98-409F-9A1F-EA9DE4C1A8AA";
name = Regular;
paths = (
{
closed = 1;
nodes = (
"58 260 LINE",
"568 545 LINE",
"568 959 LINE",
"58 1230 LINE",
"58 871 LINE",
"370 749 LINE",
"58 618 LINE"
);
}
);
width = 607;
},
{
layerId = "E8DA9D10-2326-4043-BA0A-F99E452091F3";
name = "Regular Italic";
paths = (
{
closed = 1;
nodes = (
"25 260 LINE",
"580 545 LINE",
"646 959 LINE",
"178 1230 LINE",
"121 871 LINE",
"414 749 LINE",
"82 618 LINE"
);
}
);
width = 607;
}
);
unicode = 203A;
userData = {
com.typemytype.robofont.layerData = {
};
public.markColor = "0.85,0.26,0.06,1";
};
},
{
glyphname = exclam;
lastChange = "2013-12-31 00:21:13 -0800";
layers = (
{
layerId = "6CD1E358-6E98-409F-9A1F-EA9DE4C1A8AA";
name = Regular;
paths = (
{
closed = 1;
nodes = (
"55 1 LINE",
"413 1 LINE",
"413 299 LINE",
"55 299 LINE"
);
},
{
closed = 1;
nodes = (
"125 479 LINE",
"343 479 LINE",
"413 1760 LINE",
"55 1760 LINE"
);
}
);
width = 469;
},
{
layerId = "E8DA9D10-2326-4043-BA0A-F99E452091F3";
name = "Regular Italic";
paths = (
{
closed = 1;
nodes = (
"-82 1 LINE",
"276 1 LINE",
"323 299 LINE",
"-35 299 LINE"
);
},
{
closed = 1;
nodes = (
"63 479 LINE",
"281 479 LINE",
"553 1760 LINE",
"195 1760 LINE"
);
}
);
width = 469;
}
);
unicode = 0021;
userData = {
com.typemytype.robofont.layerData = {
};
public.markColor = "0.85,0.26,0.06,1";
};
},
{
glyphname = quotedbl;
lastChange = "2013-12-30 23:23:56 -0800";
layers = (
{
layerId = "6CD1E358-6E98-409F-9A1F-EA9DE4C1A8AA";
name = Regular;
paths = (
{
closed = 1;
nodes = (
"141 1124 LINE",
"317 1124 LINE",
"393 1760 LINE",
"41 1760 LINE"
);
},
{
closed = 1;
nodes = (
"581 1124 LINE",
"757 1124 LINE",
"833 1760 LINE",
"481 1760 LINE"
);
}
);
width = 878;
},
{
layerId = "E8DA9D10-2326-4043-BA0A-F99E452091F3";
name = "Regular Italic";
paths = (
{
closed = 1;
nodes = (
"161 1124 LINE",
"337 1124 LINE",
"513 1760 LINE",
"161 1760 LINE"
);
},
{
closed = 1;
nodes = (
"601 1124 LINE",
"777 1124 LINE",
"953 1760 LINE",
"601 1760 LINE"
);
}
);
width = 878;
}
);
unicode = 0022;
userData = {
com.typemytype.robofont.layerData = {
};
public.markColor = "0.85,0.26,0.06,1";
};
},
{
glyphname = numbersign;
lastChange = "2013-12-30 23:23:56 -0800";
layers = (
{
layerId = "6CD1E358-6E98-409F-9A1F-EA9DE4C1A8AA";
name = Regular;
paths = (
{
closed = 1;
nodes = (
"38 0 LINE",
"321 0 LINE",
"420 509 LINE",
"587 509 LINE",
"488 0 LINE",
"771 0 LINE",
"870 509 LINE",
"1024 509 LINE",
"1024 741 LINE",
"916 741 LINE",
"944 886 LINE",
"1082 886 LINE",
"1082 1118 LINE",
"989 1118 LINE",
"1082 1593 LINE",
"798 1593 LINE",
"705 1118 LINE",
"539 1118 LINE",
"632 1593 LINE",
"348 1593 LINE",
"255 1118 LINE",
"100 1118 LINE",
"100 886 LINE",
"210 886 LINE",
"182 741 LINE",
"42 741 LINE",
"42 509 LINE",
"137 509 LINE"
);
},
{
closed = 1;
nodes = (
"466 741 LINE",
"494 886 LINE",
"660 886 LINE",
"632 741 LINE"
);
}
);
width = 1119;
},
{
layerId = "E8DA9D10-2326-4043-BA0A-F99E452091F3";
name = "Regular Italic";
paths = (
{
closed = 1;
nodes = (
"-94 0 LINE",
"189 0 LINE",
"369 509 LINE",
"536 509 LINE",
"356 0 LINE",
"639 0 LINE",
"819 509 LINE",
"973 509 LINE",
"1009 741 LINE",
"901 741 LINE",
"952 886 LINE",
"1090 886 LINE",
"1127 1118 LINE",
"1034 1118 LINE",
"1202 1593 LINE",
"918 1593 LINE",
"750 1118 LINE",
"584 1118 LINE",
"752 1593 LINE",
"468 1593 LINE",
"300 1118 LINE",
"145 1118 LINE",
"108 886 LINE",
"218 886 LINE",
"167 741 LINE",
"27 741 LINE",
"-9 509 LINE",
"86 509 LINE"
);
},
{
closed = 1;
nodes = (
"451 741 LINE",
"502 886 LINE",
"668 886 LINE",
"617 741 LINE"
);
}
);
width = 1119;
}
);
unicode = 0023;
userData = {
com.typemytype.robofont.layerData = {
};
public.markColor = "0.85,0.26,0.06,1";
};
},
{
glyphname = percent;
lastChange = "2013-12-30 23:23:56 -0800";
layers = (
{
layerId = "6CD1E358-6E98-409F-9A1F-EA9DE4C1A8AA";
name = Regular;
paths = (
{
closed = 1;
nodes = (
"433 790 CURVE SMOOTH",
"381 790 OFFCURVE",
"340 833 OFFCURVE",
"340 889 CURVE SMOOTH",
"340 1375 LINE SMOOTH",
"340 1452 OFFCURVE",
"355 1502 OFFCURVE",
"433 1502 CURVE SMOOTH",
"511 1502 OFFCURVE",
"526 1453 OFFCURVE",
"526 1375 CURVE SMOOTH",
"526 889 LINE SMOOTH",
"526 833 OFFCURVE",
"485 790 OFFCURVE"
);
},
{
closed = 1;
nodes = (
"433 528 CURVE SMOOTH",
"682 528 OFFCURVE",
"825 693 OFFCURVE",
"825 948 CURVE SMOOTH",
"825 1311 LINE SMOOTH",
"825 1580 OFFCURVE",
"696 1729 OFFCURVE",
"433 1729 CURVE SMOOTH",
"170 1729 OFFCURVE",
"42 1580 OFFCURVE",
"42 1311 CURVE SMOOTH",
"42 948 LINE SMOOTH",
"42 693 OFFCURVE",
"185 528 OFFCURVE"
);
},
{
closed = 1;
nodes = (
"1730 244 CURVE SMOOTH",
"1678 244 OFFCURVE",
"1637 287 OFFCURVE",
"1637 343 CURVE SMOOTH",
"1637 829 LINE SMOOTH",
"1637 906 OFFCURVE",
"1652 956 OFFCURVE",
"1730 956 CURVE SMOOTH",
"1808 956 OFFCURVE",
"1823 907 OFFCURVE",
"1823 829 CURVE SMOOTH",
"1823 343 LINE SMOOTH",
"1823 287 OFFCURVE",
"1782 244 OFFCURVE"
);
},
{
closed = 1;
nodes = (
"1730 -18 CURVE SMOOTH",
"1979 -18 OFFCURVE",
"2122 147 OFFCURVE",
"2122 402 CURVE SMOOTH",
"2122 765 LINE SMOOTH",
"2122 1034 OFFCURVE",
"1993 1183 OFFCURVE",
"1730 1183 CURVE SMOOTH",
"1467 1183 OFFCURVE",
"1339 1034 OFFCURVE",
"1339 765 CURVE SMOOTH",
"1339 402 LINE SMOOTH",
"1339 147 OFFCURVE",
"1482 -18 OFFCURVE"
);
},
{
closed = 1;
nodes = (
"660 0 LINE",
"983 0 LINE",
"1524 1767 LINE",
"1200 1767 LINE"
);
}
);
width = 2164;
},
{
layerId = "E8DA9D10-2326-4043-BA0A-F99E452091F3";
name = "Regular Italic";
paths = (
{
closed = 1;
nodes = (
"399 790 CURVE SMOOTH",
"347 790 OFFCURVE",
"312 833 OFFCURVE",
"321 889 CURVE SMOOTH",
"398 1375 LINE SMOOTH",
"410 1452 OFFCURVE",
"433 1502 OFFCURVE",
"511 1502 CURVE SMOOTH",
"589 1502 OFFCURVE",
"596 1453 OFFCURVE",
"584 1375 CURVE SMOOTH",
"507 889 LINE SMOOTH",
"498 833 OFFCURVE",
"451 790 OFFCURVE"
);
},
{
closed = 1;
nodes = (
"358 528 CURVE SMOOTH",
"607 528 OFFCURVE",
"775 693 OFFCURVE",
"815 948 CURVE SMOOTH",
"873 1311 LINE SMOOTH",
"915 1580 OFFCURVE",
"810 1729 OFFCURVE",
"547 1729 CURVE SMOOTH",
"284 1729 OFFCURVE",
"132 1580 OFFCURVE",
"90 1311 CURVE SMOOTH",
"32 948 LINE SMOOTH",
"-8 693 OFFCURVE",
"110 528 OFFCURVE"
);
},
{
closed = 1;
nodes = (
"1610 244 CURVE SMOOTH",
"1558 244 OFFCURVE",
"1523 287 OFFCURVE",
"1532 343 CURVE SMOOTH",
"1609 829 LINE SMOOTH",
"1621 906 OFFCURVE",
"1644 956 OFFCURVE",
"1722 956 CURVE SMOOTH",
"1800 956 OFFCURVE",
"1807 907 OFFCURVE",
"1795 829 CURVE SMOOTH",
"1718 343 LINE SMOOTH",
"1709 287 OFFCURVE",
"1662 244 OFFCURVE"
);
},
{
closed = 1;
nodes = (
"1569 -18 CURVE SMOOTH",
"1818 -18 OFFCURVE",
"1986 147 OFFCURVE",
"2026 402 CURVE SMOOTH",
"2084 765 LINE SMOOTH",
"2126 1034 OFFCURVE",
"2021 1183 OFFCURVE",
"1758 1183 CURVE SMOOTH",
"1495 1183 OFFCURVE",
"1343 1034 OFFCURVE",
"1301 765 CURVE SMOOTH",
"1243 402 LINE SMOOTH",
"1203 147 OFFCURVE",
"1321 -18 OFFCURVE"
);
},
{
closed = 1;
nodes = (
"501 0 LINE",
"824 0 LINE",
"1644 1767 LINE",
"1320 1767 LINE"
);
}
);
width = 2164;
}
);
unicode = 0025;
userData = {
com.typemytype.robofont.layerData = {
};
public.markColor = "0.85,0.26,0.06,1";
};
},
{
glyphname = ampersand;
lastChange = "2013-12-30 23:23:56 -0800";
layers = (
{
layerId = "6CD1E358-6E98-409F-9A1F-EA9DE4C1A8AA";
name = Regular;
paths = (
{
closed = 1;
nodes = (
"356 -21 CURVE SMOOTH",
"466 -21 OFFCURVE",
"558 32 OFFCURVE",
"610 97 CURVE",
"647 0 LINE",
"987 0 LINE",
"808 432 LINE",
"861 578 OFFCURVE",
"927 682 OFFCURVE",
"1005 744 CURVE",
"866 961 LINE",
"791 906 OFFCURVE",
"733 827 OFFCURVE",
"694 726 CURVE",
"631 875 LINE",
"788 1000 OFFCURVE",
"866 1133 OFFCURVE",
"866 1273 CURVE SMOOTH",
"866 1472 OFFCURVE",
"717 1582 OFFCURVE",
"521 1582 CURVE SMOOTH",
"322 1582 OFFCURVE",
"173 1464 OFFCURVE",
"173 1262 CURVE SMOOTH",
"173 1143 OFFCURVE",
"228 1010 OFFCURVE",
"273 921 CURVE",
"114 804 OFFCURVE",
"35 661 OFFCURVE",
"35 386 CURVE SMOOTH",
"35 158 OFFCURVE",
"137 -21 OFFCURVE"
);
},
{
closed = 1;
nodes = (
"412 235 CURVE SMOOTH",
"341 235 OFFCURVE",
"341 341 OFFCURVE",
"341 413 CURVE SMOOTH",
"341 423 LINE SMOOTH",
"341 488 OFFCURVE",
"355 572 OFFCURVE",
"379 606 CURVE",
"391 625 LINE",
"513 334 LINE",
"502 289 OFFCURVE",
"469 235 OFFCURVE"
);
},
{
closed = 1;
nodes = (
"540 1110 LINE",
"511 1183 OFFCURVE",
"497 1237 OFFCURVE",
"497 1273 CURVE SMOOTH",
"497 1307 OFFCURVE",
"517 1336 OFFCURVE",
"551 1336 CURVE SMOOTH",
"590 1336 OFFCURVE",
"610 1315 OFFCURVE",
"610 1273 CURVE SMOOTH",
"610 1219 OFFCURVE",
"582 1155 OFFCURVE",
"557 1128 CURVE SMOOTH"
);
}
);
width = 1035;
},
{
layerId = "E8DA9D10-2326-4043-BA0A-F99E452091F3";
name = "Regular Italic";
paths = (
{
closed = 1;
nodes = (
"223 -21 CURVE SMOOTH",
"333 -21 OFFCURVE",
"434 32 OFFCURVE",
"496 97 CURVE",
"518 0 LINE",
"858 0 LINE",
"747 432 LINE",
"823 578 OFFCURVE",
"905 682 OFFCURVE",
"993 744 CURVE",
"888 961 LINE",
"804 906 OFFCURVE",
"734 827 OFFCURVE",
"679 726 CURVE",
"639 875 LINE",
"817 1000 OFFCURVE",
"915 1133 OFFCURVE",
"937 1273 CURVE SMOOTH",
"968 1472 OFFCURVE",
"837 1582 OFFCURVE",
"641 1582 CURVE SMOOTH",
"442 1582 OFFCURVE",
"275 1464 OFFCURVE",
"243 1262 CURVE SMOOTH",
"224 1143 OFFCURVE",
"258 1010 OFFCURVE",
"289 921 CURVE",
"111 804 OFFCURVE",
"10 661 OFFCURVE",
"-34 386 CURVE SMOOTH",
"-70 158 OFFCURVE",
"4 -21 OFFCURVE"
);
},
{
closed = 1;
nodes = (
"320 235 CURVE SMOOTH",
"249 235 OFFCURVE",
"266 341 OFFCURVE",
"276 413 CURVE SMOOTH",
"279 423 LINE SMOOTH",
"289 488 OFFCURVE",
"316 572 OFFCURVE",
"345 606 CURVE",
"360 625 LINE",
"436 334 LINE",
"418 289 OFFCURVE",
"377 235 OFFCURVE"
);
},
{
closed = 1;
nodes = (
"586 1110 LINE",
"568 1183 OFFCURVE",
"563 1237 OFFCURVE",
"568 1273 CURVE SMOOTH",
"573 1307 OFFCURVE",
"598 1336 OFFCURVE",
"632 1336 CURVE SMOOTH",
"671 1336 OFFCURVE",
"688 1315 OFFCURVE",
"681 1273 CURVE SMOOTH",
"672 1219 OFFCURVE",
"635 1155 OFFCURVE",
"605 1128 CURVE SMOOTH"
);
}
);
width = 1035;
}
);
unicode = 0026;
userData = {
com.typemytype.robofont.layerData = {
};
public.markColor = "0.85,0.26,0.06,1";
};
},
{
glyphname = quotesingle;
lastChange = "2013-12-30 23:23:56 -0800";
layers = (
{
layerId = "6CD1E358-6E98-409F-9A1F-EA9DE4C1A8AA";
name = Regular;
paths = (
{
closed = 1;
nodes = (
"141 1124 LINE",
"317 1124 LINE",
"393 1760 LINE",
"41 1760 LINE"
);
}
);
width = 438;
},
{
layerId = "E8DA9D10-2326-4043-BA0A-F99E452091F3";
name = "Regular Italic";
paths = (
{
closed = 1;
nodes = (
"161 1124 LINE",
"337 1124 LINE",
"513 1760 LINE",
"161 1760 LINE"
);
}
);
width = 438;
}
);
unicode = 0027;
userData = {
com.typemytype.robofont.layerData = {
};
public.markColor = "0.85,0.26,0.06,1";
};
},
{
glyphname = asterisk;
lastChange = "2013-12-30 23:23:56 -0800";
layers = (
{
layerId = "6CD1E358-6E98-409F-9A1F-EA9DE4C1A8AA";
name = Regular;
paths = (
{
closed = 1;
nodes = (
"347 741 LINE",
"579 741 LINE",
"543 1036 LINE",
"774 854 LINE",
"890 1054 LINE",
"615 1171 LINE",
"890 1280 LINE",
"774 1480 LINE",
"544 1307 LINE",
"579 1593 LINE",
"347 1593 LINE",
"390 1301 LINE",
"152 1480 LINE",
"36 1280 LINE",
"310 1171 LINE",
"36 1054 LINE",
"152 854 LINE",
"391 1043 LINE"
);
}
);
width = 926;
},
{
layerId = "E8DA9D10-2326-4043-BA0A-F99E452091F3";
name = "Regular Italic";
paths = (
{
closed = 1;
nodes = (
"332 741 LINE",
"564 741 LINE",
"576 1036 LINE",
"777 854 LINE",
"925 1054 LINE",
"668 1171 LINE",
"961 1280 LINE",
"876 1480 LINE",
"619 1307 LINE",
"699 1593 LINE",
"467 1593 LINE",
"464 1301 LINE",
"254 1480 LINE",
"107 1280 LINE",
"363 1171 LINE",
"71 1054 LINE",
"155 854 LINE",
"424 1043 LINE"
);
}
);
width = 926;
}
);
unicode = 002A;
userData = {
com.typemytype.robofont.layerData = {
};
public.markColor = "0.85,0.26,0.06,1";
};
},
{
glyphname = comma;
lastChange = "2013-12-31 00:21:22 -0800";
layers = (
{
anchors = (
{
name = _mid;
position = "{247, 131}";
}
);
layerId = "6CD1E358-6E98-409F-9A1F-EA9DE4C1A8AA";
name = Regular;
paths = (
{
closed = 1;
nodes = (
"116 -235 LINE",
"327 -235 LINE",
"429 10 LINE",
"429 299 LINE",
"55 299 LINE",
"55 1 LINE",
"182 1 LINE"
);
}
);
width = 484;
},
{
anchors = (
{
name = _mid;
position = "{140, 131}";
}
);
layerId = "E8DA9D10-2326-4043-BA0A-F99E452091F3";
name = "Regular Italic";
paths = (
{
closed = 1;
nodes = (
"-49 -235 LINE",
"162 -235 LINE",
"304 10 LINE",
"349 299 LINE",
"-25 299 LINE",
"-72 1 LINE",
"55 1 LINE"
);
}
);
width = 484;
}
);
unicode = 002C;
userData = {
com.typemytype.robofont.layerData = {
};
public.markColor = "0.85,0.26,0.06,1";
};
},
{
glyphname = period;
lastChange = "2013-12-31 00:21:25 -0800";
layers = (
{
layerId = "6CD1E358-6E98-409F-9A1F-EA9DE4C1A8AA";
name = Regular;
paths = (
{
closed = 1;
nodes = (
"55 1 LINE",
"413 1 LINE",
"413 299 LINE",
"55 299 LINE"
);
}
);
width = 468;
},
{
layerId = "E8DA9D10-2326-4043-BA0A-F99E452091F3";
name = "Regular Italic";
paths = (
{
closed = 1;
nodes = (
"-72 1 LINE",
"286 1 LINE",
"333 299 LINE",
"-25 299 LINE"
);
}
);
width = 468;
}
);
unicode = 002E;
userData = {
com.typemytype.robofont.layerData = {
};
public.markColor = "0.85,0.26,0.06,1";
};
},
{
glyphname = slash;
lastChange = "2013-12-30 23:23:56 -0800";
layers = (
{
layerId = "6CD1E358-6E98-409F-9A1F-EA9DE4C1A8AA";
name = Regular;
paths = (
{
closed = 1;
nodes = (
"29 0 LINE",
"392 0 LINE",
"803 1767 LINE",
"439 1767 LINE"
);
}
);
width = 830;
},
{
layerId = "E8DA9D10-2326-4043-BA0A-F99E452091F3";
name = "Regular Italic";
paths = (
{
closed = 1;
nodes = (
"-130 0 LINE",
"233 0 LINE",
"923 1767 LINE",
"559 1767 LINE"
);
}
);
width = 830;
}
);
unicode = 002F;
userData = {
com.typemytype.robofont.layerData = {
};
public.markColor = "0.85,0.26,0.06,1";
};
},
{
glyphname = colon;
lastChange = "2013-12-31 00:21:29 -0800";
layers = (
{
layerId = "6CD1E358-6E98-409F-9A1F-EA9DE4C1A8AA";
name = Regular;
paths = (
{
closed = 1;
nodes = (
"68 237 LINE",
"426 237 LINE",
"426 535 LINE",
"68 535 LINE"
);
},
{
closed = 1;
nodes = (
"68 976 LINE",
"426 976 LINE",
"426 1274 LINE",
"68 1274 LINE"
);
}
);
width = 495;
},
{
layerId = "E8DA9D10-2326-4043-BA0A-F99E452091F3";
name = "Regular Italic";
paths = (
{
closed = 1;
nodes = (
"-15 237 LINE",
"343 237 LINE",
"389 535 LINE",
"31 535 LINE"
);
},
{
closed = 1;
nodes = (
"101 976 LINE",
"459 976 LINE",
"506 1274 LINE",
"148 1274 LINE"
);
}
);
width = 495;
}
);
unicode = 003A;
userData = {
com.typemytype.robofont.layerData = {
};
public.markColor = "0.85,0.26,0.06,1";
};
},
{
glyphname = semicolon;
lastChange = "2013-12-31 00:21:31 -0800";
layers = (
{
layerId = "6CD1E358-6E98-409F-9A1F-EA9DE4C1A8AA";
name = Regular;
paths = (
{
closed = 1;
nodes = (
"127 0 LINE",
"338 0 LINE",
"440 245 LINE",
"440 534 LINE",
"66 534 LINE",
"66 236 LINE",
"193 236 LINE"
);
},
{
closed = 1;
nodes = (
"66 976 LINE",
"424 976 LINE",
"424 1274 LINE",
"66 1274 LINE"
);
}
);
width = 502;
},
{
layerId = "E8DA9D10-2326-4043-BA0A-F99E452091F3";
name = "Regular Italic";
paths = (
{
closed = 1;
nodes = (
"17 0 LINE",
"228 0 LINE",
"368 245 LINE",
"413 534 LINE",
"39 534 LINE",
"-7 236 LINE",
"120 236 LINE"
);
},
{
closed = 1;
nodes = (
"109 976 LINE",
"467 976 LINE",
"514 1274 LINE",
"156 1274 LINE"
);
}
);
width = 502;
}
);
unicode = 003B;
userData = {
com.typemytype.robofont.layerData = {
};
public.markColor = "0.85,0.26,0.06,1";
};
},
{
glyphname = question;
lastChange = "2013-12-30 23:23:56 -0800";
layers = (
{
layerId = "6CD1E358-6E98-409F-9A1F-EA9DE4C1A8AA";
name = Regular;
paths = (
{
closed = 1;
nodes = (
"127 455 LINE",
"460 455 LINE",
"460 625 LINE",
"810 625 OFFCURVE",
"978 880 OFFCURVE",
"978 1226 CURVE SMOOTH",
"978 1579 OFFCURVE",
"863 1776 OFFCURVE",
"508 1776 CURVE SMOOTH",
"237 1776 OFFCURVE",
"48 1648 OFFCURVE",
"48 1379 CURVE SMOOTH",
"48 1125 LINE",
"414 1125 LINE",
"414 1271 LINE SMOOTH",
"414 1363 OFFCURVE",
"421 1457 OFFCURVE",
"508 1457 CURVE SMOOTH",
"588 1457 OFFCURVE",
"601 1381 OFFCURVE",
"601 1294 CURVE SMOOTH",
"601 912 OFFCURVE",
"460 871 OFFCURVE",
"127 871 CURVE"
);
},
{
closed = 1;
nodes = (
"116 1 LINE",
"474 1 LINE",
"474 299 LINE",
"116 299 LINE"
);
}
);
width = 1008;
},
{
layerId = "E8DA9D10-2326-4043-BA0A-F99E452091F3";
name = "Regular Italic";
paths = (
{
closed = 1;
nodes = (
"39 455 LINE",
"372 455 LINE",
"399 625 LINE",
"749 625 OFFCURVE",
"957 880 OFFCURVE",
"1011 1226 CURVE SMOOTH",
"1067 1579 OFFCURVE",
"983 1776 OFFCURVE",
"628 1776 CURVE SMOOTH",
"357 1776 OFFCURVE",
"148 1648 OFFCURVE",
"105 1379 CURVE SMOOTH",
"65 1125 LINE",
"431 1125 LINE",
"454 1271 LINE SMOOTH",
"469 1363 OFFCURVE",
"491 1457 OFFCURVE",
"578 1457 CURVE SMOOTH",
"658 1457 OFFCURVE",
"659 1381 OFFCURVE",
"645 1294 CURVE SMOOTH",
"585 912 OFFCURVE",
"437 871 OFFCURVE",
"104 871 CURVE"
);
},
{
closed = 1;
nodes = (
"-44 1 LINE",
"314 1 LINE",
"361 299 LINE",
"3 299 LINE"
);
}
);
width = 1008;
}
);
unicode = 003F;
userData = {
com.typemytype.robofont.layerData = {
};
public.markColor = "0.85,0.26,0.06,1";
};
},
{
glyphname = at;
lastChange = "2013-12-31 00:21:35 -0800";
layers = (
{
layerId = "6CD1E358-6E98-409F-9A1F-EA9DE4C1A8AA";
name = Regular;
paths = (
{
closed = 1;
nodes = (
"919 -158 CURVE SMOOTH",
"1007 -158 OFFCURVE",
"1111 -148 OFFCURVE",
"1231 -127 CURVE",
"1200 99 LINE",
"1094 85 OFFCURVE",
"1005 78 OFFCURVE",
"934 78 CURVE SMOOTH",
"580 78 OFFCURVE",
"350 298 OFFCURVE",
"350 734 CURVE SMOOTH",
"350 1282 OFFCURVE",
"561 1536 OFFCURVE",
"960 1536 CURVE SMOOTH",
"1298 1536 OFFCURVE",
"1466 1264 OFFCURVE",
"1466 907 CURVE SMOOTH",
"1466 761 OFFCURVE",
"1464 505 OFFCURVE",
"1374 505 CURVE SMOOTH",
"1325 505 OFFCURVE",
"1267 582 OFFCURVE",
"1267 650 CURVE SMOOTH",
"1267 1290 LINE",
"1041 1290 LINE",
"1002 1159 LINE",
"952 1243 OFFCURVE",
"894 1299 OFFCURVE",
"798 1299 CURVE SMOOTH",
"579 1299 OFFCURVE",
"510 1048 OFFCURVE",
"510 744 CURVE SMOOTH",
"510 502 OFFCURVE",
"602 285 OFFCURVE",
"780 285 CURVE SMOOTH",
"906 285 OFFCURVE",
"978 350 OFFCURVE",
"1007 491 CURVE",
"1053 367 OFFCURVE",
"1133 277 OFFCURVE",
"1329 277 CURVE SMOOTH",
"1602 277 OFFCURVE",
"1712 493 OFFCURVE",
"1712 882 CURVE SMOOTH",
"1712 1440 OFFCURVE",
"1444 1776 OFFCURVE",
"978 1776 CURVE SMOOTH",
"450 1776 OFFCURVE",
"64 1480 OFFCURVE",
"64 717 CURVE SMOOTH",
"64 86 OFFCURVE",
"448 -158 OFFCURVE"
);
},
{
closed = 1;
nodes = (
"903 532 CURVE SMOOTH",
"838 532 OFFCURVE",
"820 638 OFFCURVE",
"820 733 CURVE SMOOTH",
"820 924 OFFCURVE",
"824 1074 OFFCURVE",
"982 1074 CURVE",
"982 682 LINE SMOOTH",
"982 609 OFFCURVE",
"964 532 OFFCURVE"
);
}
);
width = 1770;
},
{
layerId = "E8DA9D10-2326-4043-BA0A-F99E452091F3";
name = "Regular Italic";
paths = (
{
closed = 1;
nodes = (
"754 -158 CURVE SMOOTH",
"842 -158 OFFCURVE",
"948 -148 OFFCURVE",
"1071 -127 CURVE",
"1075 99 LINE",
"967 85 OFFCURVE",
"878 78 OFFCURVE",
"807 78 CURVE SMOOTH",
"453 78 OFFCURVE",
"257 298 OFFCURVE",
"326 734 CURVE SMOOTH",
"412 1282 OFFCURVE",
"664 1536 OFFCURVE",
"1063 1536 CURVE SMOOTH",
"1401 1536 OFFCURVE",
"1525 1264 OFFCURVE",
"1469 907 CURVE SMOOTH",
"1446 761 OFFCURVE",
"1404 505 OFFCURVE",
"1314 505 CURVE SMOOTH",
"1265 505 OFFCURVE",
"1218 582 OFFCURVE",
"1230 650 CURVE SMOOTH",
"1330 1290 LINE",
"1104 1290 LINE",
"1044 1159 LINE",
"1008 1243 OFFCURVE",
"958 1299 OFFCURVE",
"862 1299 CURVE SMOOTH",
"643 1299 OFFCURVE",
"536 1048 OFFCURVE",
"487 744 CURVE SMOOTH",
"450 502 OFFCURVE",
"507 285 OFFCURVE",
"685 285 CURVE SMOOTH",
"811 285 OFFCURVE",
"893 350 OFFCURVE",
"944 491 CURVE",
"971 367 OFFCURVE",
"1037 277 OFFCURVE",
"1233 277 CURVE SMOOTH",
"1506 277 OFFCURVE",
"1649 493 OFFCURVE",
"1711 882 CURVE SMOOTH",
"1799 1440 OFFCURVE",
"1584 1776 OFFCURVE",
"1118 1776 CURVE SMOOTH",
"590 1776 OFFCURVE",
"158 1480 OFFCURVE",
"37 717 CURVE SMOOTH",
"-63 86 OFFCURVE",
"283 -158 OFFCURVE"
);
},
{
closed = 1;
nodes = (
"847 532 CURVE SMOOTH",
"782 532 OFFCURVE",
"780 638 OFFCURVE",
"796 733 CURVE SMOOTH",
"825 924 OFFCURVE",
"853 1074 OFFCURVE",
"1011 1074 CURVE",
"950 682 LINE SMOOTH",
"938 609 OFFCURVE",
"908 532 OFFCURVE"
);
}
);
width = 1770;
}
);
unicode = 0040;
userData = {
com.typemytype.robofont.layerData = {
};
public.markColor = "0.85,0.26,0.06,1";
};
},
{
glyphname = backslash;
lastChange = "2013-12-30 23:23:56 -0800";
layers = (
{
layerId = "6CD1E358-6E98-409F-9A1F-EA9DE4C1A8AA";
name = Regular;
paths = (
{
closed = 1;
nodes = (
"438 0 LINE",
"801 0 LINE",
"391 1767 LINE",
"27 1767 LINE"
);
}
);
width = 830;
},
{
layerId = "E8DA9D10-2326-4043-BA0A-F99E452091F3";
name = "Regular Italic";
paths = (
{
closed = 1;
nodes = (
"279 0 LINE",
"642 0 LINE",
"511 1767 LINE",
"147 1767 LINE"
);
}
);
width = 830;
}
);
unicode = 005C;
userData = {
com.typemytype.robofont.layerData = {
};
public.markColor = "0.85,0.26,0.06,1";
};
},
{
glyphname = exclamdown;
lastChange = "2013-12-31 00:09:20 -0800";
layers = (
{
layerId = "6CD1E358-6E98-409F-9A1F-EA9DE4C1A8AA";
name = Regular;
paths = (
{
closed = 1;
nodes = (
"413 1353 LINE",
"413 1651 LINE",
"55 1651 LINE",
"55 1353 LINE"
);
},
{
closed = 1;
nodes = (
"413 -108 LINE",
"343 1173 LINE",
"125 1173 LINE",
"55 -108 LINE"
);
}
);
width = 464;
},
{
layerId = "E8DA9D10-2326-4043-BA0A-F99E452091F3";
name = "Regular Italic";
paths = (
{
closed = 1;
nodes = (
"514 1353 LINE",
"566 1651 LINE",
"208 1651 LINE",
"156 1353 LINE"
);
},
{
closed = 1;
nodes = (
"256 -108 LINE",
"412 1173 LINE",
"194 1173 LINE",
"-102 -108 LINE"
);
}
);
width = 464;
}
);
unicode = 00A1;
userData = {
com.typemytype.robofont.layerData = {
};
public.markColor = "0.85,0.26,0.06,1";
};
},
{
glyphname = periodcentered;
lastChange = "2013-12-31 00:21:47 -0800";
layers = (
{
anchors = (
{
name = _mid;
position = "{247, 878}";
}
);
layerId = "6CD1E358-6E98-409F-9A1F-EA9DE4C1A8AA";
name = Regular;
paths = (
{
closed = 1;
nodes = (
"81 723 LINE",
"399 723 LINE",
"399 1021 LINE",
"81 1021 LINE"
);
}
);
width = 480;
},
{
anchors = (
{
name = _mid;
position = "{248, 878}";
}
);
layerId = "E8DA9D10-2326-4043-BA0A-F99E452091F3";
name = "Regular Italic";
paths = (
{
closed = 1;
nodes = (
"58 723 LINE",
"376 723 LINE",
"423 1021 LINE",
"105 1021 LINE"
);
}
);
width = 480;
}
);
unicode = 00B7;
userData = {
com.typemytype.robofont.layerData = {
};
public.markColor = "0.85,0.26,0.06,1";
};
},
{
glyphname = dagger;
lastChange = "2013-12-30 23:23:56 -0800";
layers = (
{
layerId = "6CD1E358-6E98-409F-9A1F-EA9DE4C1A8AA";
name = Regular;
paths = (
{
closed = 1;
nodes = (
"214 0 LINE",
"578 0 LINE",
"578 996 LINE",
"758 996 LINE",
"758 1292 LINE",
"578 1292 LINE",
"578 1592 LINE",
"214 1592 LINE",
"214 1292 LINE",
"31 1292 LINE",
"31 996 LINE",
"214 996 LINE"
);
}
);
width = 789;
},
{
layerId = "E8DA9D10-2326-4043-BA0A-F99E452091F3";
name = "Regular Italic";
paths = (
{
closed = 1;
nodes = (
"83 0 LINE",
"447 0 LINE",
"604 996 LINE",
"784 996 LINE",
"831 1292 LINE",
"651 1292 LINE",
"698 1592 LINE",
"334 1592 LINE",
"287 1292 LINE",
"104 1292 LINE",
"57 996 LINE",
"240 996 LINE"
);
}
);
width = 789;
}
);
unicode = 2020;
userData = {
com.typemytype.robofont.layerData = {
};
public.markColor = "0.85,0.26,0.06,1";
};
},
{
glyphname = daggerdbl;
lastChange = "2013-12-30 23:23:56 -0800";
layers = (
{
layerId = "6CD1E358-6E98-409F-9A1F-EA9DE4C1A8AA";
name = Regular;
paths = (
{
closed = 1;
nodes = (
"223 0 LINE",
"587 0 LINE",
"587 350 LINE",
"767 350 LINE",
"767 646 LINE",
"587 646 LINE",
"587 940 LINE",
"767 940 LINE",
"767 1236 LINE",
"587 1236 LINE",
"587 1592 LINE",
"223 1592 LINE",
"223 1236 LINE",
"40 1236 LINE",
"40 940 LINE",
"223 940 LINE",
"223 646 LINE",
"40 646 LINE",
"40 350 LINE",
"223 350 LINE"
);
}
);
width = 807;
},
{
layerId = "E8DA9D10-2326-4043-BA0A-F99E452091F3";
name = "Regular Italic";
paths = (
{
closed = 1;
nodes = (
"92 0 LINE",
"456 0 LINE",
"512 350 LINE",
"692 350 LINE",
"738 646 LINE",
"558 646 LINE",
"604 940 LINE",
"784 940 LINE",
"831 1236 LINE",
"651 1236 LINE",
"707 1592 LINE",
"343 1592 LINE",
"287 1236 LINE",
"104 1236 LINE",
"57 940 LINE",
"240 940 LINE",
"194 646 LINE",
"11 646 LINE",
"-35 350 LINE",
"148 350 LINE"
);
}
);
width = 807;
}
);
unicode = 2021;
userData = {
com.typemytype.robofont.layerData = {
};
public.markColor = "0.85,0.26,0.06,1";
};
},
{
glyphname = bullet;
lastChange = "2013-12-31 00:21:53 -0800";
layers = (
{
layerId = "6CD1E358-6E98-409F-9A1F-EA9DE4C1A8AA";
name = Regular;
paths = (
{
closed = 1;
nodes = (
"360 403 CURVE SMOOTH",
"559 403 OFFCURVE",
"674 539 OFFCURVE",
"674 741 CURVE SMOOTH",
"674 943 OFFCURVE",
"559 1079 OFFCURVE",
"360 1079 CURVE SMOOTH",
"161 1079 OFFCURVE",
"47 943 OFFCURVE",
"47 741 CURVE SMOOTH",
"47 539 OFFCURVE",
"161 403 OFFCURVE"
);
}
);
width = 721;
},
{
layerId = "E8DA9D10-2326-4043-BA0A-F99E452091F3";
name = "Regular Italic";
paths = (
{
closed = 1;
nodes = (
"284 403 CURVE SMOOTH",
"483 403 OFFCURVE",
"620 539 OFFCURVE",
"651 741 CURVE SMOOTH",
"683 943 OFFCURVE",
"590 1079 OFFCURVE",
"391 1079 CURVE SMOOTH",
"192 1079 OFFCURVE",
"56 943 OFFCURVE",
"24 741 CURVE SMOOTH",
"-7 539 OFFCURVE",
"85 403 OFFCURVE"
);
}
);
width = 721;
}
);
unicode = 2022;
userData = {
com.typemytype.robofont.layerData = {
};
public.markColor = "0.85,0.26,0.06,1";
};
},
{
glyphname = ellipsis;
lastChange = "2013-12-31 00:21:57 -0800";
layers = (
{
layerId = "6CD1E358-6E98-409F-9A1F-EA9DE4C1A8AA";
name = Regular;
paths = (
{
closed = 1;
nodes = (
"55 1 LINE",
"413 1 LINE",
"413 299 LINE",
"55 299 LINE"
);
},
{
closed = 1;
nodes = (
"546 1 LINE",
"904 1 LINE",
"904 299 LINE",
"546 299 LINE"
);
},
{
closed = 1;
nodes = (
"1037 1 LINE",
"1395 1 LINE",
"1395 299 LINE",
"1037 299 LINE"
);
}
);
width = 1450;
},
{
layerId = "E8DA9D10-2326-4043-BA0A-F99E452091F3";
name = "Regular Italic";
paths = (
{
closed = 1;
nodes = (
"-62 1 LINE",
"296 1 LINE",
"343 299 LINE",
"-15 299 LINE"
);
},
{
closed = 1;
nodes = (
"429 1 LINE",
"787 1 LINE",
"834 299 LINE",
"476 299 LINE"
);
},
{
closed = 1;
nodes = (
"920 1 LINE",
"1278 1 LINE",
"1325 299 LINE",
"967 299 LINE"
);
}
);
width = 1450;
}
);
unicode = 2026;
userData = {
com.typemytype.robofont.layerData = {
};
public.markColor = "0.85,0.26,0.06,1";
};
},
{
glyphname = perthousand;
lastChange = "2013-12-30 23:23:56 -0800";
layers = (
{
layerId = "6CD1E358-6E98-409F-9A1F-EA9DE4C1A8AA";
name = Regular;
paths = (
{
closed = 1;
nodes = (
"433 790 CURVE SMOOTH",
"381 790 OFFCURVE",
"340 833 OFFCURVE",
"340 889 CURVE SMOOTH",
"340 1375 LINE SMOOTH",
"340 1452 OFFCURVE",
"355 1502 OFFCURVE",
"433 1502 CURVE SMOOTH",
"511 1502 OFFCURVE",
"526 1453 OFFCURVE",
"526 1375 CURVE SMOOTH",
"526 889 LINE SMOOTH",
"526 833 OFFCURVE",
"485 790 OFFCURVE"
);
},
{
closed = 1;
nodes = (
"433 528 CURVE SMOOTH",
"682 528 OFFCURVE",
"825 693 OFFCURVE",
"825 948 CURVE SMOOTH",
"825 1311 LINE SMOOTH",
"825 1580 OFFCURVE",
"696 1729 OFFCURVE",
"433 1729 CURVE SMOOTH",
"170 1729 OFFCURVE",
"42 1580 OFFCURVE",
"42 1311 CURVE SMOOTH",
"42 948 LINE SMOOTH",
"42 693 OFFCURVE",
"185 528 OFFCURVE"
);
},
{
closed = 1;
nodes = (
"1730 244 CURVE SMOOTH",
"1678 244 OFFCURVE",
"1637 287 OFFCURVE",
"1637 343 CURVE SMOOTH",
"1637 829 LINE SMOOTH",
"1637 906 OFFCURVE",
"1652 956 OFFCURVE",
"1730 956 CURVE SMOOTH",
"1808 956 OFFCURVE",
"1823 907 OFFCURVE",
"1823 829 CURVE SMOOTH",
"1823 343 LINE SMOOTH",
"1823 287 OFFCURVE",
"1782 244 OFFCURVE"
);
},
{
closed = 1;
nodes = (
"1730 -18 CURVE SMOOTH",
"1979 -18 OFFCURVE",
"2122 147 OFFCURVE",
"2122 402 CURVE SMOOTH",
"2122 765 LINE SMOOTH",
"2122 1034 OFFCURVE",
"1993 1183 OFFCURVE",
"1730 1183 CURVE SMOOTH",
"1467 1183 OFFCURVE",
"1339 1034 OFFCURVE",
"1339 765 CURVE SMOOTH",
"1339 402 LINE SMOOTH",
"1339 147 OFFCURVE",
"1482 -18 OFFCURVE"
);
},
{
closed = 1;
nodes = (
"2597 244 CURVE SMOOTH",
"2545 244 OFFCURVE",
"2504 287 OFFCURVE",
"2504 343 CURVE SMOOTH",
"2504 829 LINE SMOOTH",
"2504 906 OFFCURVE",
"2519 956 OFFCURVE",
"2597 956 CURVE SMOOTH",
"2675 956 OFFCURVE",
"2690 907 OFFCURVE",
"2690 829 CURVE SMOOTH",
"2690 343 LINE SMOOTH",
"2690 287 OFFCURVE",
"2649 244 OFFCURVE"
);
},
{
closed = 1;
nodes = (
"2597 -18 CURVE SMOOTH",
"2846 -18 OFFCURVE",
"2989 147 OFFCURVE",
"2989 402 CURVE SMOOTH",
"2989 765 LINE SMOOTH",
"2989 1034 OFFCURVE",
"2860 1183 OFFCURVE",
"2597 1183 CURVE SMOOTH",
"2334 1183 OFFCURVE",
"2206 1034 OFFCURVE",
"2206 765 CURVE SMOOTH",
"2206 402 LINE SMOOTH",
"2206 147 OFFCURVE",
"2349 -18 OFFCURVE"
);
},
{
closed = 1;
nodes = (
"660 0 LINE",
"983 0 LINE",
"1524 1767 LINE",
"1200 1767 LINE"
);
}
);
width = 3031;
},
{
layerId = "E8DA9D10-2326-4043-BA0A-F99E452091F3";
name = "Regular Italic";
paths = (
{
closed = 1;
nodes = (
"399 790 CURVE SMOOTH",
"347 790 OFFCURVE",
"312 833 OFFCURVE",
"321 889 CURVE SMOOTH",
"398 1375 LINE SMOOTH",
"410 1452 OFFCURVE",
"433 1502 OFFCURVE",
"511 1502 CURVE SMOOTH",
"589 1502 OFFCURVE",
"596 1453 OFFCURVE",
"584 1375 CURVE SMOOTH",
"507 889 LINE SMOOTH",
"498 833 OFFCURVE",
"451 790 OFFCURVE"
);
},
{
closed = 1;
nodes = (
"358 528 CURVE SMOOTH",
"607 528 OFFCURVE",
"775 693 OFFCURVE",
"815 948 CURVE SMOOTH",
"873 1311 LINE SMOOTH",
"915 1580 OFFCURVE",
"810 1729 OFFCURVE",
"547 1729 CURVE SMOOTH",
"284 1729 OFFCURVE",
"132 1580 OFFCURVE",
"90 1311 CURVE SMOOTH",
"32 948 LINE SMOOTH",
"-8 693 OFFCURVE",
"110 528 OFFCURVE"
);
},
{
closed = 1;
nodes = (
"1610 244 CURVE SMOOTH",
"1558 244 OFFCURVE",
"1523 287 OFFCURVE",
"1532 343 CURVE SMOOTH",
"1609 829 LINE SMOOTH",
"1621 906 OFFCURVE",
"1644 956 OFFCURVE",
"1722 956 CURVE SMOOTH",
"1800 956 OFFCURVE",
"1807 907 OFFCURVE",
"1795 829 CURVE SMOOTH",
"1718 343 LINE SMOOTH",
"1709 287 OFFCURVE",
"1662 244 OFFCURVE"
);
},
{
closed = 1;
nodes = (
"1569 -18 CURVE SMOOTH",
"1818 -18 OFFCURVE",
"1986 147 OFFCURVE",
"2026 402 CURVE SMOOTH",
"2084 765 LINE SMOOTH",
"2126 1034 OFFCURVE",
"2021 1183 OFFCURVE",
"1758 1183 CURVE SMOOTH",
"1495 1183 OFFCURVE",
"1343 1034 OFFCURVE",
"1301 765 CURVE SMOOTH",
"1243 402 LINE SMOOTH",
"1203 147 OFFCURVE",
"1321 -18 OFFCURVE"
);
},
{
closed = 1;
nodes = (
"2477 244 CURVE SMOOTH",
"2425 244 OFFCURVE",
"2390 287 OFFCURVE",
"2399 343 CURVE SMOOTH",
"2476 829 LINE SMOOTH",
"2488 906 OFFCURVE",
"2511 956 OFFCURVE",
"2589 956 CURVE SMOOTH",
"2667 956 OFFCURVE",
"2674 907 OFFCURVE",
"2662 829 CURVE SMOOTH",
"2585 343 LINE SMOOTH",
"2576 287 OFFCURVE",
"2529 244 OFFCURVE"
);
},
{
closed = 1;
nodes = (
"2436 -18 CURVE SMOOTH",
"2685 -18 OFFCURVE",
"2853 147 OFFCURVE",
"2893 402 CURVE SMOOTH",
"2951 765 LINE SMOOTH",
"2993 1034 OFFCURVE",
"2888 1183 OFFCURVE",
"2625 1183 CURVE SMOOTH",
"2362 1183 OFFCURVE",
"2210 1034 OFFCURVE",
"2168 765 CURVE SMOOTH",
"2110 402 LINE SMOOTH",
"2070 147 OFFCURVE",
"2188 -18 OFFCURVE"
);
},
{
closed = 1;
nodes = (
"501 0 LINE",
"824 0 LINE",
"1644 1767 LINE",
"1320 1767 LINE"
);
}
);
width = 3031;
}
);
unicode = 2030;
userData = {
com.typemytype.robofont.layerData = {
};
public.markColor = "0.85,0.26,0.06,1";
};
},
{
glyphname = plus;
lastChange = "2013-12-31 00:22:01 -0800";
layers = (
{
layerId = "6CD1E358-6E98-409F-9A1F-EA9DE4C1A8AA";
name = Regular;
paths = (
{
closed = 1;
nodes = (
"248 301 LINE",
"480 301 LINE",
"480 509 LINE",
"688 509 LINE",
"688 741 LINE",
"480 741 LINE",
"480 949 LINE",
"248 949 LINE",
"248 741 LINE",
"40 741 LINE",
"40 509 LINE",
"248 509 LINE"
);
}
);
width = 728;
},
{
layerId = "E8DA9D10-2326-4043-BA0A-F99E452091F3";
name = "Regular Italic";
paths = (
{
closed = 1;
nodes = (
"167 301 LINE",
"399 301 LINE",
"433 509 LINE",
"641 509 LINE",
"677 741 LINE",
"469 741 LINE",
"502 949 LINE",
"270 949 LINE",
"237 741 LINE",
"29 741 LINE",
"-7 509 LINE",
"201 509 LINE"
);
}
);
width = 728;
}
);
unicode = 002B;
userData = {
com.typemytype.robofont.layerData = {
};
public.markColor = "0.85,0.26,0.06,1";
};
},
{
glyphname = less;
lastChange = "2013-12-31 00:22:03 -0800";
layers = (
{
layerId = "6CD1E358-6E98-409F-9A1F-EA9DE4C1A8AA";
name = Regular;
paths = (
{
closed = 1;
nodes = (
"605 200 LINE",
"605 558 LINE",
"263 749 LINE",
"605 941 LINE",
"605 1300 LINE",
"35 959 LINE",
"35 545 LINE"
);
}
);
width = 658;
},
{
layerId = "E8DA9D10-2326-4043-BA0A-F99E452091F3";
name = "Regular Italic";
paths = (
{
closed = 1;
nodes = (
"532 200 LINE",
"588 558 LINE",
"276 749 LINE",
"648 941 LINE",
"705 1300 LINE",
"81 959 LINE",
"16 545 LINE"
);
}
);
width = 658;
}
);
unicode = 003C;
userData = {
com.typemytype.robofont.layerData = {
};
public.markColor = "0.85,0.26,0.06,1";
};
},
{
glyphname = equal;
lastChange = "2013-12-31 00:22:06 -0800";
layers = (
{
layerId = "6CD1E358-6E98-409F-9A1F-EA9DE4C1A8AA";
name = Regular;
paths = (
{
closed = 1;
nodes = (
"61 509 LINE",
"575 509 LINE",
"575 741 LINE",
"61 741 LINE"
);
},
{
closed = 1;
nodes = (
"61 892 LINE",
"575 892 LINE",
"575 1116 LINE",
"61 1116 LINE"
);
}
);
width = 637;
},
{
layerId = "E8DA9D10-2326-4043-BA0A-F99E452091F3";
name = "Regular Italic";
paths = (
{
closed = 1;
nodes = (
"25 509 LINE",
"539 509 LINE",
"576 741 LINE",
"62 741 LINE"
);
},
{
closed = 1;
nodes = (
"85 892 LINE",
"599 892 LINE",
"635 1116 LINE",
"121 1116 LINE"
);
}
);
width = 637;
}
);
unicode = 003D;
userData = {
com.typemytype.robofont.layerData = {
};
public.markColor = "0.85,0.26,0.06,1";
};
},
{
glyphname = greater;
lastChange = "2013-12-31 00:22:08 -0800";
layers = (
{
layerId = "6CD1E358-6E98-409F-9A1F-EA9DE4C1A8AA";
name = Regular;
paths = (
{
closed = 1;
nodes = (
"53 200 LINE",
"623 545 LINE",
"623 959 LINE",
"53 1300 LINE",
"53 941 LINE",
"395 749 LINE",
"53 558 LINE"
);
}
);
width = 658;
},
{
layerId = "E8DA9D10-2326-4043-BA0A-F99E452091F3";
name = "Regular Italic";
paths = (
{
closed = 1;
nodes = (
"-30 200 LINE",
"594 545 LINE",
"659 959 LINE",
"143 1300 LINE",
"86 941 LINE",
"398 749 LINE",
"26 558 LINE"
);
}
);
width = 658;
}
);
unicode = 003E;
userData = {
com.typemytype.robofont.layerData = {
};
public.markColor = "0.85,0.26,0.06,1";
};
},
{
glyphname = bar;
lastChange = "2013-12-30 23:23:56 -0800";
layers = (
{
layerId = "6CD1E358-6E98-409F-9A1F-EA9DE4C1A8AA";
name = Regular;
paths = (
{
closed = 1;
nodes = (
"62 -84 LINE",
"381 -84 LINE",
"381 1953 LINE",
"62 1953 LINE"
);
}
);
width = 443;
},
{
layerId = "E8DA9D10-2326-4043-BA0A-F99E452091F3";
name = "Regular Italic";
paths = (
{
closed = 1;
nodes = (
"-139 -84 LINE",
"180 -84 LINE",
"501 1953 LINE",
"182 1953 LINE"
);
}
);
width = 443;
}
);
unicode = 007C;
userData = {
com.typemytype.robofont.layerData = {
};
public.markColor = "0.85,0.26,0.06,1";
};
},
{
glyphname = asciitilde;
lastChange = "2013-12-31 00:22:12 -0800";
layers = (
{
layerId = "6CD1E358-6E98-409F-9A1F-EA9DE4C1A8AA";
name = Regular;
paths = (
{
closed = 1;
nodes = (
"732 810 CURVE SMOOTH",
"897 810 OFFCURVE",
"950 948 OFFCURVE",
"1004 1095 CURVE",
"822 1155 LINE",
"793 1094 OFFCURVE",
"760 1073 OFFCURVE",
"720 1073 CURVE SMOOTH",
"637 1073 OFFCURVE",
"526 1164 OFFCURVE",
"320 1164 CURVE SMOOTH",
"164 1164 OFFCURVE",
"104 1053 OFFCURVE",
"50 921 CURVE",
"212 835 LINE",
"241 891 OFFCURVE",
"274 910 OFFCURVE",
"313 910 CURVE SMOOTH",
"401 910 OFFCURVE",
"569 810 OFFCURVE"
);
}
);
width = 1009;
},
{
layerId = "E8DA9D10-2326-4043-BA0A-F99E452091F3";
name = "Regular Italic";
paths = (
{
closed = 1;
nodes = (
"727 810 CURVE SMOOTH",
"892 810 OFFCURVE",
"965 948 OFFCURVE",
"1044 1095 CURVE",
"871 1155 LINE",
"832 1094 OFFCURVE",
"796 1073 OFFCURVE",
"756 1073 CURVE SMOOTH",
"673 1073 OFFCURVE",
"576 1164 OFFCURVE",
"370 1164 CURVE SMOOTH",
"214 1164 OFFCURVE",
"136 1053 OFFCURVE",
"62 921 CURVE",
"211 835 LINE",
"247 891 OFFCURVE",
"284 910 OFFCURVE",
"323 910 CURVE SMOOTH",
"411 910 OFFCURVE",
"564 810 OFFCURVE"
);
}
);
width = 1009;
}
);
unicode = 007E;
userData = {
com.typemytype.robofont.layerData = {
};
public.markColor = "0.85,0.26,0.06,1";
};
},
{
glyphname = logicalnot;
lastChange = "2013-12-31 00:22:14 -0800";
layers = (
{
layerId = "6CD1E358-6E98-409F-9A1F-EA9DE4C1A8AA";
name = Regular;
paths = (
{
closed = 1;
nodes = (
"455 439 LINE",
"766 439 LINE",
"766 979 LINE",
"37 979 LINE",
"37 801 LINE",
"455 801 LINE"
);
}
);
width = 827;
},
{
layerId = "E8DA9D10-2326-4043-BA0A-F99E452091F3";
name = "Regular Italic";
paths = (
{
closed = 1;
nodes = (
"390 439 LINE",
"701 439 LINE",
"786 979 LINE",
"57 979 LINE",
"29 801 LINE",
"447 801 LINE"
);
}
);
width = 827;
}
);
unicode = 00AC;
userData = {
com.typemytype.robofont.layerData = {
};
public.markColor = "0.85,0.26,0.06,1";
};
},
{
glyphname = plusminus;
lastChange = "2013-12-31 00:22:17 -0800";
layers = (
{
layerId = "6CD1E358-6E98-409F-9A1F-EA9DE4C1A8AA";
name = Regular;
paths = (
{
closed = 1;
nodes = (
"254 414 LINE",
"486 414 LINE",
"486 622 LINE",
"694 622 LINE",
"694 854 LINE",
"486 854 LINE",
"486 1062 LINE",
"254 1062 LINE",
"254 854 LINE",
"46 854 LINE",
"46 622 LINE",
"254 622 LINE"
);
},
{
closed = 1;
nodes = (
"87 -1 LINE",
"603 -1 LINE",
"603 231 LINE",
"87 231 LINE"
);
}
);
width = 734;
},
{
layerId = "E8DA9D10-2326-4043-BA0A-F99E452091F3";
name = "Regular Italic";
paths = (
{
closed = 1;
nodes = (
"211 414 LINE",
"443 414 LINE",
"477 622 LINE",
"685 622 LINE",
"721 854 LINE",
"513 854 LINE",
"546 1062 LINE",
"314 1062 LINE",
"281 854 LINE",
"73 854 LINE",
"37 622 LINE",
"245 622 LINE"
);
},
{
closed = 1;
nodes = (
"-21 -1 LINE",
"495 -1 LINE",
"532 231 LINE",
"16 231 LINE"
);
}
);
width = 734;
}
);
unicode = 00B1;
userData = {
com.typemytype.robofont.layerData = {
};
public.markColor = "0.85,0.26,0.06,1";
};
},
{
glyphname = multiply;
lastChange = "2013-12-31 00:22:19 -0800";
layers = (
{
layerId = "6CD1E358-6E98-409F-9A1F-EA9DE4C1A8AA";
name = Regular;
paths = (
{
closed = 1;
nodes = (
"208 314 LINE",
"355 461 LINE",
"502 314 LINE",
"666 478 LINE",
"519 625 LINE",
"666 772 LINE",
"502 936 LINE",
"355 789 LINE",
"208 936 LINE",
"44 772 LINE",
"191 625 LINE",
"44 478 LINE"
);
}
);
width = 710;
},
{
layerId = "E8DA9D10-2326-4043-BA0A-F99E452091F3";
name = "Regular Italic";
paths = (
{
closed = 1;
nodes = (
"130 314 LINE",
"300 461 LINE",
"424 314 LINE",
"614 478 LINE",
"490 625 LINE",
"660 772 LINE",
"522 936 LINE",
"352 789 LINE",
"228 936 LINE",
"38 772 LINE",
"162 625 LINE",
"-8 478 LINE"
);
}
);
width = 710;
}
);
unicode = 00D7;
userData = {
com.typemytype.robofont.layerData = {
};
public.markColor = "0.85,0.26,0.06,1";
};
},
{
glyphname = divide;
lastChange = "2013-12-31 00:22:21 -0800";
layers = (
{
layerId = "6CD1E358-6E98-409F-9A1F-EA9DE4C1A8AA";
name = Regular;
paths = (
{
closed = 1;
nodes = (
"193 237 LINE",
"491 237 LINE",
"491 535 LINE",
"193 535 LINE"
);
},
{
closed = 1;
nodes = (
"34 638 LINE",
"650 638 LINE",
"650 870 LINE",
"34 870 LINE"
);
},
{
closed = 1;
nodes = (
"193 976 LINE",
"491 976 LINE",
"491 1274 LINE",
"193 1274 LINE"
);
}
);
width = 684;
},
{
layerId = "E8DA9D10-2326-4043-BA0A-F99E452091F3";
name = "Regular Italic";
paths = (
{
closed = 1;
nodes = (
"110 237 LINE",
"408 237 LINE",
"454 535 LINE",
"156 535 LINE"
);
},
{
closed = 1;
nodes = (
"14 638 LINE",
"630 638 LINE",
"666 870 LINE",
"50 870 LINE"
);
},
{
closed = 1;
nodes = (
"226 976 LINE",
"524 976 LINE",
"571 1274 LINE",
"273 1274 LINE"
);
}
);
width = 684;
}
);
unicode = 00F7;
userData = {
com.typemytype.robofont.layerData = {
};
public.markColor = "0.85,0.26,0.06,1";
};
},
{
glyphname = fraction;
lastChange = "2013-12-30 23:23:56 -0800";
layers = (
{
layerId = "6CD1E358-6E98-409F-9A1F-EA9DE4C1A8AA";
name = Regular;
paths = (
{
closed = 1;
nodes = (
"29 0 LINE",
"312 0 LINE",
"803 1767 LINE",
"519 1767 LINE"
);
}
);
width = 829;
},
{
layerId = "E8DA9D10-2326-4043-BA0A-F99E452091F3";
name = "Regular Italic";
paths = (
{
closed = 1;
nodes = (
"-130 0 LINE",
"153 0 LINE",
"923 1767 LINE",
"639 1767 LINE"
);
}
);
width = 829;
}
);
unicode = 2044;
userData = {
com.typemytype.robofont.layerData = {
};
public.markColor = "0.85,0.26,0.06,1";
};
},
{
glyphname = partialdiff;
lastChange = "2013-12-30 23:23:56 -0800";
layers = (
{
layerId = "6CD1E358-6E98-409F-9A1F-EA9DE4C1A8AA";
name = Regular;
paths = (
{
closed = 1;
nodes = (
"446 -21 CURVE SMOOTH",
"669 -21 OFFCURVE",
"811 54 OFFCURVE",
"890 196 CURVE SMOOTH",
"977 354 OFFCURVE",
"1030 1074 OFFCURVE",
"1030 1159 CURVE SMOOTH",
"1030 1479 OFFCURVE",
"928 1681 OFFCURVE",
"619 1681 CURVE SMOOTH",
"513 1681 OFFCURVE",
"383 1656 OFFCURVE",
"229 1607 CURVE",
"283 1376 LINE",
"334 1396 OFFCURVE",
"432 1415 OFFCURVE",
"507 1415 CURVE SMOOTH",
"626 1415 OFFCURVE",
"665 1306 OFFCURVE",
"665 1164 CURVE SMOOTH",
"665 1132 OFFCURVE",
"661 1093 OFFCURVE",
"654 1047 CURVE",
"577 1073 OFFCURVE",
"508 1086 OFFCURVE",
"445 1086 CURVE SMOOTH",
"123 1086 OFFCURVE",
"37 735 OFFCURVE",
"37 413 CURVE SMOOTH",
"37 127 OFFCURVE",
"158 -21 OFFCURVE"
);
},
{
closed = 1;
nodes = (
"490 293 CURVE SMOOTH",
"432 293 OFFCURVE",
"417 332 OFFCURVE",
"417 391 CURVE SMOOTH",
"417 411 OFFCURVE",
"419 439 OFFCURVE",
"423 475 CURVE SMOOTH",
"440 645 LINE SMOOTH",
"450 744 OFFCURVE",
"481 794 OFFCURVE",
"534 794 CURVE SMOOTH",
"560 794 OFFCURVE",
"589 782 OFFCURVE",
"622 759 CURVE",
"591 419 LINE SMOOTH",
"585 349 OFFCURVE",
"556 293 OFFCURVE"
);
}
);
width = 1072;
},
{
layerId = "E8DA9D10-2326-4043-BA0A-F99E452091F3";
name = "Regular Italic";
paths = (
{
closed = 1;
nodes = (
"298 -21 CURVE SMOOTH",
"521 -21 OFFCURVE",
"674 54 OFFCURVE",
"776 196 CURVE SMOOTH",
"888 354 OFFCURVE",
"1054 1074 OFFCURVE",
"1068 1159 CURVE SMOOTH",
"1118 1479 OFFCURVE",
"1048 1681 OFFCURVE",
"739 1681 CURVE SMOOTH",
"633 1681 OFFCURVE",
"499 1656 OFFCURVE",
"337 1607 CURVE",
"355 1376 LINE",
"409 1396 OFFCURVE",
"510 1415 OFFCURVE",
"585 1415 CURVE SMOOTH",
"704 1415 OFFCURVE",
"726 1306 OFFCURVE",
"704 1164 CURVE SMOOTH",
"699 1132 OFFCURVE",
"688 1093 OFFCURVE",
"674 1047 CURVE",
"601 1073 OFFCURVE",
"534 1086 OFFCURVE",
"471 1086 CURVE SMOOTH",
"149 1086 OFFCURVE",
"8 735 OFFCURVE",
"-43 413 CURVE SMOOTH",
"-88 127 OFFCURVE",
"10 -21 OFFCURVE"
);
},
{
closed = 1;
nodes = (
"392 293 CURVE SMOOTH",
"334 293 OFFCURVE",
"324 332 OFFCURVE",
"334 391 CURVE SMOOTH",
"337 411 OFFCURVE",
"344 439 OFFCURVE",
"353 475 CURVE SMOOTH",
"397 645 LINE SMOOTH",
"422 744 OFFCURVE",
"461 794 OFFCURVE",
"514 794 CURVE SMOOTH",
"540 794 OFFCURVE",
"568 782 OFFCURVE",
"597 759 CURVE",
"512 419 LINE SMOOTH",
"494 349 OFFCURVE",
"458 293 OFFCURVE"
);
}
);
width = 1072;
}
);
unicode = 2202;
userData = {
com.typemytype.robofont.layerData = {
};
public.markColor = "0.85,0.26,0.06,1";
};
},
{
color = 0;
glyphname = uni2206;
lastChange = "2013-12-30 23:23:28 -0800";
layers = (
{
layerId = "6CD1E358-6E98-409F-9A1F-EA9DE4C1A8AA";
name = Regular;
paths = (
{
closed = 1;
nodes = (
"376 230 LINE",
"443 1451 LINE",
"475 1451 LINE",
"542 230 LINE"
);
},
{
closed = 1;
nodes = (
"34 0 LINE",
"887 0 LINE",
"708 1760 LINE",
"217 1760 LINE"
);
}
);
width = 921;
},
{
layerId = "E8DA9D10-2326-4043-BA0A-F99E452091F3";
name = "Regular Italic";
paths = (
{
closed = 1;
nodes = (
"255 230 LINE",
"514 1451 LINE",
"546 1451 LINE",
"421 230 LINE"
);
},
{
closed = 1;
nodes = (
"-123 0 LINE",
"730 0 LINE",
"828 1760 LINE",
"337 1760 LINE"
);
}
);
width = 921;
}
);
unicode = 2206;
userData = {
com.typemytype.robofont.layerData = {
};
public.markColor = "0.85,0.26,0.06,1";
};
},
{
glyphname = product;
lastChange = "2013-12-30 23:23:56 -0800";
layers = (
{
layerId = "6CD1E358-6E98-409F-9A1F-EA9DE4C1A8AA";
name = Regular;
paths = (
{
closed = 1;
nodes = (
"62 0 LINE",
"412 0 LINE",
"412 1459 LINE",
"578 1459 LINE",
"578 0 LINE",
"928 0 LINE",
"928 1760 LINE",
"62 1760 LINE"
);
}
);
width = 990;
},
{
layerId = "E8DA9D10-2326-4043-BA0A-F99E452091F3";
name = "Regular Italic";
paths = (
{
closed = 1;
nodes = (
"-95 0 LINE",
"255 0 LINE",
"484 1459 LINE",
"650 1459 LINE",
"421 0 LINE",
"771 0 LINE",
"1048 1760 LINE",
"182 1760 LINE"
);
}
);
width = 990;
}
);
unicode = 220F;
userData = {
com.typemytype.robofont.layerData = {
};
public.markColor = "0.85,0.26,0.06,1";
};
},
{
glyphname = summation;
lastChange = "2013-12-30 23:23:56 -0800";
layers = (
{
layerId = "6CD1E358-6E98-409F-9A1F-EA9DE4C1A8AA";
name = Regular;
paths = (
{
closed = 1;
nodes = (
"43 0 LINE",
"807 0 LINE",
"807 301 LINE",
"415 301 LINE",
"628 891 LINE",
"415 1459 LINE",
"807 1459 LINE",
"807 1760 LINE",
"43 1760 LINE",
"43 1488 LINE",
"253 891 LINE",
"43 272 LINE"
);
}
);
width = 849;
},
{
layerId = "E8DA9D10-2326-4043-BA0A-F99E452091F3";
name = "Regular Italic";
paths = (
{
closed = 1;
nodes = (
"-114 0 LINE",
"650 0 LINE",
"697 301 LINE",
"305 301 LINE",
"611 891 LINE",
"487 1459 LINE",
"879 1459 LINE",
"927 1760 LINE",
"163 1760 LINE",
"121 1488 LINE",
"236 891 LINE",
"-72 272 LINE"
);
}
);
width = 849;
}
);
unicode = 2211;
userData = {
com.typemytype.robofont.layerData = {
};
public.markColor = "0.85,0.26,0.06,1";
};
},
{
glyphname = minus;
lastChange = "2013-12-31 00:22:28 -0800";
layers = (
{
layerId = "6CD1E358-6E98-409F-9A1F-EA9DE4C1A8AA";
name = Regular;
paths = (
{
closed = 1;
nodes = (
"60 509 LINE",
"576 509 LINE",
"576 741 LINE",
"60 741 LINE"
);
}
);
width = 637;
},
{
layerId = "E8DA9D10-2326-4043-BA0A-F99E452091F3";
name = "Regular Italic";
paths = (
{
closed = 1;
nodes = (
"14 509 LINE",
"530 509 LINE",
"566 741 LINE",
"50 741 LINE"
);
}
);
width = 637;
}
);
unicode = 2212;
userData = {
com.typemytype.robofont.layerData = {
};
public.markColor = "0.85,0.26,0.06,1";
};
},
{
glyphname = radical;
lastChange = "2013-12-30 23:23:56 -0800";
layers = (
{
layerId = "6CD1E358-6E98-409F-9A1F-EA9DE4C1A8AA";
name = Regular;
paths = (
{
closed = 1;
nodes = (
"248 0 LINE",
"652 0 LINE",
"858 1269 LINE",
"1382 1269 LINE",
"1382 1501 LINE",
"551 1501 LINE",
"549 1500 LINE",
"412 338 LINE",
"298 741 LINE",
"29 741 LINE"
);
}
);
width = 1417;
},
{
layerId = "E8DA9D10-2326-4043-BA0A-F99E452091F3";
name = "Regular Italic";
paths = (
{
closed = 1;
nodes = (
"132 0 LINE",
"536 0 LINE",
"942 1269 LINE",
"1466 1269 LINE",
"1502 1501 LINE",
"671 1501 LINE",
"669 1500 LINE",
"348 338 LINE",
"298 741 LINE",
"29 741 LINE"
);
}
);
width = 1417;
}
);
unicode = 221A;
userData = {
com.typemytype.robofont.layerData = {
};
public.markColor = "0.85,0.26,0.06,1";
};
},
{
glyphname = infinity;
lastChange = "2013-12-31 00:22:30 -0800";
layers = (
{
layerId = "6CD1E358-6E98-409F-9A1F-EA9DE4C1A8AA";
name = Regular;
paths = (
{
closed = 1;
nodes = (
"852 439 CURVE SMOOTH",
"1030 439 OFFCURVE",
"1122 559 OFFCURVE",
"1122 744 CURVE SMOOTH",
"1122 927 OFFCURVE",
"1028 1041 OFFCURVE",
"852 1041 CURVE SMOOTH",
"754 1041 OFFCURVE",
"663 989 OFFCURVE",
"579 885 CURVE",
"494 980 OFFCURVE",
"405 1028 OFFCURVE",
"310 1028 CURVE SMOOTH",
"140 1028 OFFCURVE",
"48 920 OFFCURVE",
"48 744 CURVE SMOOTH",
"48 564 OFFCURVE",
"136 452 OFFCURVE",
"310 452 CURVE SMOOTH",
"422 452 OFFCURVE",
"523 522 OFFCURVE",
"579 585 CURVE",
"636 512 OFFCURVE",
"727 439 OFFCURVE"
);
},
{
closed = 1;
nodes = (
"373 669 CURVE SMOOTH",
"314 669 OFFCURVE",
"284 693 OFFCURVE",
"284 740 CURVE SMOOTH",
"284 787 OFFCURVE",
"314 810 OFFCURVE",
"373 810 CURVE SMOOTH",
"421 810 OFFCURVE",
"469 787 OFFCURVE",
"517 740 CURVE",
"468 693 OFFCURVE",
"420 669 OFFCURVE"
);
},
{
closed = 1;
nodes = (
"793 669 CURVE SMOOTH",
"739 669 OFFCURVE",
"688 693 OFFCURVE",
"641 740 CURVE",
"692 787 OFFCURVE",
"742 811 OFFCURVE",
"793 811 CURVE SMOOTH",
"856 811 OFFCURVE",
"888 787 OFFCURVE",
"888 740 CURVE SMOOTH",
"888 693 OFFCURVE",
"856 669 OFFCURVE"
);
}
);
width = 1171;
},
{
layerId = "E8DA9D10-2326-4043-BA0A-F99E452091F3";
name = "Regular Italic";
paths = (
{
closed = 1;
nodes = (
"777 439 CURVE SMOOTH",
"955 439 OFFCURVE",
"1066 559 OFFCURVE",
"1096 744 CURVE SMOOTH",
"1124 927 OFFCURVE",
"1048 1041 OFFCURVE",
"872 1041 CURVE SMOOTH",
"774 1041 OFFCURVE",
"675 989 OFFCURVE",
"575 885 CURVE",
"505 980 OFFCURVE",
"423 1028 OFFCURVE",
"328 1028 CURVE SMOOTH",
"158 1028 OFFCURVE",
"49 920 OFFCURVE",
"22 744 CURVE SMOOTH",
"-8 564 OFFCURVE",
"63 452 OFFCURVE",
"237 452 CURVE SMOOTH",
"349 452 OFFCURVE",
"461 522 OFFCURVE",
"527 585 CURVE",
"573 512 OFFCURVE",
"652 439 OFFCURVE"
);
},
{
closed = 1;
nodes = (
"334 669 CURVE SMOOTH",
"275 669 OFFCURVE",
"249 693 OFFCURVE",
"256 740 CURVE SMOOTH",
"264 787 OFFCURVE",
"298 810 OFFCURVE",
"357 810 CURVE SMOOTH",
"405 810 OFFCURVE",
"449 787 OFFCURVE",
"489 740 CURVE",
"433 693 OFFCURVE",
"381 669 OFFCURVE"
);
},
{
closed = 1;
nodes = (
"754 669 CURVE SMOOTH",
"700 669 OFFCURVE",
"653 693 OFFCURVE",
"613 740 CURVE",
"672 787 OFFCURVE",
"726 811 OFFCURVE",
"777 811 CURVE SMOOTH",
"840 811 OFFCURVE",
"868 787 OFFCURVE",
"860 740 CURVE SMOOTH",
"853 693 OFFCURVE",
"817 669 OFFCURVE"
);
}
);
width = 1171;
}
);
unicode = 221E;
userData = {
com.typemytype.robofont.layerData = {
};
public.markColor = "0.85,0.26,0.06,1";
};
},
{
glyphname = integral;
lastChange = "2013-12-30 23:23:56 -0800";
layers = (
{
layerId = "6CD1E358-6E98-409F-9A1F-EA9DE4C1A8AA";
name = Regular;
paths = (
{
closed = 1;
nodes = (
"239 -47 CURVE SMOOTH",
"403 -47 OFFCURVE",
"474 35 OFFCURVE",
"474 195 CURVE SMOOTH",
"474 1281 LINE SMOOTH",
"474 1332 OFFCURVE",
"480 1362 OFFCURVE",
"529 1362 CURVE SMOOTH",
"539 1362 OFFCURVE",
"553 1360 OFFCURVE",
"572 1357 CURVE",
"572 1578 LINE",
"521 1597 OFFCURVE",
"453 1607 OFFCURVE",
"368 1607 CURVE SMOOTH",
"201 1607 OFFCURVE",
"126 1528 OFFCURVE",
"126 1365 CURVE SMOOTH",
"126 279 LINE SMOOTH",
"126 231 OFFCURVE",
"126 198 OFFCURVE",
"78 198 CURVE SMOOTH",
"68 198 OFFCURVE",
"54 200 OFFCURVE",
"35 203 CURVE",
"35 -18 LINE",
"86 -37 OFFCURVE",
"154 -47 OFFCURVE"
);
}
);
width = 606;
},
{
layerId = "E8DA9D10-2326-4043-BA0A-F99E452091F3";
name = "Regular Italic";
paths = (
{
closed = 1;
nodes = (
"98 -47 CURVE SMOOTH",
"262 -47 OFFCURVE",
"346 35 OFFCURVE",
"372 195 CURVE SMOOTH",
"543 1281 LINE SMOOTH",
"550 1332 OFFCURVE",
"561 1362 OFFCURVE",
"610 1362 CURVE SMOOTH",
"620 1362 OFFCURVE",
"634 1360 OFFCURVE",
"652 1357 CURVE",
"687 1578 LINE",
"640 1597 OFFCURVE",
"573 1607 OFFCURVE",
"488 1607 CURVE SMOOTH",
"321 1607 OFFCURVE",
"233 1528 OFFCURVE",
"208 1365 CURVE SMOOTH",
"37 279 LINE SMOOTH",
"29 231 OFFCURVE",
"24 198 OFFCURVE",
"-24 198 CURVE SMOOTH",
"-34 198 OFFCURVE",
"-48 200 OFFCURVE",
"-66 203 CURVE",
"-102 -18 LINE",
"-53 -37 OFFCURVE",
"13 -47 OFFCURVE"
);
}
);
width = 606;
}
);
unicode = 222B;
userData = {
com.typemytype.robofont.layerData = {
};
public.markColor = "0.85,0.26,0.06,1";
};
},
{
glyphname = approxequal;
lastChange = "2013-12-31 00:22:35 -0800";
layers = (
{
layerId = "6CD1E358-6E98-409F-9A1F-EA9DE4C1A8AA";
name = Regular;
paths = (
{
closed = 1;
nodes = (
"732 340 CURVE SMOOTH",
"897 340 OFFCURVE",
"950 478 OFFCURVE",
"1004 625 CURVE",
"822 685 LINE",
"793 624 OFFCURVE",
"760 603 OFFCURVE",
"720 603 CURVE SMOOTH",
"637 603 OFFCURVE",
"526 694 OFFCURVE",
"320 694 CURVE SMOOTH",
"164 694 OFFCURVE",
"104 583 OFFCURVE",
"50 451 CURVE",
"212 365 LINE",
"241 421 OFFCURVE",
"274 440 OFFCURVE",
"313 440 CURVE SMOOTH",
"401 440 OFFCURVE",
"569 340 OFFCURVE"
);
},
{
closed = 1;
nodes = (
"732 810 CURVE SMOOTH",
"897 810 OFFCURVE",
"950 948 OFFCURVE",
"1004 1095 CURVE",
"822 1155 LINE",
"793 1094 OFFCURVE",
"760 1073 OFFCURVE",
"720 1073 CURVE SMOOTH",
"637 1073 OFFCURVE",
"526 1164 OFFCURVE",
"320 1164 CURVE SMOOTH",
"164 1164 OFFCURVE",
"104 1053 OFFCURVE",
"50 921 CURVE",
"212 835 LINE",
"241 891 OFFCURVE",
"274 910 OFFCURVE",
"313 910 CURVE SMOOTH",
"401 910 OFFCURVE",
"569 810 OFFCURVE"
);
}
);
width = 1009;
},
{
layerId = "E8DA9D10-2326-4043-BA0A-F99E452091F3";
name = "Regular Italic";
paths = (
{
closed = 1;
nodes = (
"642 340 CURVE SMOOTH",
"807 340 OFFCURVE",
"882 478 OFFCURVE",
"959 625 CURVE",
"786 685 LINE",
"748 624 OFFCURVE",
"711 603 OFFCURVE",
"671 603 CURVE SMOOTH",
"588 603 OFFCURVE",
"492 694 OFFCURVE",
"286 694 CURVE SMOOTH",
"130 694 OFFCURVE",
"53 583 OFFCURVE",
"-23 451 CURVE",
"126 365 LINE",
"164 421 OFFCURVE",
"200 440 OFFCURVE",
"239 440 CURVE SMOOTH",
"327 440 OFFCURVE",
"479 340 OFFCURVE"
);
},
{
closed = 1;
nodes = (
"717 810 CURVE SMOOTH",
"882 810 OFFCURVE",
"955 948 OFFCURVE",
"1034 1095 CURVE",
"861 1155 LINE",
"822 1094 OFFCURVE",
"786 1073 OFFCURVE",
"746 1073 CURVE SMOOTH",
"663 1073 OFFCURVE",
"566 1164 OFFCURVE",
"360 1164 CURVE SMOOTH",
"204 1164 OFFCURVE",
"126 1053 OFFCURVE",
"52 921 CURVE",
"201 835 LINE",
"237 891 OFFCURVE",
"274 910 OFFCURVE",
"313 910 CURVE SMOOTH",
"401 910 OFFCURVE",
"554 810 OFFCURVE"
);
}
);
width = 1009;
}
);
unicode = 2248;
userData = {
com.typemytype.robofont.layerData = {
};
public.markColor = "0.85,0.26,0.06,1";
};
},
